<?xml version="1.0" standalone="no"?>
<!DOCTYPE svg PUBLIC "-//W3C//DTD SVG 1.1//EN" "http://www.w3.org/Graphics/SVG/1.1/DTD/svg11.dtd" >
<svg>
<metadata>
Created by FontForge 20110222 at Sat May 24 23:43:45 2014
 By deploy user
Copyright (c) 2012 by Vyacheslav Kirilenko, Gayane Bagdasaryan. All rights reserved.
</metadata>
<defs>
<font id="Geometria-Light" horiz-adv-x="628" >
  <font-face 
    font-family="Geometria Light"
    font-weight="300"
    font-stretch="normal"
    units-per-em="1000"
    panose-1="2 11 4 3 2 2 4 2 2 4"
    ascent="776"
    descent="-224"
    x-height="477"
    cap-height="700"
    bbox="-410 -218 1438 922"
    underline-thickness="50"
    underline-position="-50"
    unicode-range="U+0020-FB04"
  />
<missing-glyph horiz-adv-x="696" 
d="M86 0v700h415v-700h-415zM124 35h339v630h-339v-630z" />
    <glyph glyph-name="ij" unicode="ij" horiz-adv-x="488" 
d="M104 0v477h45v-477h-45zM126 608q-16 0 -27 11t-11 27t11 27t27 11t27 -11t11 -27t-11 -27t-27 -11zM258 -204q55 0 90.5 32t35.5 105v544h-45v-536q0 -103 -89 -103q-36 0 -69 19v-43q30 -18 77 -18zM361 608q-16 0 -27 11t-11 27t11 27t27 11t27 -11t11 -27t-10.5 -27
t-27.5 -11z" />
    <glyph glyph-name="f_f" unicode="ff" horiz-adv-x="663" 
d="M461 0h-45v436h-244v-436h-45v436h-99v41h99v95q0 63 32.5 99t93.5 36q52 0 93 -20v-43q-44 21 -84 21q-43 0 -66.5 -27t-23.5 -76v-85h244v95q0 63 32.5 99t93.5 36q52 0 93 -20v-43q-44 21 -84 21q-43 0 -66.5 -27t-23.5 -76v-85h174v-41h-174v-436z" />
    <glyph glyph-name="fi" unicode="fi" horiz-adv-x="566" 
d="M172 0h-45v436h-99v41h99v95q0 63 32.5 99t93.5 36q52 0 93 -20v-43q-44 21 -84 21q-43 0 -66.5 -27t-23.5 -76v-85h289v-477h-45v436h-244v-436zM439 608q-17 0 -27.5 11t-10.5 27t11 27t27 11t27 -11t11 -27t-11 -27t-27 -11z" />
    <glyph glyph-name="fl" unicode="fl" horiz-adv-x="605" 
d="M519 -12q-43 0 -73 25.5t-30 85.5v337h-244v-436h-45v436h-99v41h99v95q0 63 32.5 99t93.5 36q52 0 93 -20v-43q-44 21 -84 21q-43 0 -66.5 -27t-23.5 -76v-85h244v223h45v-592q0 -78 71 -78q28 0 50 14v-42q-25 -14 -63 -14z" />
    <glyph glyph-name="f_f_i" unicode="ffi" horiz-adv-x="856" 
d="M172 0h-45v436h-99v41h99v95q0 63 32.5 99t93.5 36q52 0 93 -20v-43q-44 21 -84 21q-43 0 -66.5 -27t-23.5 -76v-85h244v95q0 63 32.5 99t93.5 36q52 0 93 -20v-43q-44 21 -84 21q-43 0 -66.5 -27t-23.5 -76v-85h289v-477h-45v436h-244v-436h-45v436h-244v-436zM728 608
q-16 0 -27 11t-11 27t11 27t27 11t27 -11t11 -27t-11 -27t-27 -11z" />
    <glyph glyph-name="f_f_l" unicode="ffl" horiz-adv-x="894" 
d="M172 0h-45v436h-99v41h99v95q0 63 32.5 99t93.5 36q52 0 93 -20v-43q-44 21 -84 21q-43 0 -66.5 -27t-23.5 -76v-85h244v95q0 63 32.5 99t93.5 36q52 0 93 -20v-43q-44 21 -84 21q-43 0 -66.5 -27t-23.5 -76v-85h244v223h45v-592q0 -78 71 -78q28 0 50 14v-42
q-25 -14 -63 -14q-43 0 -73 25.5t-30 85.5v337h-244v-436h-45v436h-244v-436z" />
    <glyph glyph-name=".notdef" horiz-adv-x="696" 
d="M86 0v700h415v-700h-415zM124 35h339v630h-339v-630z" />
    <glyph glyph-name=".null" horiz-adv-x="0" 
 />
    <glyph glyph-name="nonmarkingreturn" horiz-adv-x="333" 
 />
    <glyph glyph-name="space" unicode=" " horiz-adv-x="268" 
 />
    <glyph glyph-name="exclam" unicode="!" horiz-adv-x="264" 
d="M111 208l-6 492h54l-6 -492h-42zM94 35q0 16 11 27t27 11t27 -11t11 -27t-11 -27t-27 -11t-27 11t-11 27z" />
    <glyph glyph-name="quotedbl" unicode="&#x22;" horiz-adv-x="343" 
d="M60 463v237h44v-237h-44zM240 463v237h43v-237h-43z" />
    <glyph glyph-name="numbersign" unicode="#" horiz-adv-x="712" 
d="M150 0l31 198h-147l7 42h146l35 219h-147l8 42h145l33 199h44l-32 -199h213l31 199h45l-32 -199h148l-7 -42h-147l-35 -219h148l-7 -42h-148l-31 -198h-45l32 198h-212l-32 -198h-44zM232 240h213l34 219h-211z" />
    <glyph glyph-name="dollar" unicode="$" horiz-adv-x="623" 
d="M327 814v-103q106 -6 187 -58v-49q-96 64 -210 64q-93 0 -140.5 -38t-47.5 -92q0 -23 6.5 -41t21.5 -32.5t28 -24t39.5 -19.5t42.5 -15t48 -14l21 -6q44 -13 68.5 -21t60.5 -25.5t55 -36.5t33.5 -50t14.5 -70q0 -86 -65.5 -137t-162.5 -57v-103h-47v103q-72 4 -134.5 25
t-97.5 49v53q40 -34 107.5 -59t144.5 -25q91 0 149.5 41t58.5 110q0 30 -12 54t-28 39t-48 29.5t-55.5 21.5t-66.5 19q-47 13 -74.5 22.5t-61 26t-51 34.5t-29.5 46t-12 64q0 70 54.5 118.5t155.5 53.5v103h47z" />
    <glyph glyph-name="percent" unicode="%" horiz-adv-x="822" 
d="M219 416q53 0 87.5 37t34.5 92t-34.5 92t-87.5 37q-54 0 -88.5 -37t-34.5 -92t34.5 -92t88.5 -37zM219 378q-71 0 -117.5 48.5t-46.5 118.5t46.5 118.5t117.5 48.5q70 0 116.5 -48.5t46.5 -118.5t-46.5 -118.5t-116.5 -48.5zM184 0l407 700h48l-407 -700h-48zM604 26
q53 0 87.5 37t34.5 92t-34.5 92t-87.5 37q-54 0 -88.5 -37t-34.5 -92t34.5 -92t88.5 -37zM604 -12q-71 0 -117.5 48.5t-46.5 118.5t46.5 118.5t117.5 48.5q70 0 116.5 -48.5t46.5 -118.5t-46.5 -118.5t-116.5 -48.5z" />
    <glyph glyph-name="ampersand" unicode="&#x26;" horiz-adv-x="703" 
d="M496 656v-51q-75 65 -164 65q-68 0 -108.5 -33t-40.5 -90q0 -72 82 -151l263 -252q64 91 69 227h45q-5 -152 -83 -258l119 -113h-63l-84 80q-89 -92 -227 -92q-101 0 -176.5 59.5t-75.5 162.5q0 78 44 130.5t96 71.5q-55 64 -55 136q0 74 54 119t134 45q100 0 171 -56z
M304 30q118 0 196 80l-279 269q-49 -15 -86 -60t-37 -109q0 -81 59 -130.5t147 -49.5z" />
    <glyph glyph-name="quotesingle" unicode="'" horiz-adv-x="164" 
d="M60 463v237h44v-237h-44z" />
    <glyph glyph-name="parenleft" unicode="(" horiz-adv-x="351" 
d="M252 -206q-150 189 -150 456q0 265 150 456h50q-157 -201 -157 -456q0 -257 157 -456h-50z" />
    <glyph glyph-name="parenright" unicode=")" horiz-adv-x="351" 
d="M99 -206h-50q157 199 157 456q0 255 -157 456h50q150 -191 150 -456q0 -267 -150 -456z" />
    <glyph glyph-name="asterisk" unicode="*" horiz-adv-x="426" 
d="M194 348l2 146l-125 -76l-20 34l127 72l-127 71l20 35l125 -76l-2 146h39l-2 -146l125 76l19 -35l-127 -71l127 -72l-19 -34l-125 76l2 -146h-39z" />
    <glyph glyph-name="plus" unicode="+" horiz-adv-x="607" 
d="M283 90v212h-213v42h213v213h42v-213h212v-42h-212v-212h-42z" />
    <glyph glyph-name="comma" unicode="," horiz-adv-x="222" 
d="M23 -152l76 239h56l-93 -239h-39z" />
    <glyph glyph-name="hyphen" unicode="-" horiz-adv-x="476" 
d="M103 249v41h270v-41h-270z" />
    <glyph glyph-name="period" unicode="." horiz-adv-x="222" 
d="M73 35q0 16 11 27t27 11t27 -11t11 -27t-11 -27t-27 -11t-27 11t-11 27z" />
    <glyph glyph-name="slash" unicode="/" horiz-adv-x="499" 
d="M15 -140l421 932h48l-421 -932h-48z" />
    <glyph glyph-name="zero" unicode="0" horiz-adv-x="706" 
d="M353 -12q-124 0 -202.5 103.5t-78.5 258.5q0 154 78.5 258t202.5 104q123 0 202 -104t79 -258q0 -155 -79 -258.5t-202 -103.5zM353 32q102 0 168.5 90.5t66.5 227.5t-66.5 227.5t-168.5 90.5t-168.5 -90.5t-66.5 -227.5t66.5 -227.5t168.5 -90.5z" />
    <glyph glyph-name="one" unicode="1" horiz-adv-x="363" 
d="M199 0v650l-162 -99v47l165 102h43v-700h-46z" />
    <glyph glyph-name="two" unicode="2" horiz-adv-x="571" 
d="M45 0l1 36l247 239q81 78 114 127.5t33 112.5q0 68 -47.5 110.5t-126.5 42.5q-114 0 -206 -99v57q86 86 210 86q95 0 156 -54t61 -140q0 -70 -35 -126t-120 -139l-216 -210h399v-43h-470z" />
    <glyph glyph-name="three" unicode="3" horiz-adv-x="566" 
d="M242 -12q-120 0 -201 51v50q79 -57 197 -57q88 0 152.5 50t64.5 135q0 79 -57.5 128.5t-152.5 49.5q-36 0 -70 -8v33l238 237h-340v43h404v-34l-231 -232q103 0 179 -57.5t76 -159.5t-74 -165.5t-185 -63.5z" />
    <glyph glyph-name="four" unicode="4" horiz-adv-x="627" 
d="M426 0v203h-387v38l389 459h44v-454h119v-43h-119v-203h-46zM96 246h330v388z" />
    <glyph glyph-name="five" unicode="5" horiz-adv-x="597" 
d="M257 -12q-112 0 -191 46v48q80 -50 190 -50q98 0 162 52.5t64 131.5q0 75 -59.5 125.5t-157.5 50.5q-87 0 -168 -28l46 336h336v-43h-300l-33 -236q54 15 129 15q109 0 181 -62t72 -158q0 -99 -77 -163.5t-194 -64.5z" />
    <glyph glyph-name="six" unicode="6" horiz-adv-x="638" 
d="M335 -12q-120 0 -190 86t-70 241q0 172 82 284.5t217 112.5q84 0 145 -43v-45q-65 44 -142 44q-84 0 -143 -50.5t-86 -128.5t-27 -175q26 55 85 91.5t135 36.5q94 0 160.5 -62.5t66.5 -158.5q0 -101 -66.5 -167t-166.5 -66zM334 32q79 0 133.5 53.5t54.5 134.5
q0 80 -55 129t-136 49q-70 0 -126.5 -44t-79.5 -110q12 -100 64.5 -156t144.5 -56z" />
    <glyph glyph-name="seven" unicode="7" horiz-adv-x="544" 
d="M109 0l333 657h-394v43h448v-34l-338 -666h-49z" />
    <glyph glyph-name="eight" unicode="8" horiz-adv-x="646" 
d="M421 371q75 -18 119 -66t44 -118q0 -89 -74.5 -144t-186.5 -55t-187 55t-75 144q0 70 44 118t120 66q-59 19 -93.5 61.5t-34.5 100.5q0 80 64 129.5t162 49.5q97 0 161 -49.5t64 -129.5q0 -58 -34.5 -100.5t-92.5 -61.5zM144 530q0 -60 51 -99.5t129 -39.5q76 0 127 39.5
t51 99.5q0 61 -50.5 99.5t-127.5 38.5q-78 0 -129 -38t-51 -100zM322 32q91 0 153 45.5t62 112.5q0 70 -61.5 113.5t-153.5 43.5q-91 0 -152.5 -44t-61.5 -113q0 -67 62 -112.5t152 -45.5z" />
    <glyph glyph-name="nine" unicode="9" horiz-adv-x="638" 
d="M303 712q120 0 190 -86t70 -241q0 -172 -82 -284.5t-217 -112.5q-84 0 -145 43v45q65 -44 142 -44q84 0 143 50.5t86 128.5t27 175q-26 -55 -85 -91.5t-135 -36.5q-94 0 -160.5 62.5t-66.5 158.5q0 101 66.5 167t166.5 66zM304 668q-79 0 -133.5 -53.5t-54.5 -134.5
q0 -80 55 -129t136 -49q70 0 126.5 44t79.5 110q-12 100 -64.5 156t-144.5 56z" />
    <glyph glyph-name="colon" unicode=":" horiz-adv-x="222" 
d="M73 424q0 16 11 27t27 11t27 -11t11 -27t-11 -27t-27 -11t-27 11t-11 27zM73 35q0 16 11 27t27 11t27 -11t11 -27t-11 -27t-27 -11t-27 11t-11 27z" />
    <glyph glyph-name="semicolon" unicode=";" horiz-adv-x="222" 
d="M23 -152l76 239h56l-93 -239h-39zM75 424q0 16 11 27t27 11t27 -11t11 -27t-11 -27t-27 -11t-27 11t-11 27z" />
    <glyph glyph-name="less" unicode="&#x3c;" horiz-adv-x="607" 
d="M537 96l-467 203v43l467 203v-45l-414 -180l414 -178v-46z" />
    <glyph glyph-name="equal" unicode="=" horiz-adv-x="607" 
d="M70 188v41h467v-41h-467zM70 416v41h467v-41h-467z" />
    <glyph glyph-name="greater" unicode="&#x3e;" horiz-adv-x="607" 
d="M70 96v46l415 178l-415 180v45l467 -203v-43z" />
    <glyph glyph-name="question" unicode="?" horiz-adv-x="467" 
d="M184 208v143q72 15 128 60.5t56 109.5t-47 104t-119 40q-90 0 -171 -60v46q72 56 175 56q86 0 147 -51.5t61 -133.5q0 -71 -53.5 -122t-132.5 -75v-117h-44zM170 35q0 16 11 27t27 11t27 -11t11 -27t-11 -27t-27 -11t-27 11t-11 27z" />
    <glyph glyph-name="at" unicode="@" horiz-adv-x="968" 
d="M485 -162q-179 0 -304.5 125.5t-125.5 311.5q0 185 125.5 311t304.5 126q183 0 305.5 -119t122.5 -292q0 -101 -44.5 -167t-120.5 -66q-86 0 -115 82q-23 -32 -66 -57.5t-97 -25.5q-87 0 -142.5 61t-55.5 146t55.5 146t142.5 61q51 0 92 -23.5t65 -53.5v62h44v-267
q0 -52 23.5 -79t62.5 -27q58 0 95 59t37 150q0 103 -49 190.5t-142.5 141.5t-212.5 54q-174 0 -290 -120.5t-116 -292.5q0 -173 115.5 -293t290.5 -120q112 0 204 47v-24q-92 -47 -204 -47zM480 110q44 0 84.5 24.5t62.5 62.5v154q-22 38 -62.5 62.5t-84.5 24.5
q-69 0 -115 -47.5t-46 -116.5t46 -116.5t115 -47.5z" />
    <glyph glyph-name="A" unicode="A" horiz-adv-x="743" 
d="M33 0l318 704h43l316 -704h-48l-93 206h-394l-93 -206h-49zM191 246h361l-180 398z" />
    <glyph glyph-name="B" unicode="B" horiz-adv-x="719" 
d="M105 0v700h294q92 0 144 -45t52 -124q0 -115 -97 -150q75 -11 117.5 -61t42.5 -126q0 -88 -59.5 -141t-165.5 -53h-328zM151 43h275q87 0 134.5 40.5t47.5 114.5t-47.5 114.5t-134.5 40.5h-275v-310zM151 393h242q75 0 116 34.5t41 97.5t-41 97.5t-116 34.5h-242v-264z
" />
    <glyph glyph-name="C" unicode="C" horiz-adv-x="693" 
d="M427 -12q-150 0 -251 102.5t-101 259.5t101 259.5t251 102.5q114 0 200 -55v-50q-91 61 -199 61q-129 0 -217.5 -90.5t-88.5 -227.5t88.5 -227.5t218.5 -90.5q124 0 214 73v-51q-87 -66 -216 -66z" />
    <glyph glyph-name="D" unicode="D" horiz-adv-x="774" 
d="M105 0v700h217q169 0 273 -97t104 -253t-104 -253t-273 -97h-217zM151 43h163q156 0 247 84t91 223t-91 223t-247 84h-163v-614z" />
    <glyph glyph-name="E" unicode="E" horiz-adv-x="637" 
d="M105 0v700h468v-43h-422v-259h349v-43h-349v-312h438v-43h-484z" />
    <glyph glyph-name="F" unicode="F" horiz-adv-x="617" 
d="M105 0v700h463v-43h-417v-268h346v-43h-346v-346h-46z" />
    <glyph glyph-name="G" unicode="G" horiz-adv-x="782" 
d="M426 -12q-149 0 -250 102.5t-101 259.5q0 156 101 259t250 103q135 0 228 -73v-49q-99 78 -225 78q-131 0 -219 -90.5t-88 -228.5q0 -137 88 -227t216 -90q141 0 221 83v286h46v-303q-101 -110 -267 -110z" />
    <glyph glyph-name="H" unicode="H" horiz-adv-x="760" 
d="M105 0v700h46v-302h457v302h46v-700h-46v355h-457v-355h-46z" />
    <glyph glyph-name="I" unicode="I" horiz-adv-x="269" 
d="M112 0v700h46v-700h-46z" />
    <glyph glyph-name="J" unicode="J" horiz-adv-x="503" 
d="M195 -12q-93 0 -158 47v51q60 -54 151 -54q173 0 173 182v486h46v-493q0 -109 -55.5 -164t-156.5 -55z" />
    <glyph glyph-name="K" unicode="K" horiz-adv-x="638" 
d="M105 0v700h46v-309l356 309h65l-369 -321l425 -379h-70l-407 364v-364h-46z" />
    <glyph glyph-name="L" unicode="L" horiz-adv-x="592" 
d="M105 0v700h46v-657h407v-43h-453z" />
    <glyph glyph-name="M" unicode="M" horiz-adv-x="847" 
d="M105 0v700h47l272 -357l272 357h45v-700h-46v629l-256 -336h-30l-258 336v-629h-46z" />
    <glyph glyph-name="N" unicode="N" horiz-adv-x="775" 
d="M105 0v700h41l477 -620v620h46v-700h-40l-478 621v-621h-46z" />
    <glyph glyph-name="O" unicode="O" horiz-adv-x="846" 
d="M423 32q127 0 214 91t87 227t-87 227t-214 91t-214 -91t-87 -227t87 -227t214 -91zM423 -12q-149 0 -248.5 103t-99.5 259q0 155 99.5 258.5t248.5 103.5q148 0 248 -103.5t100 -258.5t-100 -258.5t-248 -103.5z" />
    <glyph glyph-name="P" unicode="P" horiz-adv-x="665" 
d="M105 0v700h291q102 0 159 -51.5t57 -136.5t-57 -137t-159 -52h-245v-323h-46zM151 366h241q83 0 128.5 38t45.5 108q0 69 -45.5 107t-128.5 38h-241v-291z" />
    <glyph glyph-name="Q" unicode="Q" horiz-adv-x="846" 
d="M423 -12q-149 0 -248.5 103t-99.5 259q0 155 99.5 258.5t248.5 103.5q148 0 248 -103.5t100 -258.5q0 -127 -68.5 -221t-178.5 -127q70 -74 142 -74q50 0 83 24v-47q-38 -20 -85 -20q-92 0 -192 107q-32 -4 -49 -4zM423 32q127 0 214 91t87 227t-87 227t-214 91t-214 -91
t-87 -227t87 -227t214 -91z" />
    <glyph glyph-name="R" unicode="R" horiz-adv-x="736" 
d="M105 0v700h310q100 0 156.5 -50.5t56.5 -133.5q0 -75 -45.5 -124.5t-128.5 -59.5l230 -332h-54l-229 329h-250v-329h-46zM151 372h260q81 0 126 37t45 106q0 67 -45 104.5t-126 37.5h-260v-285z" />
    <glyph glyph-name="S" unicode="S" horiz-adv-x="623" 
d="M304 -12q-78 0 -147.5 22t-108.5 53v53q40 -34 107.5 -59t144.5 -25q91 0 149.5 41t58.5 110q0 30 -12 54t-28 39t-48 29.5t-55.5 21.5t-66.5 19q-47 13 -74.5 22.5t-61 26t-51 34.5t-29.5 46t-12 64q0 74 61 123.5t171 49.5q122 0 212 -59v-49q-96 64 -210 64
q-93 0 -140.5 -38t-47.5 -92q0 -23 6.5 -41t21.5 -32.5t28 -24t39.5 -19.5t42.5 -15t48 -14l21 -6q44 -13 68.5 -21t60.5 -25.5t55 -36.5t33.5 -50t14.5 -70q0 -92 -73 -143.5t-178 -51.5z" />
    <glyph glyph-name="T" unicode="T" horiz-adv-x="620" 
d="M287 0v657h-251v43h548v-43h-251v-657h-46z" />
    <glyph glyph-name="U" unicode="U" horiz-adv-x="747" 
d="M374 -12q-126 0 -203 81t-77 230v401h46v-401q0 -126 62.5 -196.5t171.5 -70.5q108 0 170.5 70.5t62.5 196.5v401h46v-401q0 -148 -77 -229.5t-202 -81.5z" />
    <glyph glyph-name="V" unicode="V" horiz-adv-x="748" 
d="M353 -4l-314 704h51l285 -639l284 639h50l-314 -704h-42z" />
    <glyph glyph-name="W" unicode="W" horiz-adv-x="1041" 
d="M289 -4l-244 704h52l214 -627l190 629h39l191 -629l214 627h51l-244 -704h-42l-189 622l-192 -622h-40z" />
    <glyph glyph-name="X" unicode="X" horiz-adv-x="698" 
d="M38 0l283 380l-238 320h56l211 -282l211 282h55l-239 -319l286 -381h-57l-257 343l-257 -343h-54z" />
    <glyph glyph-name="Y" unicode="Y" horiz-adv-x="646" 
d="M299 0v324l-273 376h56l241 -332l242 332h53l-273 -375v-325h-46z" />
    <glyph glyph-name="Z" unicode="Z" horiz-adv-x="639" 
d="M54 0v33l454 624h-427v43h488v-33l-450 -624h466v-43h-531z" />
    <glyph glyph-name="bracketleft" unicode="[" horiz-adv-x="370" 
d="M100 -206v912h230v-40h-187v-832h187v-40h-230z" />
    <glyph glyph-name="backslash" unicode="\" horiz-adv-x="498" 
d="M438 -140l-421 932h48l421 -932h-48z" />
    <glyph glyph-name="bracketright" unicode="]" horiz-adv-x="370" 
d="M270 706v-912h-230v40h187v832h-187v40h230z" />
    <glyph glyph-name="asciicircum" unicode="^" horiz-adv-x="502" 
d="M60 349l169 359h43l169 -359h-44l-146 314l-145 -314h-46z" />
    <glyph glyph-name="underscore" unicode="_" horiz-adv-x="608" 
d="M8 -119v36h592v-36h-592z" />
    <glyph glyph-name="grave" unicode="`" horiz-adv-x="522" 
d="M285 577l-109 130h62l96 -130h-49z" />
    <glyph glyph-name="a" unicode="a" horiz-adv-x="589" 
d="M246 30q60 0 109.5 28t78.5 67v79q-85 56 -175 56q-76 0 -119.5 -31.5t-43.5 -83.5q0 -58 43.5 -86.5t106.5 -28.5zM233 -12q-75 0 -129.5 41.5t-54.5 114.5q0 71 56.5 113.5t141.5 42.5q101 0 187 -52v63q0 69 -44.5 102.5t-125.5 33.5q-86 0 -162 -51v46q72 47 170 47
q93 0 150 -43.5t57 -130.5v-212q0 -31 14 -49.5t38 -18.5q16 0 28 6v-37q-13 -8 -39 -8q-32 0 -55.5 21t-26.5 62q-78 -91 -205 -91z" />
    <glyph glyph-name="b" unicode="b" horiz-adv-x="630" 
d="M332 -12q-127 0 -197 96v-84h-45v700h45v-308q71 97 197 97q108 0 175.5 -74t67.5 -177t-67.5 -176.5t-175.5 -73.5zM324 30q88 0 146.5 59.5t58.5 148.5t-58.5 149t-146.5 60q-61 0 -113 -33.5t-76 -85.5v-180q23 -52 75 -85t114 -33z" />
    <glyph glyph-name="c" unicode="c" horiz-adv-x="524" 
d="M306 -12q-109 0 -180 73t-71 178q0 104 71 177t181 73q80 0 144 -37v-44q-67 39 -139 39q-90 0 -150.5 -60t-60.5 -149t60.5 -148.5t150.5 -59.5q84 0 148 45v-45q-63 -42 -154 -42z" />
    <glyph glyph-name="d" unicode="d" horiz-adv-x="631" 
d="M298 -12q-108 0 -175.5 73.5t-67.5 176.5t67.5 177t175.5 74q126 0 197 -97v308h45v-700h-45v84q-70 -96 -197 -96zM306 30q62 0 114 33t75 85v180q-24 52 -76 85.5t-113 33.5q-88 0 -146.5 -60t-58.5 -149t58.5 -148.5t146.5 -59.5z" />
    <glyph glyph-name="e" unicode="e" horiz-adv-x="567" 
d="M315 -12q-112 0 -186 70.5t-74 179.5q0 108 66 179.5t171 71.5q60 0 105 -24t68.5 -62.5t35 -77.5t11.5 -78v-15h-412q2 -90 63.5 -146t157.5 -56q87 0 154 45v-44q-57 -43 -160 -43zM101 271h366q0 28 -10 57t-29.5 56.5t-55 45t-81.5 17.5q-84 0 -134.5 -53.5
t-55.5 -122.5z" />
    <glyph glyph-name="f" unicode="f" horiz-adv-x="374" 
d="M172 0h-45v436h-99v41h99v95q0 63 32.5 99t93.5 36q52 0 93 -20v-43q-44 21 -84 21q-43 0 -66.5 -27t-23.5 -76v-85h174v-41h-174v-436z" />
    <glyph glyph-name="g" unicode="g" horiz-adv-x="630" 
d="M495 477h45v-456q0 -109 -70.5 -167t-181.5 -58q-102 0 -184 45v46q82 -49 181 -49q95 0 152.5 46t57.5 137v66q-68 -95 -196 -95q-108 0 -176 73.5t-68 175.5t68 175t176 73q128 0 196 -95v83zM495 151v179q-23 52 -74.5 84.5t-112.5 32.5q-89 0 -148 -59t-59 -147
q0 -89 59 -148t148 -59q61 0 112.5 32.5t74.5 84.5z" />
    <glyph glyph-name="h" unicode="h" horiz-adv-x="604" 
d="M135 0h-45v700h45v-306q32 39 85.5 67t117.5 28q91 0 138 -52t47 -147v-290h-45v281q0 51 -14.5 86t-39 51t-48 22.5t-51.5 6.5q-55 0 -109 -33.5t-81 -77.5v-336z" />
    <glyph glyph-name="i" unicode="i" horiz-adv-x="253" 
d="M104 0v477h45v-477h-45zM126 608q-16 0 -27 11t-11 27t11 27t27 11t27 -11t11 -27t-11 -27t-27 -11z" />
    <glyph glyph-name="j" unicode="j" horiz-adv-x="253" 
d="M23 -204q55 0 90.5 32t35.5 105v544h-45v-536q0 -103 -89 -103q-36 0 -69 19v-43q30 -18 77 -18zM126 608q-16 0 -27 11t-11 27t11 27t27 11t27 -11t11 -27t-11 -27t-27 -11z" />
    <glyph glyph-name="k" unicode="k" horiz-adv-x="516" 
d="M90 0v700h45v-424l251 201h66l-269 -216l305 -261h-68l-285 244v-244h-45z" />
    <glyph glyph-name="l" unicode="l" horiz-adv-x="279" 
d="M193 -12q-43 0 -73 25.5t-30 85.5v601h45v-592q0 -78 71 -78q28 0 50 14v-42q-25 -14 -63 -14z" />
    <glyph glyph-name="m" unicode="m" horiz-adv-x="913" 
d="M90 0v477h45v-79q26 39 73.5 65t107.5 26q122 0 155 -102q28 44 78 73t114 29q81 0 125 -49.5t44 -141.5v-298h-45v289q0 50 -13.5 84t-36.5 48.5t-42.5 20t-42.5 5.5q-52 0 -99.5 -33t-70.5 -80q2 -36 2 -50v-284h-45v290q0 157 -134 157q-50 0 -97.5 -31t-72.5 -77
v-339h-45z" />
    <glyph glyph-name="n" unicode="n" horiz-adv-x="604" 
d="M135 0h-45v477h45v-83q32 39 85.5 67t117.5 28q91 0 138 -52t47 -147v-290h-45v281q0 51 -14.5 86t-39 51t-48 22.5t-51.5 6.5q-55 0 -109 -33.5t-81 -77.5v-336z" />
    <glyph glyph-name="o" unicode="o" horiz-adv-x="616" 
d="M308 30q88 0 147.5 59.5t59.5 148.5t-59.5 149t-147.5 60t-147.5 -60t-59.5 -149t59.5 -148.5t147.5 -59.5zM308 -12q-112 0 -182.5 73.5t-70.5 176.5t70.5 177t182.5 74t182.5 -74t70.5 -177t-70.5 -176.5t-182.5 -73.5z" />
    <glyph glyph-name="p" unicode="p" horiz-adv-x="630" 
d="M332 489q108 0 175.5 -73.5t67.5 -176.5t-67.5 -177t-175.5 -74q-126 0 -197 97v-285h-45v677h45v-84q70 96 197 96zM324 447q-62 0 -114 -33t-75 -85v-180q24 -52 76 -85.5t113 -33.5q88 0 146.5 60t58.5 149t-58.5 148.5t-146.5 59.5z" />
    <glyph glyph-name="q" unicode="q" horiz-adv-x="631" 
d="M298 489q127 0 197 -96v84h45v-677h-45v285q-71 -97 -197 -97q-108 0 -175.5 74t-67.5 177t67.5 176.5t175.5 73.5zM306 447q-88 0 -146.5 -59.5t-58.5 -148.5t58.5 -149t146.5 -60q61 0 113 33.5t76 85.5v180q-23 52 -75 85t-114 33z" />
    <glyph glyph-name="r" unicode="r" horiz-adv-x="345" 
d="M90 0v477h45v-100q26 46 78 78.5t115 33.5v-46q-68 0 -119 -38.5t-74 -88.5v-316h-45z" />
    <glyph glyph-name="s" unicode="s" horiz-adv-x="500" 
d="M244 -12q-60 0 -114 15t-83 36v49q86 -58 196 -58q70 0 111.5 25.5t41.5 68.5q0 21 -11 36.5t-33 26.5t-44 17.5t-55 15.5q-13 3 -20 5q-31 8 -52 14.5t-45.5 18t-39 24.5t-24.5 33t-10 45q0 59 48 94t136 35q105 0 172 -44v-46q-79 48 -169 48q-70 0 -105.5 -24
t-35.5 -63q0 -18 9 -32.5t20 -23t34 -17.5t37.5 -13t44.5 -11q38 -9 56 -14t49 -17t45.5 -25t26.5 -34.5t12 -49.5q0 -62 -56.5 -98.5t-141.5 -36.5z" />
    <glyph glyph-name="t" unicode="t" horiz-adv-x="422" 
d="M274 -12q-62 0 -93 36.5t-31 100.5v311h-122v41h122v154h45v-154h178v-41h-178v-299q0 -58 21.5 -82.5t68.5 -24.5q42 0 81 22v-42q-31 -22 -92 -22z" />
    <glyph glyph-name="u" unicode="u" horiz-adv-x="606" 
d="M470 477h45v-477h-45v83q-32 -39 -85.5 -67t-117.5 -28q-91 0 -138 52t-47 147v290h45v-281q0 -51 14.5 -86t39 -51t48 -22.5t51.5 -6.5q55 0 109 33.5t81 77.5v336z" />
    <glyph glyph-name="v" unicode="v" horiz-adv-x="555" 
d="M256 -4l-224 481h51l196 -420l194 420h49l-223 -481h-43z" />
    <glyph glyph-name="w" unicode="w" horiz-adv-x="813" 
d="M219 -4l-175 481h47l150 -411l146 413h39l147 -413l149 411h46l-175 -481h-39l-149 413l-146 -413h-40z" />
    <glyph glyph-name="x" unicode="x" horiz-adv-x="540" 
d="M37 0l209 254l-182 223h56l154 -188l155 188h53l-181 -221l209 -256h-57l-181 221l-181 -221h-54z" />
    <glyph glyph-name="y" unicode="y" horiz-adv-x="542" 
d="M101 -204q-44 0 -68 15v43q30 -16 63 -16q49 0 79.5 38.5t71.5 130.5l-221 470h51l193 -415l187 415h49l-241 -531q-33 -74 -71.5 -112t-92.5 -38z" />
    <glyph glyph-name="z" unicode="z" horiz-adv-x="492" 
d="M38 0v31l334 405h-310v41h375v-32l-332 -404h348v-41h-415z" />
    <glyph glyph-name="braceleft" unicode="{" horiz-adv-x="347" 
d="M111 250q39 -16 51.5 -51.5t12.5 -97.5v-178q0 -89 91 -89h41v-40h-48q-59 0 -93 33.5t-34 94.5v169q0 25 -0.5 39.5t-4.5 35.5t-12 32.5t-23 21t-37 11.5v38q22 2 37 11.5t23 21t12 32.5t4.5 35.5t0.5 39.5v169q0 61 34 94.5t93 33.5h48v-40h-41q-91 0 -91 -89v-178
q0 -62 -12.5 -97.5t-51.5 -51.5z" />
    <glyph glyph-name="bar" unicode="|" horiz-adv-x="295" 
d="M126 -111v871h43v-871h-43z" />
    <glyph glyph-name="braceright" unicode="}" horiz-adv-x="347" 
d="M236 250q-39 16 -51.5 51.5t-12.5 97.5v178q0 89 -91 89h-41v40h48q59 0 93 -33.5t34 -94.5v-169q0 -25 0.5 -39.5t4.5 -35.5t12 -32.5t23 -21t37 -11.5v-38q-22 -2 -37 -11.5t-23 -21t-12 -32.5t-4.5 -35.5t-0.5 -39.5v-169q0 -61 -34 -94.5t-93 -33.5h-48v40h41
q91 0 91 89v178q0 62 12.5 97.5t51.5 51.5z" />
    <glyph glyph-name="asciitilde" unicode="~" horiz-adv-x="565" 
d="M394 212q-40 0 -112 24.5t-111 24.5q-64 0 -101 -43v46q28 38 101 38q39 0 111 -24.5t112 -24.5q64 0 101 42v-46q-29 -37 -101 -37z" />
    <glyph glyph-name="nbspace" unicode="&#xa0;" horiz-adv-x="268" 
 />
    <glyph glyph-name="exclamdown" unicode="&#xa1;" horiz-adv-x="264" 
d="M160 -200h-56l7 468h42zM94 442q0 16 11 27t27 11t27 -11t11 -27t-11 -27t-27 -11t-27 11t-11 27z" />
    <glyph glyph-name="cent" unicode="&#xa2;" horiz-adv-x="524" 
d="M286 488v106h41v-106q67 -4 124 -36v-44q-67 39 -139 39q-90 0 -150.5 -60t-60.5 -149t60.5 -148.5t150.5 -59.5q84 0 148 45v-45q-54 -36 -133 -41v-106h-41v106q-102 7 -166.5 78.5t-64.5 171.5q0 98 64.5 170t166.5 79z" />
    <glyph glyph-name="sterling" unicode="&#xa3;" horiz-adv-x="579" 
d="M66 0v43h24q45 0 45 77v184h-69v43h69v144q0 105 58 163t162 58q95 0 163 -46v-48q-65 50 -159 50q-86 0 -132 -47t-46 -136v-138h294v-43h-294v-209q0 -37 -23 -52h363v-43h-455z" />
    <glyph glyph-name="currency" unicode="&#xa4;" horiz-adv-x="557" 
d="M88 133l-29 27l64 65q-43 56 -43 126q0 71 43 125l-64 65l29 28l64 -64q53 45 126 45q74 0 125 -45l65 64l29 -28l-66 -65q45 -53 45 -125q0 -71 -44 -126l65 -65l-29 -27l-65 63q-52 -44 -125 -44t-126 45zM278 192q66 0 111 46t45 113t-45 113t-111 46q-67 0 -112 -46
t-45 -113t45 -113t112 -46z" />
    <glyph glyph-name="yen" unicode="&#xa5;" horiz-adv-x="609" 
d="M281 0v149h-215v43h215v114h-215v43h197l-237 351h54l224 -333l225 333h53l-238 -351h199v-43h-216v-114h216v-43h-216v-149h-46z" />
    <glyph glyph-name="brokenbar" unicode="&#xa6;" horiz-adv-x="295" 
d="M126 -111v353h43v-353h-43zM126 407v353h43v-353h-43z" />
    <glyph glyph-name="section" unicode="&#xa7;" horiz-adv-x="642" 
d="M450 110q89 -46 89 -119q0 -62 -57 -102.5t-161 -40.5q-118 0 -214 57v48q104 -61 217 -61q77 0 122.5 27.5t45.5 73.5q0 31 -28.5 56t-57 36.5t-93.5 32.5q-16 5 -24 8q-109 36 -164 76t-55 105q0 51 32.5 87.5t88.5 55.5q-89 46 -89 119q0 62 57 102.5t161 40.5
q118 0 214 -57v-48q-104 61 -217 61q-77 0 -122.5 -27.5t-45.5 -73.5q0 -31 28.5 -56t57 -36.5t93.5 -32.5q16 -5 24 -8q109 -36 164 -76t55 -105q0 -51 -32.5 -87.5t-88.5 -55.5zM318 160q43 -15 83 -27q55 11 90 42.5t35 74.5q0 24 -12.5 44.5t-29.5 34.5t-48 28.5
t-53 22.5t-60 20q-43 15 -83 27q-55 -11 -90 -42.5t-35 -74.5q0 -24 12.5 -44.5t29.5 -34.5t48 -28.5t53 -22.5t60 -20z" />
    <glyph glyph-name="dieresis" unicode="&#xa8;" horiz-adv-x="522" 
d="M321 645q0 15 10.5 25.5t25.5 10.5t25.5 -10.5t10.5 -25.5t-10.5 -25.5t-25.5 -10.5t-25.5 10.5t-10.5 25.5zM131 645q0 15 10.5 25.5t25.5 10.5t25.5 -10.5t10.5 -25.5t-10.5 -25.5t-25.5 -10.5t-25.5 10.5t-10.5 25.5z" />
    <glyph glyph-name="copyright" unicode="&#xa9;" horiz-adv-x="874" 
d="M459 158q-81 0 -135.5 55t-54.5 137t54.5 137t135.5 55q57 0 101 -26v-42q-45 29 -101 29q-63 0 -105 -43.5t-42 -109.5t42.5 -109.5t105.5 -43.5q64 0 110 37v-42q-44 -34 -111 -34zM436 -12q-151 0 -256 105.5t-105 256.5q0 149 106 255.5t256 106.5q151 0 256.5 -106
t105.5 -257q0 -149 -106.5 -255t-256.5 -106zM436 12q142 0 240.5 98.5t98.5 238.5q0 141 -98.5 240t-239.5 99t-239.5 -99t-98.5 -240q0 -140 98 -238.5t239 -98.5z" />
    <glyph glyph-name="ordfeminine" unicode="&#xaa;" horiz-adv-x="528" 
d="M441 360q12 0 20 4v-35q-10 -5 -29 -5q-26 0 -45.5 16t-20.5 46q-61 -69 -153 -69q-57 0 -98 33t-41 88q0 57 44.5 88t104.5 31q74 0 139 -38v44q0 105 -126 105q-71 0 -122 -38v40q51 35 129 35q71 0 115.5 -34t44.5 -102v-162q0 -22 10.5 -34.5t27.5 -12.5zM362 427v56
q-57 39 -129 39q-55 0 -86.5 -22t-31.5 -60q0 -43 31.5 -64.5t77.5 -21.5q43 0 80 22t58 51z" />
    <glyph glyph-name="guillemotleft" unicode="&#xab;" horiz-adv-x="535" 
d="M208 42l-156 184v26l156 183h54l-167 -197l167 -196h-54zM431 42l-156 184v26l156 183h54l-167 -197l167 -196h-54z" />
    <glyph glyph-name="logicalnot" unicode="&#xac;" horiz-adv-x="554" 
d="M442 157v176h-372v41h414v-217h-42z" />
    <glyph glyph-name="uni00AD" unicode="&#xad;" horiz-adv-x="476" 
d="M103 249v41h270v-41h-270z" />
    <glyph glyph-name="registered" unicode="&#xae;" horiz-adv-x="874" 
d="M306 168v371h169q55 0 86.5 -28.5t31.5 -73.5q0 -39 -23 -65.5t-64 -33.5l121 -170h-48l-118 166h-113v-166h-42zM348 370h126q36 0 56 17.5t20 48.5q0 32 -20 49.5t-56 17.5h-126v-133zM436 -12q-151 0 -256 105.5t-105 256.5q0 149 106 255.5t256 106.5
q151 0 256.5 -106t105.5 -257q0 -149 -106.5 -255t-256.5 -106zM436 12q142 0 240.5 98.5t98.5 238.5q0 141 -98.5 240t-239.5 99t-239.5 -99t-98.5 -240q0 -140 98 -238.5t239 -98.5z" />
    <glyph glyph-name="macron" unicode="&#xaf;" horiz-adv-x="519" 
d="M144 625v38h230v-38h-230z" />
    <glyph glyph-name="degree" unicode="&#xb0;" horiz-adv-x="441" 
d="M220 673q-45 0 -76.5 -32t-31.5 -78q0 -45 31.5 -77t76.5 -32q46 0 77.5 32t31.5 77q0 46 -31.5 78t-77.5 32zM220 712q62 0 106 -44t44 -105t-44 -104.5t-106 -43.5q-61 0 -105 43.5t-44 104.5t44 105t105 44z" />
    <glyph glyph-name="plusminus" unicode="&#xb1;" horiz-adv-x="607" 
d="M283 188v172h-213v42h213v173h42v-173h212v-42h-212v-172h-42zM70 68v41h467v-41h-467z" />
    <glyph glyph-name="twosuperior" unicode="&#xb2;" horiz-adv-x="357" 
d="M46 322v32l128 120q40 37 57.5 63t17.5 56q0 32 -23 52t-61 20q-61 0 -111 -47v45q48 42 115 42q53 0 88 -30t35 -77q0 -38 -20 -70.5t-64 -73.5l-99 -95h197v-37h-260z" />
    <glyph glyph-name="threesuperior" unicode="&#xb3;" horiz-adv-x="322" 
d="M138 317q-67 0 -112 29v40q50 -31 110 -31q42 0 73.5 24t31.5 63q0 38 -27.5 60.5t-73.5 22.5q-24 0 -44 -6v29l116 115h-170v37h228v-31l-114 -112q52 -3 89.5 -31.5t37.5 -83.5t-41.5 -90t-103.5 -35z" />
    <glyph glyph-name="acute" unicode="&#xb4;" horiz-adv-x="508" 
d="M193 577l96 130h61l-108 -130h-49z" />
    <glyph glyph-name="mu" unicode="&#xb5;" horiz-adv-x="614" 
d="M90 -200v677h45v-281q0 -51 14.5 -86t39 -51t48 -22.5t51.5 -6.5q55 0 109 33.5t81 77.5v336h45v-477h-45v83q-32 -39 -85.5 -67t-117.5 -28q-92 0 -140 54v-242h-45z" />
    <glyph glyph-name="paragraph" unicode="&#xb6;" horiz-adv-x="504" 
d="M353 0v327h-87q-102 0 -158.5 51t-56.5 135q0 85 56.5 136t158.5 51h132v-700h-45z" />
    <glyph glyph-name="periodcentered" unicode="&#xb7;" horiz-adv-x="222" 
d="M73 380q0 16 11 27t27 11t27 -11t11 -27t-11 -27t-27 -11t-27 11t-11 27z" />
    <glyph glyph-name="cedilla" unicode="&#xb8;" horiz-adv-x="471" 
d="M148 -127l90 132h40l-74 -132h-56z" />
    <glyph glyph-name="onesuperior" unicode="&#xb9;" horiz-adv-x="234" 
d="M129 322v333l-104 -63v43l107 65h40v-378h-43z" />
    <glyph glyph-name="ordmasculine" unicode="&#xba;" horiz-adv-x="470" 
d="M236 356q65 0 108.5 44.5t43.5 110.5q0 65 -43.5 109.5t-108.5 44.5t-109 -44.5t-44 -109.5q0 -66 44 -110.5t109 -44.5zM236 317q-87 0 -142.5 56.5t-55.5 136.5t55.5 137.5t142.5 57.5t141.5 -57t54.5 -138q0 -80 -54.5 -136.5t-141.5 -56.5z" />
    <glyph glyph-name="guillemotright" unicode="&#xbb;" horiz-adv-x="536" 
d="M484 226l-156 -184h-54l167 196l-167 197h54l156 -183v-26zM261 226l-156 -184h-54l167 196l-167 197h54l156 -183v-26z" />
    <glyph glyph-name="onequarter" unicode="&#xbc;" horiz-adv-x="730" 
d="M118 0l407 700h48l-407 -700h-48zM129 322v333l-104 -63v43l107 65h40v-378h-43zM603 0v103h-202v32l204 243h40v-239h62v-36h-62v-103h-42zM451 139h152v182z" />
    <glyph glyph-name="onehalf" unicode="&#xbd;" horiz-adv-x="797" 
d="M118 0l407 700h48l-407 -700h-48zM129 322v333l-104 -63v43l107 65h40v-378h-43zM486 0v32l128 120q40 37 57.5 63t17.5 56q0 32 -23 52t-61 20q-61 0 -111 -47v45q48 42 115 42q53 0 88 -30t35 -77q0 -38 -20 -70.5t-64 -73.5l-99 -95h197v-37h-260z" />
    <glyph glyph-name="threequarters" unicode="&#xbe;" horiz-adv-x="783" 
d="M170 0l407 700h48l-407 -700h-48zM656 0v103h-202v32l204 243h40v-239h62v-36h-62v-103h-42zM504 139h152v182zM138 317q-67 0 -112 29v40q50 -31 110 -31q42 0 73.5 24t31.5 63q0 38 -27.5 60.5t-73.5 22.5q-24 0 -44 -6v29l116 115h-170v37h228v-31l-114 -112
q52 -3 89.5 -31.5t37.5 -83.5t-41.5 -90t-103.5 -35z" />
    <glyph glyph-name="questiondown" unicode="&#xbf;" horiz-adv-x="467" 
d="M284 268v-125q-73 -16 -128.5 -59t-55.5 -107q0 -63 46.5 -101t118.5 -38q90 0 171 60v-46q-72 -56 -179 -56q-86 0 -145 49.5t-59 130.5q0 72 52.5 120.5t133.5 73.5v98h45zM222 442q0 16 11 27t27 11t27 -11t11 -27t-11 -27t-27 -11t-27 11t-11 27z" />
    <glyph glyph-name="Agrave" unicode="&#xc0;" horiz-adv-x="743" 
d="M33 0l318 704h43l316 -704h-48l-93 206h-394l-93 -206h-49zM191 246h361l-180 398zM347 763l-109 130h62l96 -130h-49z" />
    <glyph glyph-name="Aacute" unicode="&#xc1;" horiz-adv-x="743" 
d="M33 0l318 704h43l316 -704h-48l-93 206h-394l-93 -206h-49zM191 246h361l-180 398zM352 763l96 130h61l-108 -130h-49z" />
    <glyph glyph-name="Acircumflex" unicode="&#xc2;" horiz-adv-x="743" 
d="M33 0l318 704h43l316 -704h-48l-93 206h-394l-93 -206h-49zM191 246h361l-180 398zM240 763l108 130h49l107 -130h-50l-82 99l-82 -99h-50z" />
    <glyph glyph-name="Atilde" unicode="&#xc3;" horiz-adv-x="743" 
d="M33 0l318 704h43l316 -704h-48l-93 206h-394l-93 -206h-49zM191 246h361l-180 398zM444 776q-28 0 -75 31.5t-66 31.5q-39 0 -43 -57h-36q2 44 22 70t54 26q28 0 75.5 -30.5t66.5 -30.5q36 0 42 57h36q-2 -44 -22 -71t-54 -27z" />
    <glyph glyph-name="Adieresis" unicode="&#xc4;" horiz-adv-x="743" 
d="M33 0l318 704h43l316 -704h-48l-93 206h-394l-93 -206h-49zM191 246h361l-180 398zM431 825q0 15 10.5 25.5t25.5 10.5t25.5 -10.5t10.5 -25.5t-10.5 -25.5t-25.5 -10.5t-25.5 10.5t-10.5 25.5zM241 825q0 15 10.5 25.5t25.5 10.5t25.5 -10.5t10.5 -25.5t-10.5 -25.5
t-25.5 -10.5t-25.5 10.5t-10.5 25.5z" />
    <glyph glyph-name="Aring" unicode="&#xc5;" horiz-adv-x="743" 
d="M33 0l318 704h43l316 -704h-48l-93 206h-394l-93 -206h-49zM191 246h361l-180 398zM374 736q-39 0 -67 27.5t-28 65.5t28 65.5t67 27.5q38 0 65 -27.5t27 -65.5t-27 -65.5t-65 -27.5zM374 769q25 0 42.5 17.5t17.5 42.5q0 26 -17.5 43.5t-42.5 17.5q-26 0 -43.5 -17.5
t-17.5 -43.5q0 -25 17.5 -42.5t43.5 -17.5z" />
    <glyph glyph-name="AE" unicode="&#xc6;" horiz-adv-x="1014" 
d="M446 700h504v-43h-418v-259h345v-43h-345v-312h434v-43h-480v206h-301l-131 -206h-52zM486 657h-13l-263 -411h276v411z" />
    <glyph glyph-name="Ccedilla" unicode="&#xc7;" horiz-adv-x="693" 
d="M325 -127l79 116q-142 8 -235.5 109t-93.5 252q0 157 101 259.5t251 102.5q114 0 200 -55v-50q-91 61 -199 61q-129 0 -217.5 -90.5t-88.5 -227.5t88.5 -227.5t218.5 -90.5q124 0 214 73v-51q-81 -61 -198 -66l-64 -115h-56z" />
    <glyph glyph-name="Egrave" unicode="&#xc8;" horiz-adv-x="637" 
d="M105 0v700h468v-43h-422v-259h349v-43h-349v-312h438v-43h-484zM324 763l-109 130h62l96 -130h-49z" />
    <glyph glyph-name="Eacute" unicode="&#xc9;" horiz-adv-x="637" 
d="M105 0v700h468v-43h-422v-259h349v-43h-349v-312h438v-43h-484zM290 763l96 130h61l-108 -130h-49z" />
    <glyph glyph-name="Ecircumflex" unicode="&#xca;" horiz-adv-x="637" 
d="M105 0v700h468v-43h-422v-259h349v-43h-349v-312h438v-43h-484zM216 763l108 130h49l107 -130h-50l-82 99l-82 -99h-50z" />
    <glyph glyph-name="Edieresis" unicode="&#xcb;" horiz-adv-x="637" 
d="M105 0v700h468v-43h-422v-259h349v-43h-349v-312h438v-43h-484zM405 825q0 15 10.5 25.5t25.5 10.5t25.5 -10.5t10.5 -25.5t-10.5 -25.5t-25.5 -10.5t-25.5 10.5t-10.5 25.5zM215 825q0 15 10.5 25.5t25.5 10.5t25.5 -10.5t10.5 -25.5t-10.5 -25.5t-25.5 -10.5
t-25.5 10.5t-10.5 25.5z" />
    <glyph glyph-name="Igrave" unicode="&#xcc;" horiz-adv-x="269" 
d="M112 0v700h46v-700h-46zM108 763l-109 130h62l96 -130h-49z" />
    <glyph glyph-name="Iacute" unicode="&#xcd;" horiz-adv-x="269" 
d="M112 0v700h46v-700h-46zM106 763l96 130h61l-108 -130h-49z" />
    <glyph glyph-name="Icircumflex" unicode="&#xce;" horiz-adv-x="269" 
d="M112 0v700h46v-700h-46zM3 763l108 130h49l107 -130h-50l-82 99l-82 -99h-50z" />
    <glyph glyph-name="Idieresis" unicode="&#xcf;" horiz-adv-x="268" 
d="M111 0v700h46v-700h-46zM193 825q0 15 10.5 25.5t25.5 10.5t25.5 -10.5t10.5 -25.5t-10.5 -25.5t-25.5 -10.5t-25.5 10.5t-10.5 25.5zM3 825q0 15 10.5 25.5t25.5 10.5t25.5 -10.5t10.5 -25.5t-10.5 -25.5t-25.5 -10.5t-25.5 10.5t-10.5 25.5z" />
    <glyph glyph-name="Eth" unicode="&#xd0;" horiz-adv-x="818" 
d="M149 0v332h-117v43h117v325h217q169 0 273 -97t104 -253t-104 -253t-273 -97h-217zM195 43h163q156 0 247 84t91 223t-91 223t-247 84h-163v-282h171v-43h-171v-289z" />
    <glyph glyph-name="Ntilde" unicode="&#xd1;" horiz-adv-x="775" 
d="M105 0v700h41l477 -620v620h46v-700h-40l-478 621v-621h-46zM459 776q-28 0 -75 31.5t-66 31.5q-39 0 -43 -57h-36q2 44 22 70t54 26q28 0 75.5 -30.5t66.5 -30.5q36 0 42 57h36q-2 -44 -22 -71t-54 -27z" />
    <glyph glyph-name="Ograve" unicode="&#xd2;" horiz-adv-x="846" 
d="M423 32q127 0 214 91t87 227t-87 227t-214 91t-214 -91t-87 -227t87 -227t214 -91zM423 -12q-149 0 -248.5 103t-99.5 259q0 155 99.5 258.5t248.5 103.5q148 0 248 -103.5t100 -258.5t-100 -258.5t-248 -103.5zM398 763l-109 130h62l96 -130h-49z" />
    <glyph glyph-name="Oacute" unicode="&#xd3;" horiz-adv-x="846" 
d="M423 32q127 0 214 91t87 227t-87 227t-214 91t-214 -91t-87 -227t87 -227t214 -91zM423 -12q-149 0 -248.5 103t-99.5 259q0 155 99.5 258.5t248.5 103.5q148 0 248 -103.5t100 -258.5t-100 -258.5t-248 -103.5zM378 763l96 130h61l-108 -130h-49z" />
    <glyph glyph-name="Ocircumflex" unicode="&#xd4;" horiz-adv-x="846" 
d="M423 32q127 0 214 91t87 227t-87 227t-214 91t-214 -91t-87 -227t87 -227t214 -91zM423 -12q-149 0 -248.5 103t-99.5 259q0 155 99.5 258.5t248.5 103.5q148 0 248 -103.5t100 -258.5t-100 -258.5t-248 -103.5zM291 763l108 130h49l107 -130h-50l-82 99l-82 -99h-50z
" />
    <glyph glyph-name="Otilde" unicode="&#xd5;" horiz-adv-x="846" 
d="M423 32q127 0 214 91t87 227t-87 227t-214 91t-214 -91t-87 -227t87 -227t214 -91zM423 -12q-149 0 -248.5 103t-99.5 259q0 155 99.5 258.5t248.5 103.5q148 0 248 -103.5t100 -258.5t-100 -258.5t-248 -103.5zM495 776q-28 0 -75 31.5t-66 31.5q-39 0 -43 -57h-36
q2 44 22 70t54 26q28 0 75.5 -30.5t66.5 -30.5q36 0 42 57h36q-2 -44 -22 -71t-54 -27z" />
    <glyph glyph-name="Odieresis" unicode="&#xd6;" horiz-adv-x="846" 
d="M423 32q127 0 214 91t87 227t-87 227t-214 91t-214 -91t-87 -227t87 -227t214 -91zM423 -12q-149 0 -248.5 103t-99.5 259q0 155 99.5 258.5t248.5 103.5q148 0 248 -103.5t100 -258.5t-100 -258.5t-248 -103.5zM482 825q0 15 10.5 25.5t25.5 10.5t25.5 -10.5t10.5 -25.5
t-10.5 -25.5t-25.5 -10.5t-25.5 10.5t-10.5 25.5zM292 825q0 15 10.5 25.5t25.5 10.5t25.5 -10.5t10.5 -25.5t-10.5 -25.5t-25.5 -10.5t-25.5 10.5t-10.5 25.5z" />
    <glyph glyph-name="multiply" unicode="&#xd7;" horiz-adv-x="520" 
d="M99 134l-29 29l160 160l-160 161l29 29l161 -160l160 160l30 -29l-162 -161l161 -159l-29 -30l-159 160z" />
    <glyph glyph-name="Oslash" unicode="&#xd8;" horiz-adv-x="846" 
d="M423 -12q-121 0 -215 73l-50 -61h-50l71 86q-104 104 -104 264q0 155 99.5 258.5t248.5 103.5q122 0 215 -74l51 62h51l-73 -88q104 -106 104 -262q0 -155 -100 -258.5t-248 -103.5zM122 350q0 -136 87 -228l400 481q-81 65 -186 65q-127 0 -214 -91t-87 -227zM423 32
q127 0 214 91t87 227q0 135 -87 227l-399 -481q80 -64 185 -64z" />
    <glyph glyph-name="Ugrave" unicode="&#xd9;" horiz-adv-x="747" 
d="M374 -12q-126 0 -203 81t-77 230v401h46v-401q0 -126 62.5 -196.5t171.5 -70.5q108 0 170.5 70.5t62.5 196.5v401h46v-401q0 -148 -77 -229.5t-202 -81.5zM361 763l-109 130h62l96 -130h-49z" />
    <glyph glyph-name="Uacute" unicode="&#xda;" horiz-adv-x="747" 
d="M374 -12q-126 0 -203 81t-77 230v401h46v-401q0 -126 62.5 -196.5t171.5 -70.5q108 0 170.5 70.5t62.5 196.5v401h46v-401q0 -148 -77 -229.5t-202 -81.5zM343 763l96 130h61l-108 -130h-49z" />
    <glyph glyph-name="Ucircumflex" unicode="&#xdb;" horiz-adv-x="747" 
d="M374 -12q-126 0 -203 81t-77 230v401h46v-401q0 -126 62.5 -196.5t171.5 -70.5q108 0 170.5 70.5t62.5 196.5v401h46v-401q0 -148 -77 -229.5t-202 -81.5zM241 763l108 130h49l107 -130h-50l-82 99l-82 -99h-50z" />
    <glyph glyph-name="Udieresis" unicode="&#xdc;" horiz-adv-x="747" 
d="M374 -12q-126 0 -203 81t-77 230v401h46v-401q0 -126 62.5 -196.5t171.5 -70.5q108 0 170.5 70.5t62.5 196.5v401h46v-401q0 -148 -77 -229.5t-202 -81.5zM432 825q0 15 10.5 25.5t25.5 10.5t25.5 -10.5t10.5 -25.5t-10.5 -25.5t-25.5 -10.5t-25.5 10.5t-10.5 25.5z
M242 825q0 15 10.5 25.5t25.5 10.5t25.5 -10.5t10.5 -25.5t-10.5 -25.5t-25.5 -10.5t-25.5 10.5t-10.5 25.5z" />
    <glyph glyph-name="Yacute" unicode="&#xdd;" horiz-adv-x="646" 
d="M299 0v324l-273 376h56l241 -332l242 332h53l-273 -375v-325h-46zM288 763l96 130h61l-108 -130h-49z" />
    <glyph glyph-name="Thorn" unicode="&#xde;" horiz-adv-x="665" 
d="M105 0v700h46v-162h245q102 0 159 -51.5t57 -136.5t-57 -137t-159 -52h-245v-161h-46zM151 204h241q83 0 128.5 38t45.5 108q0 69 -45.5 107t-128.5 38h-241v-291z" />
    <glyph glyph-name="germandbls" unicode="&#xdf;" horiz-adv-x="613" 
d="M339 -12q-59 0 -94 15v45q37 -18 88 -18q78 0 128 44t50 118q0 79 -58 128.5t-153 49.5h-22v41h22q69 0 109 31.5t40 90.5q0 57 -42.5 94.5t-109.5 37.5q-72 0 -117 -45.5t-45 -122.5v-497h-45v497q0 95 57 152.5t150 57.5q87 0 142.5 -49t55.5 -121q0 -56 -28.5 -92.5
t-77.5 -51.5q72 -16 120.5 -68.5t48.5 -136.5q0 -91 -62 -145.5t-157 -54.5z" />
    <glyph glyph-name="agrave" unicode="&#xe0;" horiz-adv-x="589" 
d="M246 30q60 0 109.5 28t78.5 67v79q-85 56 -175 56q-76 0 -119.5 -31.5t-43.5 -83.5q0 -58 43.5 -86.5t106.5 -28.5zM233 -12q-75 0 -129.5 41.5t-54.5 114.5q0 71 56.5 113.5t141.5 42.5q101 0 187 -52v63q0 69 -44.5 102.5t-125.5 33.5q-86 0 -162 -51v46q72 47 170 47
q93 0 150 -43.5t57 -130.5v-212q0 -31 14 -49.5t38 -18.5q16 0 28 6v-37q-13 -8 -39 -8q-32 0 -55.5 21t-26.5 62q-78 -91 -205 -91zM291 577l-109 130h62l96 -130h-49z" />
    <glyph glyph-name="aacute" unicode="&#xe1;" horiz-adv-x="589" 
d="M246 30q60 0 109.5 28t78.5 67v79q-85 56 -175 56q-76 0 -119.5 -31.5t-43.5 -83.5q0 -58 43.5 -86.5t106.5 -28.5zM233 -12q-75 0 -129.5 41.5t-54.5 114.5q0 71 56.5 113.5t141.5 42.5q101 0 187 -52v63q0 69 -44.5 102.5t-125.5 33.5q-86 0 -162 -51v46q72 47 170 47
q93 0 150 -43.5t57 -130.5v-212q0 -31 14 -49.5t38 -18.5q16 0 28 6v-37q-13 -8 -39 -8q-32 0 -55.5 21t-26.5 62q-78 -91 -205 -91zM237 577l96 130h61l-108 -130h-49z" />
    <glyph glyph-name="acircumflex" unicode="&#xe2;" horiz-adv-x="589" 
d="M246 30q60 0 109.5 28t78.5 67v79q-85 56 -175 56q-76 0 -119.5 -31.5t-43.5 -83.5q0 -58 43.5 -86.5t106.5 -28.5zM233 -12q-75 0 -129.5 41.5t-54.5 114.5q0 71 56.5 113.5t141.5 42.5q101 0 187 -52v63q0 69 -44.5 102.5t-125.5 33.5q-86 0 -162 -51v46q72 47 170 47
q93 0 150 -43.5t57 -130.5v-212q0 -31 14 -49.5t38 -18.5q16 0 28 6v-37q-13 -8 -39 -8q-32 0 -55.5 21t-26.5 62q-78 -91 -205 -91zM146 576l108 130h49l107 -130h-50l-82 99l-82 -99h-50z" />
    <glyph glyph-name="atilde" unicode="&#xe3;" horiz-adv-x="589" 
d="M246 30q60 0 109.5 28t78.5 67v79q-85 56 -175 56q-76 0 -119.5 -31.5t-43.5 -83.5q0 -58 43.5 -86.5t106.5 -28.5zM233 -12q-75 0 -129.5 41.5t-54.5 114.5q0 71 56.5 113.5t141.5 42.5q101 0 187 -52v63q0 69 -44.5 102.5t-125.5 33.5q-86 0 -162 -51v46q72 47 170 47
q93 0 150 -43.5t57 -130.5v-212q0 -31 14 -49.5t38 -18.5q16 0 28 6v-37q-13 -8 -39 -8q-32 0 -55.5 21t-26.5 62q-78 -91 -205 -91zM353 593q-28 0 -75.5 31.5t-67.5 31.5q-37 0 -41 -57h-36q2 44 22.5 70.5t53.5 26.5q28 0 75.5 -31t65.5 -31q36 0 42 57h36
q-2 -44 -22 -71t-53 -27z" />
    <glyph glyph-name="adieresis" unicode="&#xe4;" horiz-adv-x="589" 
d="M246 30q60 0 109.5 28t78.5 67v79q-85 56 -175 56q-76 0 -119.5 -31.5t-43.5 -83.5q0 -58 43.5 -86.5t106.5 -28.5zM233 -12q-75 0 -129.5 41.5t-54.5 114.5q0 71 56.5 113.5t141.5 42.5q101 0 187 -52v63q0 69 -44.5 102.5t-125.5 33.5q-86 0 -162 -51v46q72 47 170 47
q93 0 150 -43.5t57 -130.5v-212q0 -31 14 -49.5t38 -18.5q16 0 28 6v-37q-13 -8 -39 -8q-32 0 -55.5 21t-26.5 62q-78 -91 -205 -91zM347 645q0 15 10.5 25.5t25.5 10.5t25.5 -10.5t10.5 -25.5t-10.5 -25.5t-25.5 -10.5t-25.5 10.5t-10.5 25.5zM157 645q0 15 10.5 25.5
t25.5 10.5t25.5 -10.5t10.5 -25.5t-10.5 -25.5t-25.5 -10.5t-25.5 10.5t-10.5 25.5z" />
    <glyph glyph-name="aring" unicode="&#xe5;" horiz-adv-x="589" 
d="M246 30q60 0 109.5 28t78.5 67v79q-85 56 -175 56q-76 0 -119.5 -31.5t-43.5 -83.5q0 -58 43.5 -86.5t106.5 -28.5zM233 -12q-75 0 -129.5 41.5t-54.5 114.5q0 71 56.5 113.5t141.5 42.5q101 0 187 -52v63q0 69 -44.5 102.5t-125.5 33.5q-86 0 -162 -51v46q72 47 170 47
q93 0 150 -43.5t57 -130.5v-212q0 -31 14 -49.5t38 -18.5q16 0 28 6v-37q-13 -8 -39 -8q-32 0 -55.5 21t-26.5 62q-78 -91 -205 -91zM284 552q-40 0 -67.5 27.5t-27.5 65.5t27.5 65.5t67.5 27.5q37 0 64 -27.5t27 -65.5t-27 -65.5t-64 -27.5zM284 585q25 0 42.5 17.5
t17.5 42.5q0 26 -17.5 43.5t-42.5 17.5q-26 0 -44 -17.5t-18 -43.5q0 -25 18 -42.5t44 -17.5z" />
    <glyph glyph-name="ae" unicode="&#xe6;" horiz-adv-x="945" 
d="M890 247v-15h-412q2 -90 63.5 -146t157.5 -56q87 0 154 45v-44q-57 -43 -160 -43q-73 0 -132.5 32t-92.5 87q-33 -43 -93 -81t-138 -38t-133 41.5t-55 114.5q0 70 56.5 112.5t141.5 42.5q101 0 187 -52v64q0 69 -44.5 102.5t-125.5 33.5q-86 0 -162 -51v46q72 47 170 47
q73 0 125 -27.5t72 -83.5q31 52 83 81.5t118 29.5q60 0 105 -24t68.5 -62.5t35 -77.5t11.5 -78zM248 30q117 0 203 111q-11 27 -16 63q-89 57 -176 57q-76 0 -119.5 -32t-43.5 -84q0 -58 44 -86.5t108 -28.5zM479 271h366q0 28 -10 57t-29.5 56.5t-55 45t-81.5 17.5
q-84 0 -134.5 -53.5t-55.5 -122.5z" />
    <glyph glyph-name="ccedilla" unicode="&#xe7;" horiz-adv-x="524" 
d="M55 239q0 104 71 177t181 73q80 0 144 -37v-44q-67 39 -139 39q-90 0 -150.5 -60t-60.5 -149t60.5 -148.5t150.5 -59.5q84 0 148 45v-45q-53 -35 -124 -41l-65 -116h-56l78 115q-104 4 -171 76.5t-67 174.5z" />
    <glyph glyph-name="egrave" unicode="&#xe8;" horiz-adv-x="567" 
d="M315 -12q-112 0 -186 70.5t-74 179.5q0 108 66 179.5t171 71.5q60 0 105 -24t68.5 -62.5t35 -77.5t11.5 -78v-15h-412q2 -90 63.5 -146t157.5 -56q87 0 154 45v-44q-57 -43 -160 -43zM101 271h366q0 28 -10 57t-29.5 56.5t-55 45t-81.5 17.5q-84 0 -134.5 -53.5
t-55.5 -122.5zM308 577l-109 130h62l96 -130h-49z" />
    <glyph glyph-name="eacute" unicode="&#xe9;" horiz-adv-x="567" 
d="M315 -12q-112 0 -186 70.5t-74 179.5q0 108 66 179.5t171 71.5q60 0 105 -24t68.5 -62.5t35 -77.5t11.5 -78v-15h-412q2 -90 63.5 -146t157.5 -56q87 0 154 45v-44q-57 -43 -160 -43zM101 271h366q0 28 -10 57t-29.5 56.5t-55 45t-81.5 17.5q-84 0 -134.5 -53.5
t-55.5 -122.5zM242 577l96 130h61l-108 -130h-49z" />
    <glyph glyph-name="ecircumflex" unicode="&#xea;" horiz-adv-x="567" 
d="M315 -12q-112 0 -186 70.5t-74 179.5q0 108 66 179.5t171 71.5q60 0 105 -24t68.5 -62.5t35 -77.5t11.5 -78v-15h-412q2 -90 63.5 -146t157.5 -56q87 0 154 45v-44q-57 -43 -160 -43zM101 271h366q0 28 -10 57t-29.5 56.5t-55 45t-81.5 17.5q-84 0 -134.5 -53.5
t-55.5 -122.5zM158 576l108 130h49l107 -130h-50l-82 99l-82 -99h-50z" />
    <glyph glyph-name="edieresis" unicode="&#xeb;" horiz-adv-x="567" 
d="M315 -12q-112 0 -186 70.5t-74 179.5q0 108 66 179.5t171 71.5q60 0 105 -24t68.5 -62.5t35 -77.5t11.5 -78v-15h-412q2 -90 63.5 -146t157.5 -56q87 0 154 45v-44q-57 -43 -160 -43zM101 271h366q0 28 -10 57t-29.5 56.5t-55 45t-81.5 17.5q-84 0 -134.5 -53.5
t-55.5 -122.5zM357 645q0 15 10.5 25.5t25.5 10.5t25.5 -10.5t10.5 -25.5t-10.5 -25.5t-25.5 -10.5t-25.5 10.5t-10.5 25.5zM167 645q0 15 10.5 25.5t25.5 10.5t25.5 -10.5t10.5 -25.5t-10.5 -25.5t-25.5 -10.5t-25.5 10.5t-10.5 25.5z" />
    <glyph glyph-name="igrave" unicode="&#xec;" horiz-adv-x="253" 
d="M104 577l-109 130h62l96 -130h-49zM104 0v477h45v-477h-45z" />
    <glyph glyph-name="iacute" unicode="&#xed;" horiz-adv-x="253" 
d="M102 577l96 130h61l-108 -130h-49zM104 0v477h45v-477h-45z" />
    <glyph glyph-name="icircumflex" unicode="&#xee;" horiz-adv-x="253" 
d="M104 0v477h45v-477h-45zM-6 576l108 130h49l107 -130h-50l-82 99l-82 -99h-50z" />
    <glyph glyph-name="idieresis" unicode="&#xef;" horiz-adv-x="252" 
d="M185 645q0 15 10.5 25.5t25.5 10.5t25.5 -10.5t10.5 -25.5t-10.5 -25.5t-25.5 -10.5t-25.5 10.5t-10.5 25.5zM-5 645q0 15 10.5 25.5t25.5 10.5t25.5 -10.5t10.5 -25.5t-10.5 -25.5t-25.5 -10.5t-25.5 10.5t-10.5 25.5zM104 0v477h45v-477h-45z" />
    <glyph glyph-name="eth" unicode="&#xf0;" horiz-adv-x="595" 
d="M297 -12q-107 0 -174.5 70t-67.5 168q0 97 65 166t168 69q72 0 120 -28l-115 164l-137 -56l-21 30l137 57l-53 72h51l41 -57l120 50l21 -30l-121 -50q103 -147 145 -212q22 -34 32 -52.5t21 -52t11 -67.5q0 -99 -68 -170t-175 -71zM297 30q84 0 140.5 56.5t56.5 140.5
q0 83 -56.5 138.5t-140.5 55.5t-140 -55.5t-56 -138.5q0 -84 56 -140.5t140 -56.5z" />
    <glyph glyph-name="ntilde" unicode="&#xf1;" horiz-adv-x="604" 
d="M135 0h-45v477h45v-83q32 39 85.5 67t117.5 28q91 0 138 -52t47 -147v-290h-45v281q0 51 -14.5 86t-39 51t-48 22.5t-51.5 6.5q-55 0 -109 -33.5t-81 -77.5v-336zM379 593q-28 0 -75.5 31.5t-67.5 31.5q-37 0 -41 -57h-36q2 44 22.5 70.5t53.5 26.5q28 0 75.5 -31
t65.5 -31q36 0 42 57h36q-2 -44 -22 -71t-53 -27z" />
    <glyph glyph-name="ograve" unicode="&#xf2;" horiz-adv-x="616" 
d="M308 30q88 0 147.5 59.5t59.5 148.5t-59.5 149t-147.5 60t-147.5 -60t-59.5 -149t59.5 -148.5t147.5 -59.5zM308 -12q-112 0 -182.5 73.5t-70.5 176.5t70.5 177t182.5 74t182.5 -74t70.5 -177t-70.5 -176.5t-182.5 -73.5zM304 577l-109 130h62l96 -130h-49z" />
    <glyph glyph-name="oacute" unicode="&#xf3;" horiz-adv-x="616" 
d="M308 30q88 0 147.5 59.5t59.5 148.5t-59.5 149t-147.5 60t-147.5 -60t-59.5 -149t59.5 -148.5t147.5 -59.5zM308 -12q-112 0 -182.5 73.5t-70.5 176.5t70.5 177t182.5 74t182.5 -74t70.5 -177t-70.5 -176.5t-182.5 -73.5zM275 577l96 130h61l-108 -130h-49z" />
    <glyph glyph-name="ocircumflex" unicode="&#xf4;" horiz-adv-x="616" 
d="M308 30q88 0 147.5 59.5t59.5 148.5t-59.5 149t-147.5 60t-147.5 -60t-59.5 -149t59.5 -148.5t147.5 -59.5zM308 -12q-112 0 -182.5 73.5t-70.5 176.5t70.5 177t182.5 74t182.5 -74t70.5 -177t-70.5 -176.5t-182.5 -73.5zM177 576l108 130h49l107 -130h-50l-82 99
l-82 -99h-50z" />
    <glyph glyph-name="otilde" unicode="&#xf5;" horiz-adv-x="616" 
d="M308 30q88 0 147.5 59.5t59.5 148.5t-59.5 149t-147.5 60t-147.5 -60t-59.5 -149t59.5 -148.5t147.5 -59.5zM308 -12q-112 0 -182.5 73.5t-70.5 176.5t70.5 177t182.5 74t182.5 -74t70.5 -177t-70.5 -176.5t-182.5 -73.5zM381 593q-28 0 -75.5 31.5t-67.5 31.5
q-37 0 -41 -57h-36q2 44 22.5 70.5t53.5 26.5q28 0 75.5 -31t65.5 -31q36 0 42 57h36q-2 -44 -22 -71t-53 -27z" />
    <glyph glyph-name="odieresis" unicode="&#xf6;" horiz-adv-x="616" 
d="M308 30q88 0 147.5 59.5t59.5 148.5t-59.5 149t-147.5 60t-147.5 -60t-59.5 -149t59.5 -148.5t147.5 -59.5zM308 -12q-112 0 -182.5 73.5t-70.5 176.5t70.5 177t182.5 74t182.5 -74t70.5 -177t-70.5 -176.5t-182.5 -73.5zM367 645q0 15 10.5 25.5t25.5 10.5t25.5 -10.5
t10.5 -25.5t-10.5 -25.5t-25.5 -10.5t-25.5 10.5t-10.5 25.5zM177 645q0 15 10.5 25.5t25.5 10.5t25.5 -10.5t10.5 -25.5t-10.5 -25.5t-25.5 -10.5t-25.5 10.5t-10.5 25.5z" />
    <glyph glyph-name="divide" unicode="&#xf7;" horiz-adv-x="578" 
d="M289 86q-18 0 -30.5 12t-12.5 30q0 19 12.5 31t30.5 12t30 -12t12 -31q0 -18 -12 -30t-30 -12zM70 302v42h438v-42h-438zM289 476q-18 0 -30.5 12.5t-12.5 29.5q0 19 12.5 31t30.5 12t30 -12t12 -31q0 -17 -12 -29.5t-30 -12.5z" />
    <glyph glyph-name="oslash" unicode="&#xf8;" horiz-adv-x="616" 
d="M483 477h49l-47 -57q76 -74 76 -182q0 -103 -70.5 -176.5t-182.5 -73.5q-85 0 -148 44l-27 -32h-49l47 56q-76 71 -76 182q0 103 70.5 177t182.5 74q83 0 147 -45zM101 238q0 -89 59 -148l267 320q-53 37 -119 37q-88 0 -147.5 -60t-59.5 -149zM308 30q88 0 147.5 59.5
t59.5 148.5t-59 148l-268 -320q52 -36 120 -36z" />
    <glyph glyph-name="ugrave" unicode="&#xf9;" horiz-adv-x="606" 
d="M470 477h45v-477h-45v83q-32 -39 -85.5 -67t-117.5 -28q-91 0 -138 52t-47 147v290h45v-281q0 -51 14.5 -86t39 -51t48 -22.5t51.5 -6.5q55 0 109 33.5t81 77.5v336zM305 577l-109 130h62l96 -130h-49z" />
    <glyph glyph-name="uacute" unicode="&#xfa;" horiz-adv-x="606" 
d="M470 477h45v-477h-45v83q-32 -39 -85.5 -67t-117.5 -28q-91 0 -138 52t-47 147v290h45v-281q0 -51 14.5 -86t39 -51t48 -22.5t51.5 -6.5q55 0 109 33.5t81 77.5v336zM249 577l96 130h61l-108 -130h-49z" />
    <glyph glyph-name="ucircumflex" unicode="&#xfb;" horiz-adv-x="606" 
d="M470 477h45v-477h-45v83q-32 -39 -85.5 -67t-117.5 -28q-91 0 -138 52t-47 147v290h45v-281q0 -51 14.5 -86t39 -51t48 -22.5t51.5 -6.5q55 0 109 33.5t81 77.5v336zM166 576l108 130h49l107 -130h-50l-82 99l-82 -99h-50z" />
    <glyph glyph-name="udieresis" unicode="&#xfc;" horiz-adv-x="606" 
d="M470 477h45v-477h-45v83q-32 -39 -85.5 -67t-117.5 -28q-91 0 -138 52t-47 147v290h45v-281q0 -51 14.5 -86t39 -51t48 -22.5t51.5 -6.5q55 0 109 33.5t81 77.5v336zM357 645q0 15 10.5 25.5t25.5 10.5t25.5 -10.5t10.5 -25.5t-10.5 -25.5t-25.5 -10.5t-25.5 10.5
t-10.5 25.5zM167 645q0 15 10.5 25.5t25.5 10.5t25.5 -10.5t10.5 -25.5t-10.5 -25.5t-25.5 -10.5t-25.5 10.5t-10.5 25.5z" />
    <glyph glyph-name="yacute" unicode="&#xfd;" horiz-adv-x="542" 
d="M101 -204q-44 0 -68 15v43q30 -16 63 -16q49 0 79.5 38.5t71.5 130.5l-221 470h51l193 -415l187 415h49l-241 -531q-33 -74 -71.5 -112t-92.5 -38zM232 577l96 130h61l-108 -130h-49z" />
    <glyph glyph-name="thorn" unicode="&#xfe;" horiz-adv-x="631" 
d="M332 489q108 0 176 -73.5t68 -176.5t-68 -177t-176 -74q-126 0 -197 97v-285h-45v900h45v-307q70 96 197 96zM324 447q-62 0 -114 -33t-75 -85v-180q24 -52 76 -85.5t113 -33.5q88 0 146.5 60t58.5 149t-58.5 148.5t-146.5 59.5z" />
    <glyph glyph-name="ydieresis" unicode="&#xff;" horiz-adv-x="542" 
d="M101 -204q-44 0 -68 15v43q30 -16 63 -16q49 0 79.5 38.5t71.5 130.5l-221 470h51l193 -415l187 415h49l-241 -531q-33 -74 -71.5 -112t-92.5 -38zM325 645q0 15 10.5 25.5t25.5 10.5t25.5 -10.5t10.5 -25.5t-10.5 -25.5t-25.5 -10.5t-25.5 10.5t-10.5 25.5zM135 645
q0 15 10.5 25.5t25.5 10.5t25.5 -10.5t10.5 -25.5t-10.5 -25.5t-25.5 -10.5t-25.5 10.5t-10.5 25.5z" />
    <glyph glyph-name="Amacron" unicode="&#x100;" horiz-adv-x="743" 
d="M33 0l318 704h43l316 -704h-48l-93 206h-394l-93 -206h-49zM191 246h361l-180 398zM256 808v40h233v-40h-233z" />
    <glyph glyph-name="amacron" unicode="&#x101;" horiz-adv-x="589" 
d="M246 30q60 0 109.5 28t78.5 67v79q-85 56 -175 56q-76 0 -119.5 -31.5t-43.5 -83.5q0 -58 43.5 -86.5t106.5 -28.5zM233 -12q-75 0 -129.5 41.5t-54.5 114.5q0 71 56.5 113.5t141.5 42.5q101 0 187 -52v63q0 69 -44.5 102.5t-125.5 33.5q-86 0 -162 -51v46q72 47 170 47
q93 0 150 -43.5t57 -130.5v-212q0 -31 14 -49.5t38 -18.5q16 0 28 6v-37q-13 -8 -39 -8q-32 0 -55.5 21t-26.5 62q-78 -91 -205 -91zM170 625v38h230v-38h-230z" />
    <glyph glyph-name="Abreve" unicode="&#x102;" horiz-adv-x="743" 
d="M33 0l318 704h43l316 -704h-48l-93 206h-394l-93 -206h-49zM191 246h361l-180 398zM372 763q-53 0 -90 37.5t-38 92.5h40q1 -39 26 -65.5t62 -26.5t62.5 26.5t26.5 65.5h39q-1 -55 -38 -92.5t-90 -37.5z" />
    <glyph glyph-name="abreve" unicode="&#x103;" horiz-adv-x="589" 
d="M246 30q60 0 109.5 28t78.5 67v79q-85 56 -175 56q-76 0 -119.5 -31.5t-43.5 -83.5q0 -58 43.5 -86.5t106.5 -28.5zM233 -12q-75 0 -129.5 41.5t-54.5 114.5q0 71 56.5 113.5t141.5 42.5q101 0 187 -52v63q0 69 -44.5 102.5t-125.5 33.5q-86 0 -162 -51v46q72 47 170 47
q93 0 150 -43.5t57 -130.5v-212q0 -31 14 -49.5t38 -18.5q16 0 28 6v-37q-13 -8 -39 -8q-32 0 -55.5 21t-26.5 62q-78 -91 -205 -91zM281 578q-52 0 -89.5 37t-38.5 92h40q1 -39 26 -65t62 -26t62.5 26.5t26.5 64.5h39q0 -55 -37.5 -92t-90.5 -37z" />
    <glyph glyph-name="Aogonek" unicode="&#x104;" horiz-adv-x="743" 
d="M739 -193q-48 0 -77 28.5t-29 70.5q0 52 37 94h-8l-93 206h-394l-93 -206h-49l318 704h43l316 -704q-39 -44 -39 -89q0 -31 21.5 -50.5t54.5 -19.5q19 0 40 6v-34q-20 -6 -48 -6zM191 246h361l-180 398z" />
    <glyph glyph-name="aogonek" unicode="&#x105;" horiz-adv-x="589" 
d="M588 -189q-48 0 -77 28.5t-29 70.5q0 47 30 86q-30 2 -51 23t-23 60q-78 -91 -205 -91q-75 0 -129.5 41.5t-54.5 114.5q0 71 56.5 113.5t141.5 42.5q101 0 187 -52v63q0 69 -44.5 102.5t-125.5 33.5q-86 0 -162 -51v46q72 47 170 47q93 0 150 -43.5t57 -130.5v-212
q0 -31 14 -49.5t38 -18.5q16 0 28 6v-37q-39 -44 -39 -89q0 -31 21.5 -50.5t54.5 -19.5q19 0 40 6v-34q-20 -6 -48 -6zM246 30q60 0 109.5 28t78.5 67v79q-85 56 -175 56q-76 0 -119.5 -31.5t-43.5 -83.5q0 -58 43.5 -86.5t106.5 -28.5z" />
    <glyph glyph-name="Cacute" unicode="&#x106;" horiz-adv-x="693" 
d="M427 -12q-150 0 -251 102.5t-101 259.5t101 259.5t251 102.5q114 0 200 -55v-50q-91 61 -199 61q-129 0 -217.5 -90.5t-88.5 -227.5t88.5 -227.5t218.5 -90.5q124 0 214 73v-51q-87 -66 -216 -66zM370 763l96 130h61l-108 -130h-49z" />
    <glyph glyph-name="cacute" unicode="&#x107;" horiz-adv-x="522" 
d="M306 -12q91 0 154 42v45q-64 -45 -148 -45q-90 0 -150.5 59.5t-60.5 148.5t60.5 149t150.5 60q72 0 139 -39v44q-64 37 -144 37q-110 0 -181 -73t-71 -177q0 -105 71 -178t180 -73zM250 577l96 130h61l-108 -130h-49z" />
    <glyph glyph-name="Ccircumflex" unicode="&#x108;" horiz-adv-x="693" 
d="M427 -12q-150 0 -251 102.5t-101 259.5t101 259.5t251 102.5q114 0 200 -55v-50q-91 61 -199 61q-129 0 -217.5 -90.5t-88.5 -227.5t88.5 -227.5t218.5 -90.5q124 0 214 73v-51q-87 -66 -216 -66zM275 763l108 130h49l107 -130h-50l-82 99l-82 -99h-50z" />
    <glyph glyph-name="ccircumflex" unicode="&#x109;" horiz-adv-x="524" 
d="M306 -12q91 0 154 42v45q-64 -45 -148 -45q-90 0 -150.5 59.5t-60.5 148.5t60.5 149t150.5 60q72 0 139 -39v44q-64 37 -144 37q-110 0 -181 -73t-71 -177q0 -105 71 -178t180 -73zM155 576l108 130h49l107 -130h-50l-82 99l-82 -99h-50z" />
    <glyph glyph-name="Cdotaccent" unicode="&#x10a;" horiz-adv-x="693" 
d="M427 -12q-150 0 -251 102.5t-101 259.5t101 259.5t251 102.5q114 0 200 -55v-50q-91 61 -199 61q-129 0 -217.5 -90.5t-88.5 -227.5t88.5 -227.5t218.5 -90.5q124 0 214 73v-51q-87 -66 -216 -66zM383 825q0 16 11 27t27 11t27 -11t11 -27t-11 -27t-27 -11t-27 11t-11 27
z" />
    <glyph glyph-name="cdotaccent" unicode="&#x10b;" horiz-adv-x="524" 
d="M306 -12q91 0 154 42v45q-64 -45 -148 -45q-90 0 -150.5 59.5t-60.5 148.5t60.5 149t150.5 60q72 0 139 -39v44q-64 37 -144 37q-110 0 -181 -73t-71 -177q0 -105 71 -178t180 -73zM267 646q0 16 11 27t27 11t27 -11t11 -27t-11 -27t-27 -11t-27 11t-11 27z" />
    <glyph glyph-name="Ccaron" unicode="&#x10c;" horiz-adv-x="693" 
d="M427 -12q-150 0 -251 102.5t-101 259.5t101 259.5t251 102.5q114 0 200 -55v-50q-91 61 -199 61q-129 0 -217.5 -90.5t-88.5 -227.5t88.5 -227.5t218.5 -90.5q124 0 214 73v-51q-87 -66 -216 -66zM394 763l-107 130h49l82 -99l82 99h50l-108 -130h-48z" />
    <glyph glyph-name="ccaron" unicode="&#x10d;" horiz-adv-x="522" 
d="M306 -12q91 0 154 42v45q-64 -45 -148 -45q-90 0 -150.5 59.5t-60.5 148.5t60.5 149t150.5 60q72 0 139 -39v44q-64 37 -144 37q-110 0 -181 -73t-71 -177q0 -105 71 -178t180 -73zM276 577l-107 130h49l82 -99l82 99h50l-108 -130h-48z" />
    <glyph glyph-name="Dcaron" unicode="&#x10e;" horiz-adv-x="774" 
d="M105 0v700h217q169 0 273 -97t104 -253t-104 -253t-273 -97h-217zM151 43h163q156 0 247 84t91 223t-91 223t-247 84h-163v-614zM315 763l-107 130h49l82 -99l82 99h50l-108 -130h-48z" />
    <glyph glyph-name="dcaron" unicode="&#x10f;" horiz-adv-x="732" 
d="M298 -12q-108 0 -175.5 73.5t-67.5 176.5t67.5 177t175.5 74q126 0 197 -97v308h45v-700h-45v84q-70 -96 -197 -96zM306 30q62 0 114 33t75 85v180q-24 52 -76 85.5t-113 33.5q-88 0 -146.5 -60t-58.5 -149t58.5 -148.5t146.5 -59.5zM628 531l55 168h50l-65 -168h-40z
" />
    <glyph glyph-name="Dcroat" unicode="&#x110;" horiz-adv-x="818" 
d="M149 0v332h-117v43h117v325h217q169 0 273 -97t104 -253t-104 -253t-273 -97h-217zM195 43h163q156 0 247 84t91 223t-91 223t-247 84h-163v-282h171v-43h-171v-289z" />
    <glyph glyph-name="dcroat" unicode="&#x111;" horiz-adv-x="630" 
d="M369 555v41h127v104h45v-104h100v-41h-100v-555h-45v84q-70 -96 -197 -96q-108 0 -176 73.5t-68 176.5t68 177t176 74q126 0 197 -97v163h-127zM307 30q62 0 114 33t75 85v180q-24 52 -76 85.5t-113 33.5q-88 0 -146.5 -60t-58.5 -149t58.5 -148.5t146.5 -59.5z" />
    <glyph glyph-name="Emacron" unicode="&#x112;" horiz-adv-x="637" 
d="M105 0v700h468v-43h-422v-259h349v-43h-349v-312h438v-43h-484zM230 808v40h233v-40h-233z" />
    <glyph glyph-name="emacron" unicode="&#x113;" horiz-adv-x="567" 
d="M315 -12q-112 0 -186 70.5t-74 179.5q0 108 66 179.5t171 71.5q60 0 105 -24t68.5 -62.5t35 -77.5t11.5 -78v-15h-412q2 -90 63.5 -146t157.5 -56q87 0 154 45v-44q-57 -43 -160 -43zM101 271h366q0 28 -10 57t-29.5 56.5t-55 45t-81.5 17.5q-84 0 -134.5 -53.5
t-55.5 -122.5zM176 625v38h230v-38h-230z" />
    <glyph glyph-name="Ebreve" unicode="&#x114;" horiz-adv-x="637" 
d="M105 0v700h468v-43h-422v-259h349v-43h-349v-312h438v-43h-484zM347 763q-53 0 -90 37.5t-38 92.5h40q1 -39 26 -65.5t62 -26.5t62.5 26.5t26.5 65.5h39q-1 -55 -38 -92.5t-90 -37.5z" />
    <glyph glyph-name="ebreve" unicode="&#x115;" horiz-adv-x="567" 
d="M315 -12q-112 0 -186 70.5t-74 179.5q0 108 66 179.5t171 71.5q60 0 105 -24t68.5 -62.5t35 -77.5t11.5 -78v-15h-412q2 -90 63.5 -146t157.5 -56q87 0 154 45v-44q-57 -43 -160 -43zM101 271h366q0 28 -10 57t-29.5 56.5t-55 45t-81.5 17.5q-84 0 -134.5 -53.5
t-55.5 -122.5zM290 578q-52 0 -89.5 37t-38.5 92h40q1 -39 26 -65t62 -26t62.5 26.5t26.5 64.5h39q0 -55 -37.5 -92t-90.5 -37z" />
    <glyph glyph-name="Edotaccent" unicode="&#x116;" horiz-adv-x="637" 
d="M105 0v700h468v-43h-422v-259h349v-43h-349v-312h438v-43h-484zM308 825q0 16 11 27t27 11t27 -11t11 -27t-11 -27t-27 -11t-27 11t-11 27z" />
    <glyph glyph-name="edotaccent" unicode="&#x117;" horiz-adv-x="567" 
d="M315 -12q-112 0 -186 70.5t-74 179.5q0 108 66 179.5t171 71.5q60 0 105 -24t68.5 -62.5t35 -77.5t11.5 -78v-15h-412q2 -90 63.5 -146t157.5 -56q87 0 154 45v-44q-57 -43 -160 -43zM101 271h366q0 28 -10 57t-29.5 56.5t-55 45t-81.5 17.5q-84 0 -134.5 -53.5
t-55.5 -122.5zM246 646q0 16 11 27t27 11t27 -11t11 -27t-11 -27t-27 -11t-27 11t-11 27z" />
    <glyph glyph-name="Eogonek" unicode="&#x118;" horiz-adv-x="638" 
d="M105 0v700h468v-43h-422v-259h349v-43h-349v-312h438v-43q-39 -44 -39 -89q0 -31 21.5 -50.5t54.5 -19.5q19 0 40 6v-34q-20 -6 -48 -6q-48 0 -77 28.5t-29 70.5q0 52 37 94h-444z" />
    <glyph glyph-name="eogonek" unicode="&#x119;" horiz-adv-x="567" 
d="M504 -162q-48 0 -77 28.5t-29 70.5q0 36 17 65q-51 -14 -100 -14q-112 0 -186 70.5t-74 179.5q0 108 66 179.5t171 71.5q60 0 105 -24t68.5 -62.5t35 -77.5t11.5 -78v-15h-412q2 -90 63.5 -146t157.5 -56q87 0 154 45v-44q-39 -44 -39 -89q0 -31 21.5 -50.5t54.5 -19.5
q19 0 40 6v-34q-20 -6 -48 -6zM101 271h366q0 28 -10 57t-29.5 56.5t-55 45t-81.5 17.5q-84 0 -134.5 -53.5t-55.5 -122.5z" />
    <glyph glyph-name="Ecaron" unicode="&#x11a;" horiz-adv-x="637" 
d="M105 0v700h468v-43h-422v-259h349v-43h-349v-312h438v-43h-484zM322 763l-107 130h49l82 -99l82 99h50l-108 -130h-48z" />
    <glyph glyph-name="ecaron" unicode="&#x11b;" horiz-adv-x="567" 
d="M315 -12q-112 0 -186 70.5t-74 179.5q0 108 66 179.5t171 71.5q60 0 105 -24t68.5 -62.5t35 -77.5t11.5 -78v-15h-412q2 -90 63.5 -146t157.5 -56q87 0 154 45v-44q-57 -43 -160 -43zM101 271h366q0 28 -10 57t-29.5 56.5t-55 45t-81.5 17.5q-84 0 -134.5 -53.5
t-55.5 -122.5zM265 577l-107 130h49l82 -99l82 99h50l-108 -130h-48z" />
    <glyph glyph-name="Gcircumflex" unicode="&#x11c;" horiz-adv-x="782" 
d="M426 -12q-149 0 -250 102.5t-101 259.5q0 156 101 259t250 103q135 0 228 -73v-49q-99 78 -225 78q-131 0 -219 -90.5t-88 -228.5q0 -137 88 -227t216 -90q141 0 221 83v286h46v-303q-101 -110 -267 -110zM274 763l108 130h49l107 -130h-50l-82 99l-82 -99h-50z" />
    <glyph glyph-name="gcircumflex" unicode="&#x11d;" horiz-adv-x="630" 
d="M495 477h45v-456q0 -109 -70.5 -167t-181.5 -58q-102 0 -184 45v46q82 -49 181 -49q95 0 152.5 46t57.5 137v66q-68 -95 -196 -95q-108 0 -176 73.5t-68 175.5t68 175t176 73q128 0 196 -95v83zM495 151v179q-23 52 -74.5 84.5t-112.5 32.5q-89 0 -148 -59t-59 -147
q0 -89 59 -148t148 -59q61 0 112.5 32.5t74.5 84.5zM177 576l108 130h49l107 -130h-50l-82 99l-82 -99h-50z" />
    <glyph glyph-name="Gbreve" unicode="&#x11e;" horiz-adv-x="782" 
d="M426 -12q-149 0 -250 102.5t-101 259.5q0 156 101 259t250 103q135 0 228 -73v-49q-99 78 -225 78q-131 0 -219 -90.5t-88 -228.5q0 -137 88 -227t216 -90q141 0 221 83v286h46v-303q-101 -110 -267 -110zM420 765q-53 0 -90 37.5t-38 92.5h40q1 -39 26 -65.5t62 -26.5
t62.5 26.5t26.5 65.5h39q-1 -55 -38 -92.5t-90 -37.5z" />
    <glyph glyph-name="gbreve" unicode="&#x11f;" horiz-adv-x="630" 
d="M495 477h45v-456q0 -109 -70.5 -167t-181.5 -58q-102 0 -184 45v46q82 -49 181 -49q95 0 152.5 46t57.5 137v66q-68 -95 -196 -95q-108 0 -176 73.5t-68 175.5t68 175t176 73q128 0 196 -95v83zM495 151v179q-23 52 -74.5 84.5t-112.5 32.5q-89 0 -148 -59t-59 -147
q0 -89 59 -148t148 -59q61 0 112.5 32.5t74.5 84.5zM304 578q-52 0 -89.5 37t-38.5 92h40q1 -39 26 -65t62 -26t62.5 26.5t26.5 64.5h39q0 -55 -37.5 -92t-90.5 -37z" />
    <glyph glyph-name="Gdotaccent" unicode="&#x120;" horiz-adv-x="782" 
d="M426 -12q-149 0 -250 102.5t-101 259.5q0 156 101 259t250 103q135 0 228 -73v-49q-99 78 -225 78q-131 0 -219 -90.5t-88 -228.5q0 -137 88 -227t216 -90q141 0 221 83v286h46v-303q-101 -110 -267 -110zM384 825q0 16 11 27t27 11t27 -11t11 -27t-11 -27t-27 -11
t-27 11t-11 27z" />
    <glyph glyph-name="gdotaccent" unicode="&#x121;" horiz-adv-x="630" 
d="M495 477h45v-456q0 -109 -70.5 -167t-181.5 -58q-102 0 -184 45v46q82 -49 181 -49q95 0 152.5 46t57.5 137v66q-68 -95 -196 -95q-108 0 -176 73.5t-68 175.5t68 175t176 73q128 0 196 -95v83zM495 151v179q-23 52 -74.5 84.5t-112.5 32.5q-89 0 -148 -59t-59 -147
q0 -89 59 -148t148 -59q61 0 112.5 32.5t74.5 84.5zM270 646q0 16 11 27t27 11t27 -11t11 -27t-11 -27t-27 -11t-27 11t-11 27z" />
    <glyph glyph-name="uni0122" unicode="&#x122;" horiz-adv-x="782" 
d="M426 -12q-149 0 -250 102.5t-101 259.5q0 156 101 259t250 103q135 0 228 -73v-49q-99 78 -225 78q-131 0 -219 -90.5t-88 -228.5q0 -137 88 -227t216 -90q141 0 221 83v286h46v-303q-101 -110 -267 -110zM356 -218l55 168h50l-65 -168h-40z" />
    <glyph glyph-name="uni0123" unicode="&#x123;" horiz-adv-x="630" 
d="M495 477h45v-456q0 -109 -70.5 -167t-181.5 -58q-102 0 -184 45v46q82 -49 181 -49q95 0 152.5 46t57.5 137v66q-68 -95 -196 -95q-108 0 -176 73.5t-68 175.5t68 175t176 73q128 0 196 -95v83zM495 151v179q-23 52 -74.5 84.5t-112.5 32.5q-89 0 -148 -59t-59 -147
q0 -89 59 -148t148 -59q61 0 112.5 32.5t74.5 84.5zM369 720l-55 -168h-50l65 168h40z" />
    <glyph glyph-name="Hcircumflex" unicode="&#x124;" horiz-adv-x="760" 
d="M105 0v700h46v-302h457v302h46v-700h-46v355h-457v-355h-46zM247 763l108 130h49l107 -130h-50l-82 99l-82 -99h-50z" />
    <glyph glyph-name="hcircumflex" unicode="&#x125;" horiz-adv-x="602" 
d="M133 0h-45v700h45v-306q32 39 85.5 67t117.5 28q91 0 138 -52t47 -147v-290h-45v281q0 51 -14.5 86t-39 51t-48 22.5t-51.5 6.5q-55 0 -109 -33.5t-81 -77.5v-336zM-20 763l108 130h49l107 -130h-50l-82 99l-82 -99h-50z" />
    <glyph glyph-name="Hbar" unicode="&#x126;" horiz-adv-x="839" 
d="M145 0v548h-95v37h95v115h46v-115h457v115h46v-115h95v-37h-95v-548h-46v355h-457v-355h-46zM191 398h457v150h-457v-150z" />
    <glyph glyph-name="hbar" unicode="&#x127;" horiz-adv-x="632" 
d="M163 0h-45v545h-102v41h102v114h45v-114h136v-41h-136v-208q32 39 85.5 67t117.5 28q91 0 138 -52t47 -147v-233h-45v224q0 51 -14.5 86t-39 51t-48 22.5t-51.5 6.5q-55 0 -109 -33.5t-81 -77.5v-279z" />
    <glyph glyph-name="Itilde" unicode="&#x128;" horiz-adv-x="269" 
d="M112 0v700h46v-700h-46zM207 776q-28 0 -75 31.5t-66 31.5q-39 0 -43 -57h-36q2 44 22 70t54 26q28 0 75.5 -30.5t66.5 -30.5q36 0 42 57h36q-2 -44 -22 -71t-54 -27z" />
    <glyph glyph-name="itilde" unicode="&#x129;" horiz-adv-x="244" 
d="M196 593q-28 0 -75.5 31.5t-67.5 31.5q-37 0 -41 -57h-36q2 44 22.5 70.5t53.5 26.5q28 0 75.5 -31t65.5 -31q36 0 42 57h36q-2 -44 -22 -71t-53 -27zM104 0v477h45v-477h-45z" />
    <glyph glyph-name="Imacron" unicode="&#x12a;" horiz-adv-x="269" 
d="M112 0v700h46v-700h-46zM19 808v40h233v-40h-233z" />
    <glyph glyph-name="imacron" unicode="&#x12b;" horiz-adv-x="244" 
d="M8 625v38h230v-38h-230zM104 0v477h45v-477h-45z" />
    <glyph glyph-name="Ibreve" unicode="&#x12c;" horiz-adv-x="269" 
d="M112 0v700h46v-700h-46zM135 763q-53 0 -90 37.5t-38 92.5h40q1 -39 26 -65.5t62 -26.5t62.5 26.5t26.5 65.5h39q-1 -55 -38 -92.5t-90 -37.5z" />
    <glyph glyph-name="ibreve" unicode="&#x12d;" horiz-adv-x="244" 
d="M123 578q-52 0 -89.5 37t-38.5 92h40q1 -39 26 -65t62 -26t62.5 26.5t26.5 64.5h39q0 -55 -37.5 -92t-90.5 -37zM104 0v477h45v-477h-45z" />
    <glyph glyph-name="Iogonek" unicode="&#x12e;" horiz-adv-x="269" 
d="M187 -193q-48 0 -77 28.5t-29 70.5q0 54 31 94v700h46v-700q-39 -44 -39 -89q0 -31 21.5 -50.5t54.5 -19.5q19 0 40 6v-34q-20 -6 -48 -6z" />
    <glyph glyph-name="iogonek" unicode="&#x12f;" horiz-adv-x="254" 
d="M178 -193q-48 0 -77 28.5t-29 70.5q0 53 32 94v477h45v-477q-39 -44 -39 -89q0 -31 21.5 -50.5t54.5 -19.5q19 0 40 6v-34q-20 -6 -48 -6zM126 608q-16 0 -27 11t-11 27t11 27t27 11t27 -11t11 -27t-11 -27t-27 -11z" />
    <glyph glyph-name="Idotaccent" unicode="&#x130;" horiz-adv-x="269" 
d="M112 0v700h46v-700h-46zM96 825q0 16 11 27t27 11t27 -11t11 -27t-11 -27t-27 -11t-27 11t-11 27z" />
    <glyph glyph-name="dotlessi" unicode="&#x131;" horiz-adv-x="253" 
d="M104 0v477h45v-477h-45z" />
    <glyph glyph-name="IJ" unicode="&#x132;" horiz-adv-x="600" 
d="M112 246v454h46v-454h-46zM279 -12q-99 0 -167 48v52q63 -55 161 -55q185 0 185 185v482h46v-489q0 -112 -58.5 -167.5t-166.5 -55.5z" />
    <glyph glyph-name="Jcircumflex" unicode="&#x134;" horiz-adv-x="502" 
d="M194 -12q-93 0 -158 47v51q60 -54 151 -54q173 0 173 182v486h46v-493q0 -109 -55.5 -164t-156.5 -55zM250 763l108 130h49l107 -130h-50l-82 99l-82 -99h-50z" />
    <glyph glyph-name="jcircumflex" unicode="&#x135;" horiz-adv-x="253" 
d="M23 -204q55 0 90.5 32t35.5 105v544h-45v-536q0 -103 -89 -103q-36 0 -69 19v-43q30 -18 77 -18zM-5 576l108 130h49l107 -130h-50l-82 99l-82 -99h-50z" />
    <glyph glyph-name="uni0136" unicode="&#x136;" horiz-adv-x="638" 
d="M105 0v700h46v-309l356 309h65l-369 -321l425 -379h-70l-407 364v-364h-46zM282 -218l55 168h50l-65 -168h-40z" />
    <glyph glyph-name="uni0137" unicode="&#x137;" horiz-adv-x="515" 
d="M89 0v700h45v-424l251 201h66l-269 -216l305 -261h-68l-285 244v-244h-45zM205 -218l55 168h50l-65 -168h-40z" />
    <glyph glyph-name="kgreenlandic" unicode="&#x138;" horiz-adv-x="516" 
d="M90 0v477h45v-201l251 201h66l-269 -216l305 -261h-68l-285 244v-244h-45z" />
    <glyph glyph-name="Lacute" unicode="&#x139;" horiz-adv-x="592" 
d="M105 0v700h46v-657h407v-43h-453zM105 763l96 130h61l-108 -130h-49z" />
    <glyph glyph-name="lacute" unicode="&#x13a;" horiz-adv-x="274" 
d="M188 -12q-43 0 -73 25.5t-30 85.5v601h45v-592q0 -78 71 -78q28 0 50 14v-42q-25 -14 -63 -14zM88 763l96 130h61l-108 -130h-49z" />
    <glyph glyph-name="uni013B" unicode="&#x13b;" horiz-adv-x="592" 
d="M105 0v700h46v-657h407v-43h-453zM268 -218l55 168h50l-65 -168h-40z" />
    <glyph glyph-name="lcommaaccent" unicode="&#x13c;" horiz-adv-x="274" 
d="M188 -12q-43 0 -73 25.5t-30 85.5v601h45v-592q0 -78 71 -78q28 0 50 14v-42q-25 -14 -63 -14zM103 -218l55 168h50l-65 -168h-40z" />
    <glyph glyph-name="Lcaron" unicode="&#x13d;" horiz-adv-x="619" 
d="M105 0v700h46v-657h407v-43h-453zM458 531l55 168h50l-65 -168h-40z" />
    <glyph glyph-name="lcaron" unicode="&#x13e;" horiz-adv-x="346" 
d="M194 -12q-43 0 -73 25.5t-30 85.5v601h45v-592q0 -78 71 -78q28 0 50 14v-42q-25 -14 -63 -14zM243 531l55 168h50l-65 -168h-40z" />
    <glyph glyph-name="Ldot" unicode="&#x13f;" horiz-adv-x="592" 
d="M105 0v700h46v-657h407v-43h-453zM482 379q0 16 11 27t27 11t27 -11t11 -27t-11 -27t-27 -11t-27 11t-11 27z" />
    <glyph glyph-name="ldot" unicode="&#x140;" horiz-adv-x="367" 
d="M197 -12q-43 0 -73 25.5t-30 85.5v601h45v-592q0 -78 71 -78q28 0 50 14v-42q-25 -14 -63 -14zM242 379q0 16 11 27t27 11t27 -11t11 -27t-11 -27t-27 -11t-27 11t-11 27z" />
    <glyph glyph-name="Lslash" unicode="&#x141;" horiz-adv-x="599" 
d="M112 0v344l-95 -56v47l95 57v308h46v-281l160 96v-48l-160 -96v-328h407v-43h-453z" />
    <glyph glyph-name="lslash" unicode="&#x142;" horiz-adv-x="378" 
d="M255 -12q-43 0 -73 25.5t-30 85.5v251l-101 -61v47l101 61v303h45v-276l101 61v-47l-101 -61v-269q0 -78 71 -78q28 0 50 14v-42q-25 -14 -63 -14z" />
    <glyph glyph-name="Nacute" unicode="&#x143;" horiz-adv-x="775" 
d="M105 0v700h41l477 -620v620h46v-700h-40l-478 621v-621h-46zM355 763l96 130h61l-108 -130h-49z" />
    <glyph glyph-name="nacute" unicode="&#x144;" horiz-adv-x="604" 
d="M135 0h-45v477h45v-83q32 39 85.5 67t117.5 28q91 0 138 -52t47 -147v-290h-45v281q0 51 -14.5 86t-39 51t-48 22.5t-51.5 6.5q-55 0 -109 -33.5t-81 -77.5v-336zM257 577l96 130h61l-108 -130h-49z" />
    <glyph glyph-name="uni0145" unicode="&#x145;" horiz-adv-x="775" 
d="M105 0v700h41l477 -620v620h46v-700h-40l-478 621v-621h-46zM328 -218l55 168h50l-65 -168h-40z" />
    <glyph glyph-name="uni0146" unicode="&#x146;" horiz-adv-x="604" 
d="M135 0h-45v477h45v-83q32 39 85.5 67t117.5 28q91 0 138 -52t47 -147v-290h-45v281q0 51 -14.5 86t-39 51t-48 22.5t-51.5 6.5q-55 0 -109 -33.5t-81 -77.5v-336zM238 -218l55 168h50l-65 -168h-40z" />
    <glyph glyph-name="Ncaron" unicode="&#x147;" horiz-adv-x="775" 
d="M105 0v700h41l477 -620v620h46v-700h-40l-478 621v-621h-46zM362 763l-107 130h49l82 -99l82 99h50l-108 -130h-48z" />
    <glyph glyph-name="ncaron" unicode="&#x148;" horiz-adv-x="604" 
d="M135 0h-45v477h45v-83q32 39 85.5 67t117.5 28q91 0 138 -52t47 -147v-290h-45v281q0 51 -14.5 86t-39 51t-48 22.5t-51.5 6.5q-55 0 -109 -33.5t-81 -77.5v-336zM283 577l-107 130h49l82 -99l82 99h50l-108 -130h-48z" />
    <glyph glyph-name="napostrophe" unicode="&#x149;" horiz-adv-x="663" 
d="M194 0h-45v477h45v-83q32 39 85.5 67t117.5 28q91 0 138 -52t47 -147v-290h-45v281q0 51 -14.5 86t-39 51t-48 22.5t-51.5 6.5q-55 0 -109 -33.5t-81 -77.5v-336zM22 531l55 168h50l-65 -168h-40z" />
    <glyph glyph-name="Eng" unicode="&#x14a;" horiz-adv-x="775" 
d="M496 -204q-64 0 -110 24v50q46 -30 102 -30q135 0 135 157v10l-472 614v-621h-46v700h41l477 -620v620h46v-712q0 -192 -173 -192z" />
    <glyph glyph-name="eng" unicode="&#x14b;" horiz-adv-x="604" 
d="M135 0h-45v477h45v-83q32 39 85.5 67t117.5 28q91 0 138 -52t47 -147v-357q0 -73 -35.5 -105t-90.5 -32q-47 0 -77 18v43q33 -19 69 -19q89 0 89 103v340q0 51 -14.5 86t-39 51t-48 22.5t-51.5 6.5q-55 0 -109 -33.5t-81 -77.5v-336z" />
    <glyph glyph-name="Omacron" unicode="&#x14c;" horiz-adv-x="846" 
d="M423 32q127 0 214 91t87 227t-87 227t-214 91t-214 -91t-87 -227t87 -227t214 -91zM423 -12q-149 0 -248.5 103t-99.5 259q0 155 99.5 258.5t248.5 103.5q148 0 248 -103.5t100 -258.5t-100 -258.5t-248 -103.5zM307 808v40h233v-40h-233z" />
    <glyph glyph-name="omacron" unicode="&#x14d;" horiz-adv-x="616" 
d="M308 30q88 0 147.5 59.5t59.5 148.5t-59.5 149t-147.5 60t-147.5 -60t-59.5 -149t59.5 -148.5t147.5 -59.5zM308 -12q-112 0 -182.5 73.5t-70.5 176.5t70.5 177t182.5 74t182.5 -74t70.5 -177t-70.5 -176.5t-182.5 -73.5zM194 625v38h230v-38h-230z" />
    <glyph glyph-name="Obreve" unicode="&#x14e;" horiz-adv-x="846" 
d="M423 32q127 0 214 91t87 227t-87 227t-214 91t-214 -91t-87 -227t87 -227t214 -91zM423 -12q-149 0 -248.5 103t-99.5 259q0 155 99.5 258.5t248.5 103.5q148 0 248 -103.5t100 -258.5t-100 -258.5t-248 -103.5zM423 765q-53 0 -90 37.5t-38 92.5h40q1 -39 26 -65.5
t62 -26.5t62.5 26.5t26.5 65.5h39q-1 -55 -38 -92.5t-90 -37.5z" />
    <glyph glyph-name="obreve" unicode="&#x14f;" horiz-adv-x="616" 
d="M308 30q88 0 147.5 59.5t59.5 148.5t-59.5 149t-147.5 60t-147.5 -60t-59.5 -149t59.5 -148.5t147.5 -59.5zM308 -12q-112 0 -182.5 73.5t-70.5 176.5t70.5 177t182.5 74t182.5 -74t70.5 -177t-70.5 -176.5t-182.5 -73.5zM309 580q-52 0 -89.5 37t-38.5 92h40
q1 -39 26 -65t62 -26t62.5 26.5t26.5 64.5h39q0 -55 -37.5 -92t-90.5 -37z" />
    <glyph glyph-name="Ohungarumlaut" unicode="&#x150;" horiz-adv-x="846" 
d="M423 32q127 0 214 91t87 227t-87 227t-214 91t-214 -91t-87 -227t87 -227t214 -91zM423 -12q-149 0 -248.5 103t-99.5 259q0 155 99.5 258.5t248.5 103.5q148 0 248 -103.5t100 -258.5t-100 -258.5t-248 -103.5zM464 763l97 130h60l-108 -130h-49zM320 763l96 130h62
l-109 -130h-49z" />
    <glyph glyph-name="ohungarumlaut" unicode="&#x151;" horiz-adv-x="616" 
d="M308 30q88 0 147.5 59.5t59.5 148.5t-59.5 149t-147.5 60t-147.5 -60t-59.5 -149t59.5 -148.5t147.5 -59.5zM308 -12q-112 0 -182.5 73.5t-70.5 176.5t70.5 177t182.5 74t182.5 -74t70.5 -177t-70.5 -176.5t-182.5 -73.5zM350 577l97 130h60l-108 -130h-49zM206 577
l96 130h62l-109 -130h-49z" />
    <glyph glyph-name="OE" unicode="&#x152;" horiz-adv-x="1143" 
d="M453 0q-169 0 -273.5 97t-104.5 253t104.5 253t273.5 97h626v-43h-418v-259h345v-43h-345v-312h434v-43h-642zM462 43h153v614h-153q-158 0 -248.5 -84t-90.5 -223q0 -140 90 -223.5t249 -83.5z" />
    <glyph glyph-name="oe" unicode="&#x153;" horiz-adv-x="1027" 
d="M775 -12q-80 0 -143.5 38t-93.5 104q-30 -64 -90 -103t-140 -39q-112 0 -182.5 73.5t-70.5 176.5t70.5 177t182.5 74q78 0 138 -39t90 -102q28 65 84.5 103t131.5 38q60 0 105 -24t68.5 -62.5t35 -77.5t11.5 -78v-15h-412q2 -90 63.5 -146t157.5 -56q87 0 154 45v-44
q-57 -43 -160 -43zM308 30q88 0 147.5 59.5t59.5 148.5v9q-4 85 -62.5 142.5t-144.5 57.5q-88 0 -147.5 -60t-59.5 -149t59.5 -148.5t147.5 -59.5zM561 271h366q0 28 -10 57t-29.5 56.5t-55 45t-81.5 17.5q-84 0 -134.5 -53.5t-55.5 -122.5z" />
    <glyph glyph-name="Racute" unicode="&#x154;" horiz-adv-x="736" 
d="M105 0v700h310q100 0 156.5 -50.5t56.5 -133.5q0 -75 -45.5 -124.5t-128.5 -59.5l230 -332h-54l-229 329h-250v-329h-46zM151 372h260q81 0 126 37t45 106q0 67 -45 104.5t-126 37.5h-260v-285zM289 763l96 130h61l-108 -130h-49z" />
    <glyph glyph-name="racute" unicode="&#x155;" horiz-adv-x="345" 
d="M90 0v477h45v-100q26 46 78 78.5t115 33.5v-46q-68 0 -119 -38.5t-74 -88.5v-316h-45zM136 577l96 130h61l-108 -130h-49z" />
    <glyph glyph-name="uni0156" unicode="&#x156;" horiz-adv-x="736" 
d="M105 0v700h310q100 0 156.5 -50.5t56.5 -133.5q0 -75 -45.5 -124.5t-128.5 -59.5l230 -332h-54l-229 329h-250v-329h-46zM151 372h260q81 0 126 37t45 106q0 67 -45 104.5t-126 37.5h-260v-285zM293 -218l55 168h50l-65 -168h-40z" />
    <glyph glyph-name="uni0157" unicode="&#x157;" horiz-adv-x="345" 
d="M90 0v477h45v-100q26 46 78 78.5t115 33.5v-46q-68 0 -119 -38.5t-74 -88.5v-316h-45zM34 -218l55 168h50l-65 -168h-40z" />
    <glyph glyph-name="Rcaron" unicode="&#x158;" horiz-adv-x="736" 
d="M105 0v700h310q100 0 156.5 -50.5t56.5 -133.5q0 -75 -45.5 -124.5t-128.5 -59.5l230 -332h-54l-229 329h-250v-329h-46zM151 372h260q81 0 126 37t45 106q0 67 -45 104.5t-126 37.5h-260v-285zM314 763l-107 130h49l82 -99l82 99h50l-108 -130h-48z" />
    <glyph glyph-name="rcaron" unicode="&#x159;" horiz-adv-x="343" 
d="M88 0v477h45v-100q26 46 78 78.5t115 33.5v-46q-68 0 -119 -38.5t-74 -88.5v-316h-45zM178 577l-107 130h49l82 -99l82 99h50l-108 -130h-48z" />
    <glyph glyph-name="Sacute" unicode="&#x15a;" horiz-adv-x="623" 
d="M304 -12q-78 0 -147.5 22t-108.5 53v53q40 -34 107.5 -59t144.5 -25q91 0 149.5 41t58.5 110q0 30 -12 54t-28 39t-48 29.5t-55.5 21.5t-66.5 19q-47 13 -74.5 22.5t-61 26t-51 34.5t-29.5 46t-12 64q0 74 61 123.5t171 49.5q122 0 212 -59v-49q-96 64 -210 64
q-93 0 -140.5 -38t-47.5 -92q0 -23 6.5 -41t21.5 -32.5t28 -24t39.5 -19.5t42.5 -15t48 -14l21 -6q44 -13 68.5 -21t60.5 -25.5t55 -36.5t33.5 -50t14.5 -70q0 -92 -73 -143.5t-178 -51.5zM254 763l96 130h61l-108 -130h-49z" />
    <glyph glyph-name="sacute" unicode="&#x15b;" horiz-adv-x="500" 
d="M244 -12q-60 0 -114 15t-83 36v49q86 -58 196 -58q70 0 111.5 25.5t41.5 68.5q0 21 -11 36.5t-33 26.5t-44 17.5t-55 15.5q-13 3 -20 5q-31 8 -52 14.5t-45.5 18t-39 24.5t-24.5 33t-10 45q0 59 48 94t136 35q105 0 172 -44v-46q-79 48 -169 48q-70 0 -105.5 -24
t-35.5 -63q0 -18 9 -32.5t20 -23t34 -17.5t37.5 -13t44.5 -11q38 -9 56 -14t49 -17t45.5 -25t26.5 -34.5t12 -49.5q0 -62 -56.5 -98.5t-141.5 -36.5zM196 577l96 130h61l-108 -130h-49z" />
    <glyph glyph-name="Scircumflex" unicode="&#x15c;" horiz-adv-x="623" 
d="M304 -12q-78 0 -147.5 22t-108.5 53v53q40 -34 107.5 -59t144.5 -25q91 0 149.5 41t58.5 110q0 30 -12 54t-28 39t-48 29.5t-55.5 21.5t-66.5 19q-47 13 -74.5 22.5t-61 26t-51 34.5t-29.5 46t-12 64q0 74 61 123.5t171 49.5q122 0 212 -59v-49q-96 64 -210 64
q-93 0 -140.5 -38t-47.5 -92q0 -23 6.5 -41t21.5 -32.5t28 -24t39.5 -19.5t42.5 -15t48 -14l21 -6q44 -13 68.5 -21t60.5 -25.5t55 -36.5t33.5 -50t14.5 -70q0 -92 -73 -143.5t-178 -51.5zM179 763l108 130h49l107 -130h-50l-82 99l-82 -99h-50z" />
    <glyph glyph-name="scircumflex" unicode="&#x15d;" horiz-adv-x="500" 
d="M244 -12q-60 0 -114 15t-83 36v49q86 -58 196 -58q70 0 111.5 25.5t41.5 68.5q0 21 -11 36.5t-33 26.5t-44 17.5t-55 15.5q-13 3 -20 5q-31 8 -52 14.5t-45.5 18t-39 24.5t-24.5 33t-10 45q0 59 48 94t136 35q105 0 172 -44v-46q-79 48 -169 48q-70 0 -105.5 -24
t-35.5 -63q0 -18 9 -32.5t20 -23t34 -17.5t37.5 -13t44.5 -11q38 -9 56 -14t49 -17t45.5 -25t26.5 -34.5t12 -49.5q0 -62 -56.5 -98.5t-141.5 -36.5zM118 576l108 130h49l107 -130h-50l-82 99l-82 -99h-50z" />
    <glyph glyph-name="Scedilla" unicode="&#x15e;" horiz-adv-x="623" 
d="M221 -127l78 115q-77 1 -145 22.5t-106 52.5v53q40 -34 107.5 -59t144.5 -25q91 0 149.5 41t58.5 110q0 30 -12 54t-28 39t-48 29.5t-55.5 21.5t-66.5 19q-47 13 -74.5 22.5t-61 26t-51 34.5t-29.5 46t-12 64q0 74 61 123.5t171 49.5q122 0 212 -59v-49q-96 64 -210 64
q-93 0 -140.5 -38t-47.5 -92q0 -23 6.5 -41t21.5 -32.5t28 -24t39.5 -19.5t42.5 -15t48 -14l21 -6q44 -13 68.5 -21t60.5 -25.5t55 -36.5t33.5 -50t14.5 -70q0 -83 -60.5 -133t-152.5 -60l-65 -117h-56z" />
    <glyph glyph-name="scedilla" unicode="&#x15f;" horiz-adv-x="500" 
d="M157 -127l78 115q-57 1 -108.5 16t-79.5 35v49q86 -58 196 -58q70 0 111.5 25.5t41.5 68.5q0 21 -11 36.5t-33 26.5t-44 17.5t-55 15.5q-13 3 -20 5q-31 8 -52 14.5t-45.5 18t-39 24.5t-24.5 33t-10 45q0 59 48 94t136 35q105 0 172 -44v-46q-79 48 -169 48
q-70 0 -105.5 -24t-35.5 -63q0 -18 9 -32.5t20 -23t34 -17.5t37.5 -13t44.5 -11q38 -9 56 -14t49 -17t45.5 -25t26.5 -34.5t12 -49.5q0 -56 -45.5 -90.5t-118.5 -42.5l-65 -117h-56z" />
    <glyph glyph-name="Scaron" unicode="&#x160;" horiz-adv-x="623" 
d="M304 -12q-78 0 -147.5 22t-108.5 53v53q40 -34 107.5 -59t144.5 -25q91 0 149.5 41t58.5 110q0 30 -12 54t-28 39t-48 29.5t-55.5 21.5t-66.5 19q-47 13 -74.5 22.5t-61 26t-51 34.5t-29.5 46t-12 64q0 74 61 123.5t171 49.5q122 0 212 -59v-49q-96 64 -210 64
q-93 0 -140.5 -38t-47.5 -92q0 -23 6.5 -41t21.5 -32.5t28 -24t39.5 -19.5t42.5 -15t48 -14l21 -6q44 -13 68.5 -21t60.5 -25.5t55 -36.5t33.5 -50t14.5 -70q0 -92 -73 -143.5t-178 -51.5zM273 763l-107 130h49l82 -99l82 99h50l-108 -130h-48z" />
    <glyph glyph-name="scaron" unicode="&#x161;" horiz-adv-x="500" 
d="M244 -12q-60 0 -114 15t-83 36v49q86 -58 196 -58q70 0 111.5 25.5t41.5 68.5q0 21 -11 36.5t-33 26.5t-44 17.5t-55 15.5q-13 3 -20 5q-31 8 -52 14.5t-45.5 18t-39 24.5t-24.5 33t-10 45q0 59 48 94t136 35q105 0 172 -44v-46q-79 48 -169 48q-70 0 -105.5 -24
t-35.5 -63q0 -18 9 -32.5t20 -23t34 -17.5t37.5 -13t44.5 -11q38 -9 56 -14t49 -17t45.5 -25t26.5 -34.5t12 -49.5q0 -62 -56.5 -98.5t-141.5 -36.5zM223 577l-107 130h49l82 -99l82 99h50l-108 -130h-48z" />
    <glyph glyph-name="uni0162" unicode="&#x162;" horiz-adv-x="620" 
d="M201 -127l86 127v657h-251v43h548v-43h-251v-657l-76 -127h-56z" />
    <glyph glyph-name="uni0163" unicode="&#x163;" horiz-adv-x="422" 
d="M150 125v311h-122v41h122v154h45v-154h178v-41h-178v-299q0 -58 21.5 -82.5t68.5 -24.5q42 0 81 22v-42q-23 -16 -69 -21l-65 -116h-56l79 116q-105 12 -105 136z" />
    <glyph glyph-name="Tcaron" unicode="&#x164;" horiz-adv-x="620" 
d="M287 0v657h-251v43h548v-43h-251v-657h-46zM286 763l-107 130h49l82 -99l82 99h50l-108 -130h-48z" />
    <glyph glyph-name="tcaron" unicode="&#x165;" horiz-adv-x="531" 
d="M286 -12q61 0 92 22v42q-39 -22 -81 -22q-47 0 -68.5 24.5t-21.5 82.5v299h178v41h-178v154h-45v-154h-122v-41h122v-311q0 -64 31 -100.5t93 -36.5zM427 531l55 168h50l-65 -168h-40z" />
    <glyph glyph-name="Tbar" unicode="&#x166;" horiz-adv-x="620" 
d="M287 0v353h-150v43h150v261h-251v43h548v-43h-251v-261h150v-43h-150v-353h-46z" />
    <glyph glyph-name="tbar" unicode="&#x167;" horiz-adv-x="422" 
d="M274 -12q-62 0 -93 36.5t-31 100.5v114h-120v41h120v156h-122v41h122v154h45v-154h178v-41h-178v-156h178v-41h-178v-102q0 -58 21.5 -82.5t68.5 -24.5q42 0 81 22v-42q-31 -22 -92 -22z" />
    <glyph glyph-name="Utilde" unicode="&#x168;" horiz-adv-x="747" 
d="M374 -12q-126 0 -203 81t-77 230v401h46v-401q0 -126 62.5 -196.5t171.5 -70.5q108 0 170.5 70.5t62.5 196.5v401h46v-401q0 -148 -77 -229.5t-202 -81.5zM445 776q-28 0 -75 31.5t-66 31.5q-39 0 -43 -57h-36q2 44 22 70t54 26q28 0 75.5 -30.5t66.5 -30.5q36 0 42 57
h36q-2 -44 -22 -71t-54 -27z" />
    <glyph glyph-name="utilde" unicode="&#x169;" horiz-adv-x="606" 
d="M470 477h45v-477h-45v83q-32 -39 -85.5 -67t-117.5 -28q-91 0 -138 52t-47 147v290h45v-281q0 -51 14.5 -86t39 -51t48 -22.5t51.5 -6.5q55 0 109 33.5t81 77.5v336zM372 593q-28 0 -75.5 31.5t-67.5 31.5q-37 0 -41 -57h-36q2 44 22.5 70.5t53.5 26.5q28 0 75.5 -31
t65.5 -31q36 0 42 57h36q-2 -44 -22 -71t-53 -27z" />
    <glyph glyph-name="Umacron" unicode="&#x16a;" horiz-adv-x="747" 
d="M374 -12q-126 0 -203 81t-77 230v401h46v-401q0 -126 62.5 -196.5t171.5 -70.5q108 0 170.5 70.5t62.5 196.5v401h46v-401q0 -148 -77 -229.5t-202 -81.5zM257 808v40h233v-40h-233z" />
    <glyph glyph-name="umacron" unicode="&#x16b;" horiz-adv-x="606" 
d="M470 477h45v-477h-45v83q-32 -39 -85.5 -67t-117.5 -28q-91 0 -138 52t-47 147v290h45v-281q0 -51 14.5 -86t39 -51t48 -22.5t51.5 -6.5q55 0 109 33.5t81 77.5v336zM184 625v38h230v-38h-230z" />
    <glyph glyph-name="Ubreve" unicode="&#x16c;" horiz-adv-x="747" 
d="M374 -12q-126 0 -203 81t-77 230v401h46v-401q0 -126 62.5 -196.5t171.5 -70.5q108 0 170.5 70.5t62.5 196.5v401h46v-401q0 -148 -77 -229.5t-202 -81.5zM373 763q-53 0 -90 37.5t-38 92.5h40q1 -39 26 -65.5t62 -26.5t62.5 26.5t26.5 65.5h39q-1 -55 -38 -92.5
t-90 -37.5z" />
    <glyph glyph-name="ubreve" unicode="&#x16d;" horiz-adv-x="606" 
d="M470 477h45v-477h-45v83q-32 -39 -85.5 -67t-117.5 -28q-91 0 -138 52t-47 147v290h45v-281q0 -51 14.5 -86t39 -51t48 -22.5t51.5 -6.5q55 0 109 33.5t81 77.5v336zM299 578q-52 0 -89.5 37t-38.5 92h40q1 -39 26 -65t62 -26t62.5 26.5t26.5 64.5h39q0 -55 -37.5 -92
t-90.5 -37z" />
    <glyph glyph-name="Uring" unicode="&#x16e;" horiz-adv-x="747" 
d="M374 -12q-126 0 -203 81t-77 230v401h46v-401q0 -126 62.5 -196.5t171.5 -70.5q108 0 170.5 70.5t62.5 196.5v401h46v-401q0 -148 -77 -229.5t-202 -81.5zM375 736q-39 0 -67 27.5t-28 65.5t28 65.5t67 27.5q38 0 65 -27.5t27 -65.5t-27 -65.5t-65 -27.5zM375 769
q25 0 42.5 17.5t17.5 42.5q0 26 -17.5 43.5t-42.5 17.5q-26 0 -43.5 -17.5t-17.5 -43.5q0 -25 17.5 -42.5t43.5 -17.5z" />
    <glyph glyph-name="uring" unicode="&#x16f;" horiz-adv-x="606" 
d="M470 477h45v-477h-45v83q-32 -39 -85.5 -67t-117.5 -28q-91 0 -138 52t-47 147v290h45v-281q0 -51 14.5 -86t39 -51t48 -22.5t51.5 -6.5q55 0 109 33.5t81 77.5v336zM300 552q-40 0 -67.5 27.5t-27.5 65.5t27.5 65.5t67.5 27.5q37 0 64 -27.5t27 -65.5t-27 -65.5
t-64 -27.5zM300 585q25 0 42.5 17.5t17.5 42.5q0 26 -17.5 43.5t-42.5 17.5q-26 0 -44 -17.5t-18 -43.5q0 -25 18 -42.5t44 -17.5z" />
    <glyph glyph-name="Uhungarumlaut" unicode="&#x170;" horiz-adv-x="747" 
d="M374 -12q-126 0 -203 81t-77 230v401h46v-401q0 -126 62.5 -196.5t171.5 -70.5q108 0 170.5 70.5t62.5 196.5v401h46v-401q0 -148 -77 -229.5t-202 -81.5zM410 763l97 130h60l-108 -130h-49zM266 763l96 130h62l-109 -130h-49z" />
    <glyph glyph-name="uhungarumlaut" unicode="&#x171;" horiz-adv-x="606" 
d="M470 477h45v-477h-45v83q-32 -39 -85.5 -67t-117.5 -28q-91 0 -138 52t-47 147v290h45v-281q0 -51 14.5 -86t39 -51t48 -22.5t51.5 -6.5q55 0 109 33.5t81 77.5v336zM338 577l97 130h60l-108 -130h-49zM194 577l96 130h62l-109 -130h-49z" />
    <glyph glyph-name="Uogonek" unicode="&#x172;" horiz-adv-x="747" 
d="M495 -186q-48 0 -77 28.5t-29 70.5q0 43 24 78q-19 -3 -39 -3q-126 0 -203 81t-77 230v401h46v-401q0 -126 62.5 -196.5t171.5 -70.5q108 0 170.5 70.5t62.5 196.5v401h46v-401q0 -120 -43 -184.5t-114 -101.5q-69 -37 -69 -95q0 -31 21.5 -50.5t54.5 -19.5q19 0 40 6
v-34q-20 -6 -48 -6z" />
    <glyph glyph-name="uogonek" unicode="&#x173;" horiz-adv-x="606" 
d="M544 -193q-48 0 -77 28.5t-29 70.5q0 52 32 94v83q-32 -39 -85.5 -67t-117.5 -28q-91 0 -138 52t-47 147v290h45v-281q0 -51 14.5 -86t39 -51t48 -22.5t51.5 -6.5q55 0 109 33.5t81 77.5v336h45v-477q-39 -44 -39 -89q0 -31 21.5 -50.5t54.5 -19.5q19 0 40 6v-34
q-20 -6 -48 -6z" />
    <glyph glyph-name="Wcircumflex" unicode="&#x174;" horiz-adv-x="1041" 
d="M289 -4l-244 704h52l214 -627l190 629h39l191 -629l214 627h51l-244 -704h-42l-189 622l-192 -622h-40zM387 763l108 130h49l107 -130h-50l-82 99l-82 -99h-50z" />
    <glyph glyph-name="wcircumflex" unicode="&#x175;" horiz-adv-x="816" 
d="M219 -4l-175 481h47l150 -411l146 413h39l147 -413l149 411h46l-175 -481h-39l-149 413l-146 -413h-40zM274 576l108 130h49l107 -130h-50l-82 99l-82 -99h-50z" />
    <glyph glyph-name="Ycircumflex" unicode="&#x176;" horiz-adv-x="646" 
d="M299 0v324l-273 376h56l241 -332l242 332h53l-273 -375v-325h-46zM190 763l108 130h49l107 -130h-50l-82 99l-82 -99h-50z" />
    <glyph glyph-name="ycircumflex" unicode="&#x177;" horiz-adv-x="542" 
d="M101 -204q-44 0 -68 15v43q30 -16 63 -16q49 0 79.5 38.5t71.5 130.5l-221 470h51l193 -415l187 415h49l-241 -531q-33 -74 -71.5 -112t-92.5 -38zM146 576l108 130h49l107 -130h-50l-82 99l-82 -99h-50z" />
    <glyph glyph-name="Ydieresis" unicode="&#x178;" horiz-adv-x="646" 
d="M299 0v324l-273 376h56l241 -332l242 332h53l-273 -375v-325h-46zM382 825q0 15 10.5 25.5t25.5 10.5t25.5 -10.5t10.5 -25.5t-10.5 -25.5t-25.5 -10.5t-25.5 10.5t-10.5 25.5zM192 825q0 15 10.5 25.5t25.5 10.5t25.5 -10.5t10.5 -25.5t-10.5 -25.5t-25.5 -10.5
t-25.5 10.5t-10.5 25.5z" />
    <glyph glyph-name="Zacute" unicode="&#x179;" horiz-adv-x="639" 
d="M54 0v33l454 624h-427v43h488v-33l-450 -624h466v-43h-531zM284 763l96 130h61l-108 -130h-49z" />
    <glyph glyph-name="zacute" unicode="&#x17a;" horiz-adv-x="492" 
d="M38 0v31l334 405h-310v41h375v-32l-332 -404h348v-41h-415zM201 577l96 130h61l-108 -130h-49z" />
    <glyph glyph-name="Zdotaccent" unicode="&#x17b;" horiz-adv-x="639" 
d="M54 0v33l454 624h-427v43h488v-33l-450 -624h466v-43h-531zM281 825q0 16 11 27t27 11t27 -11t11 -27t-11 -27t-27 -11t-27 11t-11 27z" />
    <glyph glyph-name="zdotaccent" unicode="&#x17c;" horiz-adv-x="492" 
d="M38 0v31l334 405h-310v41h375v-32l-332 -404h348v-41h-415zM208 646q0 16 11 27t27 11t27 -11t11 -27t-11 -27t-27 -11t-27 11t-11 27z" />
    <glyph glyph-name="Zcaron" unicode="&#x17d;" horiz-adv-x="639" 
d="M54 0v33l454 624h-427v43h488v-33l-450 -624h466v-43h-531zM295 763l-107 130h49l82 -99l82 99h50l-108 -130h-48z" />
    <glyph glyph-name="zcaron" unicode="&#x17e;" horiz-adv-x="492" 
d="M38 0v31l334 405h-310v41h375v-32l-332 -404h348v-41h-415zM221 577l-107 130h49l82 -99l82 99h50l-108 -130h-48z" />
    <glyph glyph-name="longs" unicode="&#x17f;" horiz-adv-x="315" 
d="M172 0h-45v436h-99v41h99v80q0 150 125 150q52 0 93 -20v-43q-44 21 -83 21q-44 0 -67 -27t-23 -76v-562z" />
    <glyph glyph-name="florin" unicode="&#x192;" horiz-adv-x="469" 
d="M-4 -204q-44 0 -80 17v42q37 -17 74 -17q58 0 94.5 40t47.5 116l54 358h-139v41h145l20 128q28 186 178 186q50 0 83 -16v-44q-36 18 -76 18q-58 0 -93 -36t-48 -118l-18 -118h170v-41h-176l-57 -368q-14 -85 -58.5 -136.5t-120.5 -51.5z" />
    <glyph glyph-name="uni0218" unicode="&#x218;" horiz-adv-x="623" 
d="M304 -12q-78 0 -147.5 22t-108.5 53v53q40 -34 107.5 -59t144.5 -25q91 0 149.5 41t58.5 110q0 30 -12 54t-28 39t-48 29.5t-55.5 21.5t-66.5 19q-47 13 -74.5 22.5t-61 26t-51 34.5t-29.5 46t-12 64q0 74 61 123.5t171 49.5q122 0 212 -59v-49q-96 64 -210 64
q-93 0 -140.5 -38t-47.5 -92q0 -23 6.5 -41t21.5 -32.5t28 -24t39.5 -19.5t42.5 -15t48 -14l21 -6q44 -13 68.5 -21t60.5 -25.5t55 -36.5t33.5 -50t14.5 -70q0 -92 -73 -143.5t-178 -51.5zM236 -218l55 168h50l-65 -168h-40z" />
    <glyph glyph-name="uni0219" unicode="&#x219;" horiz-adv-x="500" 
d="M244 -12q-60 0 -114 15t-83 36v49q86 -58 196 -58q70 0 111.5 25.5t41.5 68.5q0 21 -11 36.5t-33 26.5t-44 17.5t-55 15.5q-13 3 -20 5q-31 8 -52 14.5t-45.5 18t-39 24.5t-24.5 33t-10 45q0 59 48 94t136 35q105 0 172 -44v-46q-79 48 -169 48q-70 0 -105.5 -24
t-35.5 -63q0 -18 9 -32.5t20 -23t34 -17.5t37.5 -13t44.5 -11q38 -9 56 -14t49 -17t45.5 -25t26.5 -34.5t12 -49.5q0 -62 -56.5 -98.5t-141.5 -36.5zM173 -218l55 168h50l-65 -168h-40z" />
    <glyph glyph-name="uni021A" unicode="&#x21a;" horiz-adv-x="620" 
d="M287 0v657h-251v43h548v-43h-251v-657h-46zM228 -218l55 168h50l-65 -168h-40z" />
    <glyph glyph-name="uni021B" unicode="&#x21b;" horiz-adv-x="422" 
d="M274 -12q-62 0 -93 36.5t-31 100.5v311h-122v41h122v154h45v-154h178v-41h-178v-299q0 -58 21.5 -82.5t68.5 -24.5q42 0 81 22v-42q-31 -22 -92 -22zM195 -218l55 168h50l-65 -168h-40z" />
    <glyph glyph-name="circumflex" unicode="&#x2c6;" horiz-adv-x="527" 
d="M132 576l108 130h49l107 -130h-50l-82 99l-82 -99h-50z" />
    <glyph glyph-name="caron" unicode="&#x2c7;" horiz-adv-x="521" 
d="M230 577l-107 130h49l82 -99l82 99h50l-108 -130h-48z" />
    <glyph glyph-name="uni02C9" unicode="&#x2c9;" horiz-adv-x="518" 
d="M94 625v38h330v-38h-330z" />
    <glyph glyph-name="breve" unicode="&#x2d8;" horiz-adv-x="512" 
d="M255 578q-52 0 -89.5 37t-38.5 92h40q1 -39 26 -65t62 -26t62.5 26.5t26.5 64.5h39q0 -55 -37.5 -92t-90.5 -37z" />
    <glyph glyph-name="dotaccent" unicode="&#x2d9;" horiz-adv-x="534" 
d="M229 646q0 16 11 27t27 11t27 -11t11 -27t-11 -27t-27 -11t-27 11t-11 27z" />
    <glyph glyph-name="ring" unicode="&#x2da;" horiz-adv-x="530" 
d="M262 552q-40 0 -67.5 27.5t-27.5 65.5t27.5 65.5t67.5 27.5q37 0 64 -27.5t27 -65.5t-27 -65.5t-64 -27.5zM262 585q25 0 42.5 17.5t17.5 42.5q0 26 -17.5 43.5t-42.5 17.5q-26 0 -44 -17.5t-18 -43.5q0 -25 18 -42.5t44 -17.5z" />
    <glyph glyph-name="ogonek" unicode="&#x2db;" horiz-adv-x="516" 
d="M308 -186q-48 0 -77 28.5t-29 70.5q0 52 37 94h40q-39 -44 -39 -89q0 -31 21.5 -50.5t54.5 -19.5q19 0 40 6v-34q-20 -6 -48 -6z" />
    <glyph glyph-name="tilde" unicode="&#x2dc;" horiz-adv-x="519" 
d="M332 593q-28 0 -75.5 31.5t-67.5 31.5q-37 0 -41 -57h-36q2 44 22.5 70.5t53.5 26.5q28 0 75.5 -31t65.5 -31q36 0 42 57h36q-2 -44 -22 -71t-53 -27z" />
    <glyph glyph-name="hungarumlaut" unicode="&#x2dd;" horiz-adv-x="550" 
d="M277 577l97 130h60l-108 -130h-49zM133 577l96 130h62l-109 -130h-49z" />
    <glyph glyph-name="acutecomb" unicode="&#x301;" horiz-adv-x="20" 
d="M-306 577l96 130h61l-108 -130h-49z" />
    <glyph glyph-name="uni037E" unicode="&#x37e;" horiz-adv-x="222" 
d="M23 -152l76 239h56l-93 -239h-39zM75 424q0 16 11 27t27 11t27 -11t11 -27t-11 -27t-27 -11t-27 11t-11 27z" />
    <glyph glyph-name="uni0394" unicode="&#x394;" horiz-adv-x="743" 
d="M33 0l318 700h43l316 -700h-677zM99 43h545l-272 600z" />
    <glyph glyph-name="uni03A9" unicode="&#x3a9;" horiz-adv-x="805" 
d="M113 0v43h125q-57 57 -93 140.5t-36 179.5q0 153 82 251t211 98q131 0 213 -97.5t82 -251.5q0 -96 -36.5 -179.5t-93.5 -140.5h125v-43h-186v37q60 51 102 137t42 183q0 138 -70 224.5t-178 86.5q-106 0 -176 -86.5t-70 -224.5q0 -97 41.5 -182.5t101.5 -137.5v-37h-186z
" />
    <glyph glyph-name="uni03BC" unicode="&#x3bc;" horiz-adv-x="614" 
d="M90 -200v677h45v-281q0 -51 14.5 -86t39 -51t48 -22.5t51.5 -6.5q55 0 109 33.5t81 77.5v336h45v-477h-45v83q-32 -39 -85.5 -67t-117.5 -28q-92 0 -140 54v-242h-45z" />
    <glyph glyph-name="pi" unicode="&#x3c0;" horiz-adv-x="673" 
d="M561 -5q-97 0 -97 122v319h-282v-436h-45v436h-92v41h562v-41h-98v-306q0 -50 15 -71.5t48 -21.5q21 0 35 7v-40q-17 -9 -46 -9z" />
    <glyph glyph-name="uni0401" unicode="&#x401;" horiz-adv-x="637" 
d="M105 0v700h468v-43h-422v-259h349v-43h-349v-312h438v-43h-484zM405 825q0 15 10.5 25.5t25.5 10.5t25.5 -10.5t10.5 -25.5t-10.5 -25.5t-25.5 -10.5t-25.5 10.5t-10.5 25.5zM215 825q0 15 10.5 25.5t25.5 10.5t25.5 -10.5t10.5 -25.5t-10.5 -25.5t-25.5 -10.5
t-25.5 10.5t-10.5 25.5z" />
    <glyph glyph-name="uni0402" unicode="&#x402;" horiz-adv-x="746" 
d="M478 -12q-62 0 -114 19v45q50 -20 109 -20q80 0 127 44.5t47 117.5q0 69 -54.5 119t-150.5 50q-112 0 -211 -49v-314h-46v657h-149v43h473v-43h-278v-296q101 46 219 46q108 0 175.5 -60t67.5 -154q0 -91 -58.5 -148t-156.5 -57z" />
    <glyph glyph-name="uni0403" unicode="&#x403;" horiz-adv-x="596" 
d="M105 0v700h454v-43h-408v-657h-46zM286 763l96 130h61l-108 -130h-49z" />
    <glyph glyph-name="uni0404" unicode="&#x404;" horiz-adv-x="691" 
d="M426 -12q-150 0 -250.5 103t-100.5 259q0 155 100.5 258.5t250.5 103.5q113 0 198 -55v-50q-91 61 -199 61q-121 0 -206 -81.5t-93 -207.5h349v-43h-351q4 -131 91 -217.5t211 -86.5q127 0 215 73v-51q-85 -66 -215 -66z" />
    <glyph glyph-name="uni0405" unicode="&#x405;" horiz-adv-x="623" 
d="M304 -12q-78 0 -147.5 22t-108.5 53v53q40 -34 107.5 -59t144.5 -25q91 0 149.5 41t58.5 110q0 30 -12 54t-28 39t-48 29.5t-55.5 21.5t-66.5 19q-47 13 -74.5 22.5t-61 26t-51 34.5t-29.5 46t-12 64q0 74 61 123.5t171 49.5q122 0 212 -59v-49q-96 64 -210 64
q-93 0 -140.5 -38t-47.5 -92q0 -23 6.5 -41t21.5 -32.5t28 -24t39.5 -19.5t42.5 -15t48 -14l21 -6q44 -13 68.5 -21t60.5 -25.5t55 -36.5t33.5 -50t14.5 -70q0 -92 -73 -143.5t-178 -51.5z" />
    <glyph glyph-name="uni0406" unicode="&#x406;" horiz-adv-x="269" 
d="M112 0v700h46v-700h-46z" />
    <glyph glyph-name="uni0407" unicode="&#x407;" horiz-adv-x="268" 
d="M111 0v700h46v-700h-46zM193 825q0 15 10.5 25.5t25.5 10.5t25.5 -10.5t10.5 -25.5t-10.5 -25.5t-25.5 -10.5t-25.5 10.5t-10.5 25.5zM3 825q0 15 10.5 25.5t25.5 10.5t25.5 -10.5t10.5 -25.5t-10.5 -25.5t-25.5 -10.5t-25.5 10.5t-10.5 25.5z" />
    <glyph glyph-name="uni0408" unicode="&#x408;" horiz-adv-x="503" 
d="M195 -12q-93 0 -158 47v51q60 -54 151 -54q173 0 173 182v486h46v-493q0 -109 -55.5 -164t-156.5 -55z" />
    <glyph glyph-name="uni0409" unicode="&#x409;" horiz-adv-x="1117" 
d="M563 0v657h-314l-5 -166q-2 -83 -6.5 -144.5t-13.5 -120t-24 -98t-36.5 -70t-53 -45t-72.5 -14.5q-17 0 -24 1v44q7 -1 27 -1q33 0 58.5 16t42 50t27.5 72t17 98.5t8.5 113t4.5 129.5l4 178h406v-275h212q115 0 179 -58.5t64 -153.5q0 -97 -64 -155t-179 -58h-258z
M609 43h209q95 0 147.5 44.5t52.5 125.5q0 80 -52.5 124.5t-147.5 44.5h-209v-339z" />
    <glyph glyph-name="uni040A" unicode="&#x40a;" horiz-adv-x="1142" 
d="M105 0v700h46v-275h437v275h46v-275h213q114 0 178 -58.5t64 -153.5q0 -97 -63.5 -155t-178.5 -58h-259v382h-437v-382h-46zM634 43h209q96 0 148 44.5t52 125.5q0 80 -52 124.5t-148 44.5h-209v-339z" />
    <glyph glyph-name="uni040B" unicode="&#x40b;" horiz-adv-x="768" 
d="M185 0v657h-149v43h473v-43h-278v-291q111 41 222 41q118 0 178.5 -47t60.5 -162v-198h-46v183q0 102 -47.5 141t-160.5 39q-104 0 -207 -43v-320h-46z" />
    <glyph glyph-name="uni040C" unicode="&#x40c;" horiz-adv-x="638" 
d="M105 0v700h46v-309l356 309h65l-369 -321l425 -379h-70l-407 364v-364h-46zM276 763l96 130h61l-108 -130h-49z" />
    <glyph glyph-name="uni040E" unicode="&#x40e;" horiz-adv-x="633" 
d="M169 -12q-43 0 -78 13v44q33 -13 71 -13q48 0 80.5 36t66.5 112l4 9l-285 511h53l256 -461l212 461h51l-258 -553q-41 -88 -81 -123.5t-92 -35.5zM316 755q-71 0 -113.5 39t-43.5 104h41q0 -47 31.5 -76t84.5 -29q51 0 82.5 29.5t31.5 75.5h41q-1 -64 -44.5 -103.5
t-110.5 -39.5z" />
    <glyph glyph-name="uni040F" unicode="&#x40f;" horiz-adv-x="741" 
d="M347 -161v161h-242v700h46v-657h438v657h46v-700h-244v-161h-44z" />
    <glyph glyph-name="uni0410" unicode="&#x410;" horiz-adv-x="743" 
d="M33 0l318 704h43l316 -704h-48l-93 206h-394l-93 -206h-49zM191 246h361l-180 398z" />
    <glyph glyph-name="uni0411" unicode="&#x411;" horiz-adv-x="698" 
d="M105 0v700h467v-43h-421v-233h234q114 0 178 -58.5t64 -153.5q0 -96 -63.5 -154t-178.5 -58h-280zM151 43h230q95 0 147 44t52 125q0 80 -52.5 124.5t-146.5 44.5h-230v-338z" />
    <glyph glyph-name="uni0412" unicode="&#x412;" horiz-adv-x="719" 
d="M105 0v700h294q92 0 144 -45t52 -124q0 -115 -97 -150q75 -11 117.5 -61t42.5 -126q0 -88 -59.5 -141t-165.5 -53h-328zM151 43h275q87 0 134.5 40.5t47.5 114.5t-47.5 114.5t-134.5 40.5h-275v-310zM151 393h242q75 0 116 34.5t41 97.5t-41 97.5t-116 34.5h-242v-264z
" />
    <glyph glyph-name="uni0413" unicode="&#x413;" horiz-adv-x="596" 
d="M105 0v700h454v-43h-408v-657h-46z" />
    <glyph glyph-name="uni0414" unicode="&#x414;" horiz-adv-x="770" 
d="M18 -161v204h65q71 98 102.5 224t31.5 360v73h409v-657h110v-204h-44v161h-630v-161h-44zM137 43h443v614h-317v-47q0 -200 -29 -337t-97 -230z" />
    <glyph glyph-name="uni0415" unicode="&#x415;" horiz-adv-x="637" 
d="M105 0v700h468v-43h-422v-259h349v-43h-349v-312h438v-43h-484z" />
    <glyph glyph-name="uni0416" unicode="&#x416;" horiz-adv-x="940" 
d="M25 0l374 371l-334 329h61l320 -317v317h46v-319l322 319h61l-335 -329l375 -371h-63l-360 356v-356h-46v355l-358 -355h-63z" />
    <glyph glyph-name="uni0417" unicode="&#x417;" horiz-adv-x="613" 
d="M277 -12q-131 0 -229 51v48q99 -55 221 -55q109 0 172 46t63 122q0 69 -57.5 115t-154.5 46h-86v43h91q80 0 127 35.5t47 98.5q0 62 -52.5 96t-134.5 34q-103 0 -203 -46v45q102 45 205 45q100 0 165 -46t65 -127q0 -66 -39.5 -104t-85.5 -50q27 -7 53.5 -20.5
t51.5 -35.5t40.5 -56t15.5 -75q0 -92 -74 -151t-201 -59z" />
    <glyph glyph-name="uni0418" unicode="&#x418;" horiz-adv-x="772" 
d="M105 0v700h46v-622l473 622h42v-700h-46v624l-475 -624h-40z" />
    <glyph glyph-name="uni0419" unicode="&#x419;" horiz-adv-x="772" 
d="M105 0v700h46v-622l473 622h42v-700h-46v624l-475 -624h-40zM386 755q-71 0 -113.5 39t-43.5 104h41q0 -47 31.5 -76t84.5 -29q51 0 82.5 29.5t31.5 75.5h41q-1 -64 -44.5 -103.5t-110.5 -39.5z" />
    <glyph glyph-name="uni041A" unicode="&#x41a;" horiz-adv-x="638" 
d="M105 0v700h46v-309l356 309h65l-369 -321l425 -379h-70l-407 364v-364h-46z" />
    <glyph glyph-name="uni041B" unicode="&#x41b;" horiz-adv-x="725" 
d="M203 700h416v-700h-46v657h-324l-5 -166q-2 -84 -6.5 -144.5t-13.5 -119.5t-23.5 -98.5t-36.5 -70t-53.5 -45t-72.5 -14.5q-17 0 -24 1v44q9 -1 27 -1q33 0 58.5 16t42 50t27.5 72t17 98.5t8.5 113t4.5 129.5z" />
    <glyph glyph-name="uni041C" unicode="&#x41c;" horiz-adv-x="847" 
d="M105 0v700h47l272 -357l272 357h45v-700h-46v629l-256 -336h-30l-258 336v-629h-46z" />
    <glyph glyph-name="uni041D" unicode="&#x41d;" horiz-adv-x="760" 
d="M105 0v700h46v-302h457v302h46v-700h-46v355h-457v-355h-46z" />
    <glyph glyph-name="uni041E" unicode="&#x41e;" horiz-adv-x="846" 
d="M423 32q127 0 214 91t87 227t-87 227t-214 91t-214 -91t-87 -227t87 -227t214 -91zM423 -12q-149 0 -248.5 103t-99.5 259q0 155 99.5 258.5t248.5 103.5q148 0 248 -103.5t100 -258.5t-100 -258.5t-248 -103.5z" />
    <glyph glyph-name="uni041F" unicode="&#x41f;" horiz-adv-x="746" 
d="M105 0v700h535v-700h-46v657h-443v-657h-46z" />
    <glyph glyph-name="uni0420" unicode="&#x420;" horiz-adv-x="665" 
d="M105 0v700h291q102 0 159 -51.5t57 -136.5t-57 -137t-159 -52h-245v-323h-46zM151 366h241q83 0 128.5 38t45.5 108q0 69 -45.5 107t-128.5 38h-241v-291z" />
    <glyph glyph-name="uni0421" unicode="&#x421;" horiz-adv-x="693" 
d="M427 -12q-150 0 -251 102.5t-101 259.5t101 259.5t251 102.5q114 0 200 -55v-50q-91 61 -199 61q-129 0 -217.5 -90.5t-88.5 -227.5t88.5 -227.5t218.5 -90.5q124 0 214 73v-51q-87 -66 -216 -66z" />
    <glyph glyph-name="uni0422" unicode="&#x422;" horiz-adv-x="620" 
d="M287 0v657h-251v43h548v-43h-251v-657h-46z" />
    <glyph glyph-name="uni0423" unicode="&#x423;" horiz-adv-x="629" 
d="M165 -12q-43 0 -78 13v44q33 -13 71 -13q48 0 80.5 36t66.5 112l4 9l-285 511h53l256 -461l212 461h51l-258 -553q-41 -88 -81 -123.5t-92 -35.5z" />
    <glyph glyph-name="uni0424" unicode="&#x424;" horiz-adv-x="901" 
d="M428 -18v69q-90 1 -159.5 25.5t-111 66.5t-62 94t-20.5 112q0 126 89 213.5t264 88.5v64h46v-64q90 0 159 -25.5t110.5 -68t62 -95t20.5 -111.5q0 -60 -20.5 -112t-62 -94.5t-110.5 -67.5t-159 -26v-69h-46zM428 94v514q-82 0 -143.5 -23t-95.5 -61.5t-50.5 -81.5
t-16.5 -91t16.5 -91.5t50.5 -81.5t95.5 -61t143.5 -23zM474 94q82 0 143.5 23t95.5 61t50 81.5t16 91.5t-16 91t-50 81.5t-95.5 61.5t-143.5 23v-514z" />
    <glyph glyph-name="uni0425" unicode="&#x425;" horiz-adv-x="698" 
d="M38 0l283 380l-238 320h56l211 -282l211 282h55l-239 -319l286 -381h-57l-257 343l-257 -343h-54z" />
    <glyph glyph-name="uni0426" unicode="&#x426;" horiz-adv-x="779" 
d="M701 -161v161h-596v700h46v-657h438v657h46v-657h110v-204h-44z" />
    <glyph glyph-name="uni0427" unicode="&#x427;" horiz-adv-x="689" 
d="M537 0v332q-109 -41 -222 -41q-118 0 -179 47.5t-61 162.5v199h46v-184q0 -102 48 -141.5t160 -39.5q101 0 208 44v321h46v-700h-46z" />
    <glyph glyph-name="uni0428" unicode="&#x428;" horiz-adv-x="1011" 
d="M905 700v-700h-800v700h46v-657h331v657h46v-657h331v657h46z" />
    <glyph glyph-name="uni0429" unicode="&#x429;" horiz-adv-x="1050" 
d="M972 -161v161h-867v700h46v-657h331v657h46v-657h331v657h46v-657h111v-204h-44z" />
    <glyph glyph-name="uni042A" unicode="&#x42a;" horiz-adv-x="785" 
d="M212 0v657h-198v43h244v-275h231q115 0 179 -58.5t64 -153.5q0 -96 -64 -154.5t-179 -58.5h-277zM258 43h227q95 0 147.5 44.5t52.5 125.5q0 80 -52.5 124.5t-147.5 44.5h-227v-339z" />
    <glyph glyph-name="uni042B" unicode="&#x42b;" horiz-adv-x="869" 
d="M105 0v700h46v-275h207q115 0 179 -58.5t64 -153.5q0 -97 -64 -155t-179 -58h-253zM151 43h204q95 0 147.5 44.5t52.5 125.5q0 80 -52.5 124.5t-147.5 44.5h-204v-339zM717 0v700h46v-700h-46z" />
    <glyph glyph-name="uni042C" unicode="&#x42c;" horiz-adv-x="678" 
d="M105 0v700h46v-275h231q115 0 179 -58.5t64 -153.5q0 -97 -64 -155t-179 -58h-277zM151 43h228q95 0 147.5 44.5t52.5 125.5q0 80 -52.5 124.5t-147.5 44.5h-228v-339z" />
    <glyph glyph-name="uni042D" unicode="&#x42d;" horiz-adv-x="691" 
d="M265 -12q-129 0 -215 66v51q88 -73 215 -73q124 0 211 86.5t91 217.5h-351v43h349q-8 126 -93 207.5t-206 81.5q-108 0 -199 -61v50q85 55 198 55q150 0 250.5 -103.5t100.5 -258.5q0 -156 -100.5 -259t-250.5 -103z" />
    <glyph glyph-name="uni042E" unicode="&#x42e;" horiz-adv-x="1036" 
d="M636 -12q-137 0 -227.5 99.5t-95.5 250.5h-162v-338h-46v700h46v-319h163q9 143 100 237t222 94q139 0 232 -103.5t93 -258.5t-93 -258.5t-232 -103.5zM636 32q117 0 198 88t81 230t-81 230t-198 88q-116 0 -196.5 -88t-80.5 -230t80.5 -230t196.5 -88z" />
    <glyph glyph-name="uni042F" unicode="&#x42f;" horiz-adv-x="735" 
d="M52 0l229 332q-83 10 -128.5 59.5t-45.5 124.5q0 84 56.5 134t156.5 50h309v-700h-46v329h-250l-228 -329h-53zM323 372h260v285h-260q-80 0 -125 -37.5t-45 -104.5q0 -69 44.5 -106t125.5 -37z" />
    <glyph glyph-name="uni0430" unicode="&#x430;" horiz-adv-x="589" 
d="M246 30q60 0 109.5 28t78.5 67v79q-85 56 -175 56q-76 0 -119.5 -31.5t-43.5 -83.5q0 -58 43.5 -86.5t106.5 -28.5zM233 -12q-75 0 -129.5 41.5t-54.5 114.5q0 71 56.5 113.5t141.5 42.5q101 0 187 -52v63q0 69 -44.5 102.5t-125.5 33.5q-86 0 -162 -51v46q72 47 170 47
q93 0 150 -43.5t57 -130.5v-212q0 -31 14 -49.5t38 -18.5q16 0 28 6v-37q-13 -8 -39 -8q-32 0 -55.5 21t-26.5 62q-78 -91 -205 -91z" />
    <glyph glyph-name="uni0431" unicode="&#x431;" horiz-adv-x="614" 
d="M322 -12q-119 0 -188 85.5t-69 233.5q0 52 7.5 95t15.5 76t32.5 61.5t37.5 46.5t52.5 36.5t55 27t68.5 22t70 17t80 16.5q16 3 24 5v-45q-158 -34 -168 -36q-114 -26 -171.5 -94t-59.5 -206q30 58 89 93t137 35q94 0 159 -63t65 -162q0 -107 -69 -175.5t-168 -68.5z
M323 30q78 0 134.5 56t56.5 144q0 83 -55.5 134t-132.5 51q-74 0 -131.5 -44t-81.5 -103q5 -110 60 -174t150 -64z" />
    <glyph glyph-name="uni0432" unicode="&#x432;" horiz-adv-x="571" 
d="M90 0v477h243q67 0 103.5 -33t36.5 -87q0 -80 -62 -106q94 -27 94 -124q0 -58 -40 -92.5t-112 -34.5h-263zM135 41h209q55 0 85 24t30 68t-30 68t-85 24h-209v-184zM135 266h186q51 0 78.5 22t27.5 63t-27.5 63t-78.5 22h-186v-170z" />
    <glyph glyph-name="uni0433" unicode="&#x433;" horiz-adv-x="481" 
d="M90 0v477h349v-41h-304v-436h-45z" />
    <glyph glyph-name="uni0434" unicode="&#x434;" horiz-adv-x="633" 
d="M21 -149v190h59q91 113 91 378l1 58h336v-436h92v-190h-44v149h-491v-149h-44zM132 41h331v395h-248v-34q0 -238 -83 -361z" />
    <glyph glyph-name="uni0435" unicode="&#x435;" horiz-adv-x="567" 
d="M315 -12q-112 0 -186 70.5t-74 179.5q0 108 66 179.5t171 71.5q60 0 105 -24t68.5 -62.5t35 -77.5t11.5 -78v-15h-412q2 -90 63.5 -146t157.5 -56q87 0 154 45v-44q-57 -43 -160 -43zM101 271h366q0 28 -10 57t-29.5 56.5t-55 45t-81.5 17.5q-84 0 -134.5 -53.5
t-55.5 -122.5z" />
    <glyph glyph-name="uni0436" unicode="&#x436;" horiz-adv-x="722" 
d="M28 0l266 256l-241 221h60l226 -210v210h44v-209l226 209h60l-240 -221l265 -256h-63l-248 240v-240h-44v241l-249 -241h-62z" />
    <glyph glyph-name="uni0437" unicode="&#x437;" horiz-adv-x="516" 
d="M236 -12q-98 0 -172 34v45q76 -37 167 -37q79 0 127 28t48 77q0 46 -41 72t-107 26h-80v41h80q65 0 97 25t32 59q0 44 -40.5 66.5t-108.5 22.5q-82 0 -159 -32v44q73 30 166 30q81 0 134 -33.5t53 -90.5q0 -78 -89 -109q109 -30 109 -124q0 -65 -58.5 -104.5
t-157.5 -39.5z" />
    <glyph glyph-name="uni0438" unicode="&#x438;" horiz-adv-x="609" 
d="M90 0v477h45v-409l342 409h41v-477h-45v408l-341 -408h-42z" />
    <glyph glyph-name="uni0439" unicode="&#x439;" horiz-adv-x="609" 
d="M90 0v477h45v-409l342 409h41v-477h-45v408l-341 -408h-42zM303 558q-70 0 -112.5 39.5t-42.5 102.5h41q0 -45 31 -74.5t83 -29.5q50 0 81 29.5t31 74.5h41q0 -62 -44 -102t-109 -40z" />
    <glyph glyph-name="uni043A" unicode="&#x43a;" horiz-adv-x="516" 
d="M90 0v477h45v-201l251 201h66l-269 -216l305 -261h-68l-285 244v-244h-45z" />
    <glyph glyph-name="uni043B" unicode="&#x43b;" horiz-adv-x="587" 
d="M160 477h336v-477h-45v436h-247l-3 -101q-2 -73 -8 -122.5t-22 -103.5t-49.5 -82t-83.5 -28q-11 0 -18 1v42q8 -1 20 -1q34 0 57.5 24t35 69t16.5 88.5t7 101.5z" />
    <glyph glyph-name="uni043C" unicode="&#x43c;" horiz-adv-x="691" 
d="M90 0v477h43l212 -240l212 240h43v-477h-45v413l-202 -229h-17l-201 229v-413h-45z" />
    <glyph glyph-name="uni043D" unicode="&#x43d;" horiz-adv-x="604" 
d="M90 0v477h45v-211h333v211h45v-477h-45v225h-333v-225h-45z" />
    <glyph glyph-name="uni043E" unicode="&#x43e;" horiz-adv-x="616" 
d="M308 30q88 0 147.5 59.5t59.5 148.5t-59.5 149t-147.5 60t-147.5 -60t-59.5 -149t59.5 -148.5t147.5 -59.5zM308 -12q-112 0 -182.5 73.5t-70.5 176.5t70.5 177t182.5 74t182.5 -74t70.5 -177t-70.5 -176.5t-182.5 -73.5z" />
    <glyph glyph-name="uni043F" unicode="&#x43f;" horiz-adv-x="596" 
d="M90 0v477h415v-477h-45v436h-325v-436h-45z" />
    <glyph glyph-name="uni0440" unicode="&#x440;" horiz-adv-x="630" 
d="M332 489q108 0 175.5 -73.5t67.5 -176.5t-67.5 -177t-175.5 -74q-126 0 -197 97v-285h-45v677h45v-84q70 96 197 96zM324 447q-62 0 -114 -33t-75 -85v-180q24 -52 76 -85.5t113 -33.5q88 0 146.5 60t58.5 149t-58.5 148.5t-146.5 59.5z" />
    <glyph glyph-name="uni0441" unicode="&#x441;" horiz-adv-x="524" 
d="M306 -12q-109 0 -180 73t-71 178q0 104 71 177t181 73q80 0 144 -37v-44q-67 39 -139 39q-90 0 -150.5 -60t-60.5 -149t60.5 -148.5t150.5 -59.5q84 0 148 45v-45q-63 -42 -154 -42z" />
    <glyph glyph-name="uni0442" unicode="&#x442;" horiz-adv-x="467" 
d="M211 0v436h-182v41h409v-41h-182v-436h-45z" />
    <glyph glyph-name="uni0443" unicode="&#x443;" horiz-adv-x="542" 
d="M101 -204q-44 0 -68 15v43q30 -16 63 -16q49 0 79.5 38.5t71.5 130.5l-221 470h51l193 -415l187 415h49l-241 -531q-33 -74 -71.5 -112t-92.5 -38z" />
    <glyph glyph-name="uni0444" unicode="&#x444;" horiz-adv-x="714" 
d="M334 -196v187q-128 1 -203.5 68t-75.5 179q0 113 75 179.5t204 68.5v214h45v-214q129 -2 204.5 -68.5t75.5 -179.5q0 -111 -76 -178.5t-204 -68.5v-187h-45zM379 32q102 0 168.5 53t66.5 153t-66.5 153.5t-168.5 53.5v-413zM334 32v413q-101 0 -168 -53.5t-67 -153.5
t67 -153t168 -53z" />
    <glyph glyph-name="uni0445" unicode="&#x445;" horiz-adv-x="543" 
d="M37 0l209 254l-182 223h56l154 -188l155 188h53l-181 -221l209 -256h-57l-181 221l-181 -221h-54z" />
    <glyph glyph-name="uni0446" unicode="&#x446;" horiz-adv-x="626" 
d="M549 -149v149h-459v477h45v-436h321v436h45v-436h92v-190h-44z" />
    <glyph glyph-name="uni0447" unicode="&#x447;" horiz-adv-x="556" 
d="M420 0v205q-78 -34 -166 -34q-95 0 -142 42.5t-47 141.5v122h45v-118q0 -81 36.5 -113.5t119.5 -32.5q82 0 154 36v228h45v-477h-45z" />
    <glyph glyph-name="uni0448" unicode="&#x448;" horiz-adv-x="812" 
d="M90 0v477h45v-436h248v436h45v-436h248v436h45v-477h-631z" />
    <glyph glyph-name="uni0449" unicode="&#x449;" horiz-adv-x="847" 
d="M772 -149v149h-682v477h45v-436h248v436h45v-436h248v436h45v-436h93v-190h-42z" />
    <glyph glyph-name="uni044A" unicode="&#x44a;" horiz-adv-x="629" 
d="M166 0v436h-150v41h195v-173h189q82 0 128 -41t46 -110t-45 -111t-128 -42h-235zM211 41h183q64 0 99 29t35 82t-35 82t-99 29h-183v-222z" />
    <glyph glyph-name="uni044B" unicode="&#x44b;" horiz-adv-x="695" 
d="M559 0v477h45v-477h-45zM90 0v477h45v-173h161q82 0 128 -41t46 -110t-45 -111t-128 -42h-207zM135 41h154q64 0 99.5 29t35.5 82t-35.5 82t-99.5 29h-154v-222z" />
    <glyph glyph-name="uni044C" unicode="&#x44c;" horiz-adv-x="553" 
d="M90 0v477h45v-173h188q82 0 128.5 -41t46.5 -110t-45.5 -111t-127.5 -42h-235zM135 41h182q64 0 99.5 29.5t35.5 81.5t-35.5 81.5t-99.5 29.5h-182v-222z" />
    <glyph glyph-name="uni044D" unicode="&#x44d;" horiz-adv-x="522" 
d="M216 -12q-88 0 -153 42v45q64 -45 148 -45q86 0 145.5 54t64.5 136h-254v41h254q-8 81 -66.5 133.5t-143.5 52.5q-71 0 -138 -38v43q62 37 143 37q109 0 180 -73t71 -177q0 -105 -71 -178t-180 -73z" />
    <glyph glyph-name="uni044E" unicode="&#x44e;" horiz-adv-x="790" 
d="M501 -12q-96 0 -161 65.5t-72 165.5h-133v-219h-45v477h45v-217h134q6 99 71 164t161 65q102 0 168 -71.5t66 -179.5q0 -107 -66.5 -178.5t-167.5 -71.5zM501 30q82 0 135.5 59.5t53.5 148.5q0 90 -53.5 149.5t-135.5 59.5q-83 0 -136.5 -59.5t-53.5 -149.5
q0 -89 53.5 -148.5t136.5 -59.5z" />
    <glyph glyph-name="uni044F" unicode="&#x44f;" horiz-adv-x="567" 
d="M53 0l151 195q-64 6 -98.5 43.5t-34.5 97.5q0 63 42.5 102t121.5 39h241v-477h-45v189h-179l-145 -189h-54zM241 230h190v206h-190q-59 0 -91.5 -27t-32.5 -76q0 -48 32.5 -75.5t91.5 -27.5z" />
    <glyph glyph-name="uni0451" unicode="&#x451;" horiz-adv-x="567" 
d="M315 -12q-112 0 -186 70.5t-74 179.5q0 108 66 179.5t171 71.5q60 0 105 -24t68.5 -62.5t35 -77.5t11.5 -78v-15h-412q2 -90 63.5 -146t157.5 -56q87 0 154 45v-44q-57 -43 -160 -43zM101 271h366q0 28 -10 57t-29.5 56.5t-55 45t-81.5 17.5q-84 0 -134.5 -53.5
t-55.5 -122.5zM350 621q0 15 10.5 25.5t25.5 10.5t25.5 -10.5t10.5 -25.5t-10.5 -25.5t-25.5 -10.5t-25.5 10.5t-10.5 25.5zM160 621q0 15 10.5 25.5t25.5 10.5t25.5 -10.5t10.5 -25.5t-10.5 -25.5t-25.5 -10.5t-25.5 10.5t-10.5 25.5z" />
    <glyph glyph-name="uni0452" unicode="&#x452;" horiz-adv-x="632" 
d="M299 545h-136v-208q32 39 85.5 67t117.5 28q91 0 138 -52t47 -147v-233h-45v224q0 51 -14.5 86t-39 51t-48 22.5t-51.5 6.5q-55 0 -109 -33.5t-81 -77.5v-279h-45v545h-102v41h102v114h45v-114h136v-41zM551 0h-45v-59q0 -103 -89 -103q-36 0 -69 19v-43q30 -18 77 -18
q55 0 90.5 32t35.5 105v67z" />
    <glyph glyph-name="uni0453" unicode="&#x453;" horiz-adv-x="481" 
d="M214 577l96 130h61l-108 -130h-49zM90 0v477h349v-41h-304v-436h-45z" />
    <glyph glyph-name="uni0454" unicode="&#x454;" horiz-adv-x="523" 
d="M306 -12q-109 0 -180 73t-71 178q0 104 71 177t180 73q81 0 143 -37v-43q-67 38 -138 38q-85 0 -143.5 -52.5t-66.5 -133.5h254v-41h-254q5 -82 64.5 -136t145.5 -54q84 0 148 45v-45q-65 -42 -153 -42z" />
    <glyph glyph-name="uni0455" unicode="&#x455;" horiz-adv-x="497" 
d="M243 -12q-60 0 -114 15t-83 36v49q86 -58 196 -58q70 0 111.5 25.5t41.5 68.5q0 21 -11 36.5t-33 26.5t-44 17.5t-55 15.5q-13 3 -20 5q-31 8 -52 14.5t-45.5 18t-39 24.5t-24.5 33t-10 45q0 59 48 94t136 35q105 0 172 -44v-46q-79 48 -169 48q-70 0 -105.5 -24
t-35.5 -63q0 -18 9 -32.5t20 -23t34 -17.5t37.5 -13t44.5 -11q38 -9 56 -14t49 -17t45.5 -25t26.5 -34.5t12 -49.5q0 -62 -56.5 -98.5t-141.5 -36.5z" />
    <glyph glyph-name="uni0456" unicode="&#x456;" horiz-adv-x="249" 
d="M104 0v477h45v-477h-45zM126 608q-16 0 -27 11t-11 27t11 27t27 11t27 -11t11 -27t-11 -27t-27 -11z" />
    <glyph glyph-name="uni0457" unicode="&#x457;" horiz-adv-x="252" 
d="M185 645q0 15 10.5 25.5t25.5 10.5t25.5 -10.5t10.5 -25.5t-10.5 -25.5t-25.5 -10.5t-25.5 10.5t-10.5 25.5zM-5 645q0 15 10.5 25.5t25.5 10.5t25.5 -10.5t10.5 -25.5t-10.5 -25.5t-25.5 -10.5t-25.5 10.5t-10.5 25.5zM104 0v477h45v-477h-45z" />
    <glyph glyph-name="uni0458" unicode="&#x458;" horiz-adv-x="253" 
d="M23 -204q55 0 90.5 32t35.5 105v544h-45v-536q0 -103 -89 -103q-36 0 -69 19v-43q30 -18 77 -18zM126 608q-16 0 -27 11t-11 27t11 27t27 11t27 -11t11 -27t-11 -27t-27 -11z" />
    <glyph glyph-name="uni0459" unicode="&#x459;" horiz-adv-x="900" 
d="M446 0v436h-242l-3 -101q-2 -73 -8 -122.5t-22 -103.5t-49.5 -82t-83.5 -28q-11 0 -18 1v42q8 -1 20 -1q34 0 57.5 24t35 69t16.5 88.5t7 101.5l4 153h331v-173h179q82 0 128.5 -41t46.5 -110t-45.5 -111t-127.5 -42h-226zM491 41h173q64 0 99.5 29.5t35.5 81.5
t-35.5 81.5t-99.5 29.5h-173v-222z" />
    <glyph glyph-name="uni045A" unicode="&#x45a;" horiz-adv-x="894" 
d="M456 0v244h-320v-244h-46v477h46v-192h320v192h45v-192h173q77 0 121 -38t44 -103t-43 -104.5t-120 -39.5h-220zM501 41h168q58 0 91 27t33 75t-32.5 74.5t-91.5 26.5h-168v-203z" />
    <glyph glyph-name="uni045B" unicode="&#x45b;" horiz-adv-x="632" 
d="M163 0h-45v545h-102v41h102v114h45v-114h136v-41h-136v-208q32 39 85.5 67t117.5 28q91 0 138 -52t47 -147v-233h-45v224q0 51 -14.5 86t-39 51t-48 22.5t-51.5 6.5q-55 0 -109 -33.5t-81 -77.5v-279z" />
    <glyph glyph-name="uni045C" unicode="&#x45c;" horiz-adv-x="516" 
d="M222 577l96 130h61l-108 -130h-49zM90 0v477h45v-201l251 201h66l-269 -216l305 -261h-68l-285 244v-244h-45z" />
    <glyph glyph-name="uni045E" unicode="&#x45e;" horiz-adv-x="542" 
d="M101 -204q-44 0 -68 15v43q30 -16 63 -16q49 0 79.5 38.5t71.5 130.5l-221 470h51l193 -415l187 415h49l-241 -531q-33 -74 -71.5 -112t-92.5 -38zM271 558q-70 0 -112.5 39.5t-42.5 102.5h41q0 -45 31 -74.5t83 -29.5q50 0 81 29.5t31 74.5h41q0 -62 -44 -102t-109 -40z
" />
    <glyph glyph-name="uni045F" unicode="&#x45f;" horiz-adv-x="592" 
d="M273 -149v149h-183v477h45v-436h321v436h45v-477h-183v-149h-45z" />
    <glyph glyph-name="uni0490" unicode="&#x490;" horiz-adv-x="590" 
d="M105 0v700h405v148h43v-191h-402v-657h-46z" />
    <glyph glyph-name="uni0491" unicode="&#x491;" horiz-adv-x="481" 
d="M90 0v477h306v134h43v-175h-304v-436h-45z" />
    <glyph glyph-name="uni1E02" unicode="&#x1e02;" horiz-adv-x="719" 
d="M105 0v700h294q92 0 144 -45t52 -124q0 -115 -97 -150q75 -11 117.5 -61t42.5 -126q0 -88 -59.5 -141t-165.5 -53h-328zM151 43h275q87 0 134.5 40.5t47.5 114.5t-47.5 114.5t-134.5 40.5h-275v-310zM151 393h242q75 0 116 34.5t41 97.5t-41 97.5t-116 34.5h-242v-264z
M303 825q0 16 11 27t27 11t27 -11t11 -27t-11 -27t-27 -11t-27 11t-11 27z" />
    <glyph glyph-name="uni1E03" unicode="&#x1e03;" horiz-adv-x="630" 
d="M332 -12q-127 0 -197 96v-84h-45v700h45v-308q71 97 197 97q108 0 175.5 -74t67.5 -177t-67.5 -176.5t-175.5 -73.5zM324 30q88 0 146.5 59.5t58.5 148.5t-58.5 149t-146.5 60q-61 0 -113 -33.5t-76 -85.5v-180q23 -52 75 -85t114 -33zM283 825q0 16 11 27t27 11t27 -11
t11 -27t-11 -27t-27 -11t-27 11t-11 27z" />
    <glyph glyph-name="uni1E0A" unicode="&#x1e0a;" horiz-adv-x="774" 
d="M105 0v700h217q169 0 273 -97t104 -253t-104 -253t-273 -97h-217zM151 43h163q156 0 247 84t91 223t-91 223t-247 84h-163v-614zM297 825q0 16 11 27t27 11t27 -11t11 -27t-11 -27t-27 -11t-27 11t-11 27z" />
    <glyph glyph-name="uni1E0B" unicode="&#x1e0b;" horiz-adv-x="631" 
d="M298 -12q-108 0 -175.5 73.5t-67.5 176.5t67.5 177t175.5 74q126 0 197 -97v308h45v-700h-45v84q-70 -96 -197 -96zM306 30q62 0 114 33t75 85v180q-24 52 -76 85.5t-113 33.5q-88 0 -146.5 -60t-58.5 -149t58.5 -148.5t146.5 -59.5zM272 825q0 16 11 27t27 11t27 -11
t11 -27t-11 -27t-27 -11t-27 11t-11 27z" />
    <glyph glyph-name="uni1E1E" unicode="&#x1e1e;" horiz-adv-x="617" 
d="M105 0v700h463v-43h-417v-268h346v-43h-346v-346h-46zM298 825q0 16 11 27t27 11t27 -11t11 -27t-11 -27t-27 -11t-27 11t-11 27z" />
    <glyph glyph-name="uni1E1F" unicode="&#x1e1f;" horiz-adv-x="374" 
d="M127 0h45v436h174v41h-174v85q0 49 23.5 76t66.5 27q40 0 84 -21v43q-41 20 -93 20q-61 0 -93.5 -36t-32.5 -99v-95h-99v-41h99v-436zM200 825q0 16 11 27t27 11t27 -11t11 -27t-11 -27t-27 -11t-27 11t-11 27z" />
    <glyph glyph-name="uni1E40" unicode="&#x1e40;" horiz-adv-x="847" 
d="M105 0v700h47l272 -357l272 357h45v-700h-46v629l-256 -336h-30l-258 336v-629h-46zM385 825q0 16 11 27t27 11t27 -11t11 -27t-11 -27t-27 -11t-27 11t-11 27z" />
    <glyph glyph-name="uni1E41" unicode="&#x1e41;" horiz-adv-x="913" 
d="M90 0v477h45v-79q26 39 73.5 65t107.5 26q122 0 155 -102q28 44 78 73t114 29q81 0 125 -49.5t44 -141.5v-298h-45v289q0 50 -13.5 84t-36.5 48.5t-42.5 20t-42.5 5.5q-52 0 -99.5 -33t-70.5 -80q2 -36 2 -50v-284h-45v290q0 157 -134 157q-50 0 -97.5 -31t-72.5 -77
v-339h-45zM424 646q0 16 11 27t27 11t27 -11t11 -27t-11 -27t-27 -11t-27 11t-11 27z" />
    <glyph glyph-name="uni1E56" unicode="&#x1e56;" horiz-adv-x="665" 
d="M105 0v700h291q102 0 159 -51.5t57 -136.5t-57 -137t-159 -52h-245v-323h-46zM151 366h241q83 0 128.5 38t45.5 108q0 69 -45.5 107t-128.5 38h-241v-291zM294 825q0 16 11 27t27 11t27 -11t11 -27t-11 -27t-27 -11t-27 11t-11 27z" />
    <glyph glyph-name="uni1E57" unicode="&#x1e57;" horiz-adv-x="630" 
d="M332 489q-127 0 -197 -96v84h-45v-677h45v285q71 -97 197 -97q108 0 175.5 74t67.5 177t-67.5 176.5t-175.5 73.5zM324 447q88 0 146.5 -59.5t58.5 -148.5t-58.5 -149t-146.5 -60q-61 0 -113 33.5t-76 85.5v180q23 52 75 85t114 33zM286 646q0 16 11 27t27 11t27 -11
t11 -27t-11 -27t-27 -11t-27 11t-11 27z" />
    <glyph glyph-name="uni1E60" unicode="&#x1e60;" horiz-adv-x="623" 
d="M304 -12q-78 0 -147.5 22t-108.5 53v53q40 -34 107.5 -59t144.5 -25q91 0 149.5 41t58.5 110q0 30 -12 54t-28 39t-48 29.5t-55.5 21.5t-66.5 19q-47 13 -74.5 22.5t-61 26t-51 34.5t-29.5 46t-12 64q0 74 61 123.5t171 49.5q122 0 212 -59v-49q-96 64 -210 64
q-93 0 -140.5 -38t-47.5 -92q0 -23 6.5 -41t21.5 -32.5t28 -24t39.5 -19.5t42.5 -15t48 -14l21 -6q44 -13 68.5 -21t60.5 -25.5t55 -36.5t33.5 -50t14.5 -70q0 -92 -73 -143.5t-178 -51.5zM255 825q0 16 11 27t27 11t27 -11t11 -27t-11 -27t-27 -11t-27 11t-11 27z" />
    <glyph glyph-name="uni1E61" unicode="&#x1e61;" horiz-adv-x="500" 
d="M244 -12q-60 0 -114 15t-83 36v49q86 -58 196 -58q70 0 111.5 25.5t41.5 68.5q0 21 -11 36.5t-33 26.5t-44 17.5t-55 15.5q-13 3 -20 5q-31 8 -52 14.5t-45.5 18t-39 24.5t-24.5 33t-10 45q0 59 48 94t136 35q105 0 172 -44v-46q-79 48 -169 48q-70 0 -105.5 -24
t-35.5 -63q0 -18 9 -32.5t20 -23t34 -17.5t37.5 -13t44.5 -11q38 -9 56 -14t49 -17t45.5 -25t26.5 -34.5t12 -49.5q0 -62 -56.5 -98.5t-141.5 -36.5zM205 646q0 16 11 27t27 11t27 -11t11 -27t-11 -27t-27 -11t-27 11t-11 27z" />
    <glyph glyph-name="uni1E6A" unicode="&#x1e6a;" horiz-adv-x="620" 
d="M287 0v657h-251v43h548v-43h-251v-657h-46zM272 825q0 16 11 27t27 11t27 -11t11 -27t-11 -27t-27 -11t-27 11t-11 27z" />
    <glyph glyph-name="uni1E6B" unicode="&#x1e6b;" horiz-adv-x="422" 
d="M274 -12q61 0 92 22v42q-39 -22 -81 -22q-47 0 -68.5 24.5t-21.5 82.5v299h178v41h-178v154h-45v-154h-122v-41h122v-311q0 -64 31 -100.5t93 -36.5zM135 729q0 16 11 27t27 11t27 -11t11 -27t-11 -27t-27 -11t-27 11t-11 27z" />
    <glyph glyph-name="Wgrave" unicode="&#x1e80;" horiz-adv-x="1041" 
d="M289 -4l-244 704h52l214 -627l190 629h39l191 -629l214 627h51l-244 -704h-42l-189 622l-192 -622h-40zM495 763l-109 130h62l96 -130h-49z" />
    <glyph glyph-name="wgrave" unicode="&#x1e81;" horiz-adv-x="816" 
d="M219 -4l-175 481h47l150 -411l146 413h39l147 -413l149 411h46l-175 -481h-39l-149 413l-146 -413h-40zM386 577l-109 130h62l96 -130h-49z" />
    <glyph glyph-name="Wacute" unicode="&#x1e82;" horiz-adv-x="1041" 
d="M289 -4l-244 704h52l214 -627l190 629h39l191 -629l214 627h51l-244 -704h-42l-189 622l-192 -622h-40zM492 763l96 130h61l-108 -130h-49z" />
    <glyph glyph-name="wacute" unicode="&#x1e83;" horiz-adv-x="816" 
d="M219 -4l-175 481h47l150 -411l146 413h39l147 -413l149 411h46l-175 -481h-39l-149 413l-146 -413h-40zM379 577l96 130h61l-108 -130h-49z" />
    <glyph glyph-name="Wdieresis" unicode="&#x1e84;" horiz-adv-x="1041" 
d="M289 -4l-244 704h52l214 -627l190 629h39l191 -629l214 627h51l-244 -704h-42l-189 622l-192 -622h-40zM579 825q0 15 10.5 25.5t25.5 10.5t25.5 -10.5t10.5 -25.5t-10.5 -25.5t-25.5 -10.5t-25.5 10.5t-10.5 25.5zM389 825q0 15 10.5 25.5t25.5 10.5t25.5 -10.5
t10.5 -25.5t-10.5 -25.5t-25.5 -10.5t-25.5 10.5t-10.5 25.5z" />
    <glyph glyph-name="wdieresis" unicode="&#x1e85;" horiz-adv-x="816" 
d="M219 -4l-175 481h47l150 -411l146 413h39l147 -413l149 411h46l-175 -481h-39l-149 413l-146 -413h-40zM465 645q0 15 10.5 25.5t25.5 10.5t25.5 -10.5t10.5 -25.5t-10.5 -25.5t-25.5 -10.5t-25.5 10.5t-10.5 25.5zM275 645q0 15 10.5 25.5t25.5 10.5t25.5 -10.5
t10.5 -25.5t-10.5 -25.5t-25.5 -10.5t-25.5 10.5t-10.5 25.5z" />
    <glyph glyph-name="Ygrave" unicode="&#x1ef2;" horiz-adv-x="646" 
d="M299 0v324l-273 376h56l241 -332l242 332h53l-273 -375v-325h-46zM313 763l-109 130h62l96 -130h-49z" />
    <glyph glyph-name="ygrave" unicode="&#x1ef3;" horiz-adv-x="542" 
d="M101 -204q-44 0 -68 15v43q30 -16 63 -16q49 0 79.5 38.5t71.5 130.5l-221 470h51l193 -415l187 415h49l-241 -531q-33 -74 -71.5 -112t-92.5 -38zM268 577l-109 130h62l96 -130h-49z" />
    <glyph glyph-name="endash" unicode="&#x2013;" horiz-adv-x="717" 
d="M103 249v41h511v-41h-511z" />
    <glyph glyph-name="emdash" unicode="&#x2014;" horiz-adv-x="904" 
d="M103 249v41h698v-41h-698z" />
    <glyph glyph-name="uni2015" unicode="&#x2015;" horiz-adv-x="717" 
d="M103 249v41h511v-41h-511z" />
    <glyph glyph-name="quoteleft" unicode="&#x2018;" horiz-adv-x="177" 
d="M151 700l-76 -239h-56l93 239h39z" />
    <glyph glyph-name="quoteright" unicode="&#x2019;" horiz-adv-x="177" 
d="M24 463l76 239h56l-93 -239h-39z" />
    <glyph glyph-name="quotesinglbase" unicode="&#x201a;" horiz-adv-x="222" 
d="M23 -152l76 239h56l-93 -239h-39z" />
    <glyph glyph-name="quotedblleft" unicode="&#x201c;" horiz-adv-x="304" 
d="M278 700l-76 -239h-56l93 239h39zM151 700l-76 -239h-56l93 239h39z" />
    <glyph glyph-name="quotedblright" unicode="&#x201d;" horiz-adv-x="304" 
d="M151 463l76 239h56l-93 -239h-39zM24 463l76 239h56l-93 -239h-39z" />
    <glyph glyph-name="quotedblbase" unicode="&#x201e;" horiz-adv-x="349" 
d="M150 -152l76 239h56l-93 -239h-39zM23 -152l76 239h56l-93 -239h-39z" />
    <glyph glyph-name="dagger" unicode="&#x2020;" horiz-adv-x="528" 
d="M241 0v436h-183v41h183v223h45v-223h184v-41h-184v-436h-45z" />
    <glyph glyph-name="daggerdbl" unicode="&#x2021;" horiz-adv-x="528" 
d="M241 0v223h-183v41h183v172h-183v41h183v223h45v-223h184v-41h-184v-172h184v-41h-184v-223h-45z" />
    <glyph glyph-name="bullet" unicode="&#x2022;" horiz-adv-x="405" 
d="M202 282q-40 0 -69 28.5t-29 68.5t29 69t69 29q41 0 70 -28.5t29 -69.5q0 -40 -29 -68.5t-70 -28.5z" />
    <glyph glyph-name="ellipsis" unicode="&#x2026;" horiz-adv-x="631" 
d="M73 35q0 16 11 27t27 11t27 -11t11 -27t-11 -27t-27 -11t-27 11t-11 27zM277 35q0 16 11 27t27 11t27 -11t11 -27t-11 -27t-27 -11t-27 11t-11 27zM482 35q0 16 11 27t27 11t27 -11t11 -27t-11 -27t-27 -11t-27 11t-11 27z" />
    <glyph glyph-name="perthousand" unicode="&#x2030;" horiz-adv-x="1204" 
d="M219 416q53 0 87.5 37t34.5 92t-34.5 92t-87.5 37q-54 0 -88.5 -37t-34.5 -92t34.5 -92t88.5 -37zM219 378q-71 0 -117.5 48.5t-46.5 118.5t46.5 118.5t117.5 48.5q70 0 116.5 -48.5t46.5 -118.5t-46.5 -118.5t-116.5 -48.5zM184 0l407 700h48l-407 -700h-48zM604 26
q53 0 87.5 37t34.5 92t-34.5 92t-87.5 37q-54 0 -88.5 -37t-34.5 -92t34.5 -92t88.5 -37zM604 -12q-71 0 -117.5 48.5t-46.5 118.5t46.5 118.5t117.5 48.5q70 0 116.5 -48.5t46.5 -118.5t-46.5 -118.5t-116.5 -48.5zM986 26q53 0 87.5 37t34.5 92t-34.5 92t-87.5 37
q-54 0 -88.5 -37t-34.5 -92t34.5 -92t88.5 -37zM986 -12q-71 0 -117.5 48.5t-46.5 118.5t46.5 118.5t117.5 48.5q70 0 116.5 -48.5t46.5 -118.5t-46.5 -118.5t-116.5 -48.5z" />
    <glyph glyph-name="guilsinglleft" unicode="&#x2039;" horiz-adv-x="312" 
d="M208 42l-156 184v26l156 183h54l-167 -197l167 -196h-54z" />
    <glyph glyph-name="guilsinglright" unicode="&#x203a;" horiz-adv-x="313" 
d="M261 226l-156 -184h-54l167 196l-167 197h54l156 -183v-26z" />
    <glyph glyph-name="fraction" unicode="&#x2044;" horiz-adv-x="166" 
d="M-137 0l407 700h48l-407 -700h-48z" />
    <glyph glyph-name="zerosuperior" unicode="&#x2070;" horiz-adv-x="390" 
d="M195 317q-69 0 -113 55.5t-44 138.5q0 82 44 138t113 56t113 -56t44 -138q0 -83 -44 -138.5t-113 -55.5zM195 355q49 0 81.5 44.5t32.5 111.5t-32.5 111.5t-81.5 44.5q-50 0 -82 -44.5t-32 -111.5t32 -111.5t82 -44.5z" />
    <glyph glyph-name="foursuperior" unicode="&#x2074;" horiz-adv-x="352" 
d="M225 322v103h-202v32l204 243h40v-239h62v-36h-62v-103h-42zM73 461h152v182z" />
    <glyph glyph-name="fivesuperior" unicode="&#x2075;" horiz-adv-x="336" 
d="M145 317q-60 0 -107 26v41q50 -29 105 -29q47 0 78 25t31 63q0 36 -28.5 60t-76.5 24q-51 0 -94 -15l25 188h192v-37h-160l-13 -107q21 6 58 6q60 0 100 -33t40 -86q0 -55 -43.5 -90.5t-106.5 -35.5z" />
    <glyph glyph-name="sixsuperior" unicode="&#x2076;" horiz-adv-x="354" 
d="M186 317q-70 0 -107.5 49t-37.5 128q0 91 44.5 151t120.5 60q49 0 84 -22v-40q-35 24 -79 24q-56 0 -92 -42.5t-37 -112.5q39 53 111 53q52 0 87.5 -33.5t35.5 -87.5q0 -55 -37.5 -91t-92.5 -36zM184 354q39 0 64.5 25.5t25.5 64.5q0 38 -26 62t-64 24q-32 0 -58 -18
t-41 -47q2 -49 28.5 -80t70.5 -31z" />
    <glyph glyph-name="sevensuperior" unicode="&#x2077;" horiz-adv-x="311" 
d="M58 322l175 341h-203v37h251v-33l-176 -345h-47z" />
    <glyph glyph-name="eightsuperior" unicode="&#x2078;" horiz-adv-x="361" 
d="M180 317q-63 0 -104.5 29.5t-41.5 79.5q0 70 77 98q-57 23 -57 82q0 44 36 71.5t90 27.5q55 0 91 -27.5t36 -71.5q0 -59 -57 -82q77 -28 77 -98q0 -50 -42 -79.5t-105 -29.5zM180 353q45 0 74.5 21.5t29.5 54.5q0 35 -29 55.5t-75 20.5t-74.5 -20.5t-28.5 -55.5
q0 -33 29 -54.5t74 -21.5zM180 538q38 0 62.5 17.5t24.5 46.5q0 31 -24.5 49t-62.5 18t-62 -18t-24 -49q0 -29 24.5 -46.5t61.5 -17.5z" />
    <glyph glyph-name="ninesuperior" unicode="&#x2079;" horiz-adv-x="354" 
d="M171 705q70 0 107.5 -49t37.5 -128q0 -91 -45 -151t-121 -60q-49 0 -83 22v40q35 -24 79 -24q56 0 91.5 42.5t36.5 112.5q-38 -53 -110 -53q-52 0 -87.5 33.5t-35.5 87.5q0 55 37 91t93 36zM173 668q-39 0 -64.5 -25t-25.5 -65q0 -38 26 -62t64 -24q32 0 58 18t41 47
q-3 49 -29 80t-70 31z" />
    <glyph glyph-name="zeroinferior" unicode="&#x2080;" horiz-adv-x="390" 
d="M195 -5q-69 0 -113 55.5t-44 138.5q0 82 44 138t113 56t113 -56t44 -138q0 -83 -44 -138.5t-113 -55.5zM195 33q49 0 81.5 44.5t32.5 111.5t-32.5 111.5t-81.5 44.5q-50 0 -82 -44.5t-32 -111.5t32 -111.5t82 -44.5z" />
    <glyph glyph-name="oneinferior" unicode="&#x2081;" horiz-adv-x="234" 
d="M129 0v333l-104 -63v43l107 65h40v-378h-43z" />
    <glyph glyph-name="twoinferior" unicode="&#x2082;" horiz-adv-x="357" 
d="M46 0v32l128 120q40 37 57.5 63t17.5 56q0 32 -23 52t-61 20q-61 0 -111 -47v45q48 42 115 42q53 0 88 -30t35 -77q0 -38 -20 -70.5t-64 -73.5l-99 -95h197v-37h-260z" />
    <glyph glyph-name="threeinferior" unicode="&#x2083;" horiz-adv-x="322" 
d="M138 -5q-67 0 -112 29v40q50 -31 110 -31q42 0 73.5 24t31.5 63q0 38 -27.5 60.5t-73.5 22.5q-24 0 -44 -6v29l116 115h-170v37h228v-31l-114 -112q52 -3 89.5 -31.5t37.5 -83.5t-41.5 -90t-103.5 -35z" />
    <glyph glyph-name="fourinferior" unicode="&#x2084;" horiz-adv-x="352" 
d="M225 0v103h-202v32l204 243h40v-239h62v-36h-62v-103h-42zM73 139h152v182z" />
    <glyph glyph-name="fiveinferior" unicode="&#x2085;" horiz-adv-x="336" 
d="M145 -5q-60 0 -107 26v41q50 -29 105 -29q47 0 78 25t31 63q0 36 -28.5 60t-76.5 24q-51 0 -94 -15l25 188h192v-37h-160l-13 -107q21 6 58 6q60 0 100 -33t40 -86q0 -55 -43.5 -90.5t-106.5 -35.5z" />
    <glyph glyph-name="sixinferior" unicode="&#x2086;" horiz-adv-x="354" 
d="M186 -5q-70 0 -107.5 49t-37.5 128q0 91 44.5 151t120.5 60q49 0 84 -22v-40q-35 24 -79 24q-56 0 -92 -42.5t-37 -112.5q39 53 111 53q52 0 87.5 -33.5t35.5 -87.5q0 -55 -37.5 -91t-92.5 -36zM184 32q39 0 64.5 25.5t25.5 64.5q0 38 -26 62t-64 24q-32 0 -58 -18
t-41 -47q2 -49 28.5 -80t70.5 -31z" />
    <glyph glyph-name="seveninferior" unicode="&#x2087;" horiz-adv-x="311" 
d="M58 0l175 341h-203v37h251v-33l-176 -345h-47z" />
    <glyph glyph-name="eightinferior" unicode="&#x2088;" horiz-adv-x="361" 
d="M180 -5q-63 0 -104.5 29.5t-41.5 79.5q0 70 77 98q-57 23 -57 82q0 44 36 71.5t90 27.5q55 0 91 -27.5t36 -71.5q0 -59 -57 -82q77 -28 77 -98q0 -50 -42 -79.5t-105 -29.5zM180 31q45 0 74.5 21.5t29.5 54.5q0 35 -29 55.5t-75 20.5t-74.5 -20.5t-28.5 -55.5
q0 -33 29 -54.5t74 -21.5zM180 216q38 0 62.5 17.5t24.5 46.5q0 31 -24.5 49t-62.5 18t-62 -18t-24 -49q0 -29 24.5 -46.5t61.5 -17.5z" />
    <glyph glyph-name="nineinferior" unicode="&#x2089;" horiz-adv-x="354" 
d="M171 383q70 0 107.5 -49t37.5 -128q0 -91 -45 -151t-121 -60q-49 0 -83 22v40q35 -24 79 -24q56 0 91.5 42.5t36.5 112.5q-38 -53 -110 -53q-52 0 -87.5 33.5t-35.5 87.5q0 55 37 91t93 36zM173 346q-39 0 -64.5 -25t-25.5 -65q0 -38 26 -62t64 -24q32 0 58 18t41 47
q-3 49 -29 80t-70 31z" />
    <glyph glyph-name="franc" unicode="&#x20a3;" horiz-adv-x="626" 
d="M114 0v165h-119v43h119v492h463v-43h-417v-268h346v-43h-346v-138h183v-43h-183v-165h-46z" />
    <glyph glyph-name="lira" unicode="&#x20a4;" horiz-adv-x="580" 
d="M66 0v43h24q45 0 45 77v103h-69v43h69v114h-69v43h69v68q0 105 58.5 163t161.5 58q95 0 163 -46v-48q-65 50 -159 50q-86 0 -132 -47t-46 -136v-62h284v-43h-284v-114h284v-43h-284v-128q0 -36 -22 -52h363v-43h-456z" />
    <glyph glyph-name="peseta" unicode="&#x20a7;" horiz-adv-x="703" 
d="M109 0v489h-87v43h87v168h291q96 0 152 -45.5t63 -122.5h79v-43h-80q-8 -76 -63.5 -121t-150.5 -45h-245v-323h-46zM155 366h241q83 0 128.5 38t45.5 108q0 69 -45.5 107t-128.5 38h-241v-291z" />
    <glyph glyph-name="Euro" unicode="&#x20ac;" horiz-adv-x="692" 
d="M448 -12q-122 0 -205.5 74.5t-103.5 200.5h-93v43h88q-2 16 -2 49q0 37 4 65h-90v43h98q26 113 107 181t197 68q104 0 178 -52v-49q-77 57 -175 57q-96 0 -165 -55t-94 -150h276v-43h-284q-6 -32 -6 -65q0 -19 2 -49h288v-43h-281q19 -107 89 -169t175 -62q115 0 191 71
v-51q-77 -64 -194 -64z" />
    <glyph glyph-name="uni20B4" unicode="&#x20b4;" horiz-adv-x="607" 
d="M323 -12q-105 0 -161.5 40t-56.5 109q0 79 70 131h-109v43h473v-43h-296q-91 -51 -91 -124q0 -54 44.5 -83t130.5 -29q96 0 172 38v-46q-72 -36 -176 -36zM66 407v43h325q71 44 71 110q0 108 -169 108q-88 0 -165 -36v46q71 34 168 34q104 0 159 -40.5t55 -107.5
q0 -68 -57 -114h86v-43h-473z" />
    <glyph glyph-name="uni20B6" unicode="&#x20b6;" horiz-adv-x="664" 
d="M118 0v165h-94v43h94v115h-94v43h94v334h291q102 0 159 -51.5t57 -136.5t-57 -137t-159 -52h-245v-115h307v-43h-307v-165h-46zM164 366h241q83 0 128.5 38t45.5 108q0 69 -45.5 107t-128.5 38h-241v-291z" />
    <glyph glyph-name="uni20B6" unicode="&#x20cf;" horiz-adv-x="664" 
d="M118 0v165h-94v43h94v115h-94v43h94v334h291q102 0 159 -51.5t57 -136.5t-57 -137t-159 -52h-245v-115h307v-43h-307v-165h-46zM164 366h241q83 0 128.5 38t45.5 108q0 69 -45.5 107t-128.5 38h-241v-291z" />
    <glyph glyph-name="uni20B6" unicode="&#x20ce;" horiz-adv-x="664" 
d="M118 0v165h-94v43h94v115h-94v43h94v334h291q102 0 159 -51.5t57 -136.5t-57 -137t-159 -52h-245v-115h307v-43h-307v-165h-46zM164 366h241q83 0 128.5 38t45.5 108q0 69 -45.5 107t-128.5 38h-241v-291z" />
    <glyph glyph-name="uni20B6" unicode="&#x20cd;" horiz-adv-x="664" 
d="M118 0v165h-94v43h94v115h-94v43h94v334h291q102 0 159 -51.5t57 -136.5t-57 -137t-159 -52h-245v-115h307v-43h-307v-165h-46zM164 366h241q83 0 128.5 38t45.5 108q0 69 -45.5 107t-128.5 38h-241v-291z" />
    <glyph glyph-name="uni20B6" unicode="&#x20cc;" horiz-adv-x="664" 
d="M118 0v165h-94v43h94v115h-94v43h94v334h291q102 0 159 -51.5t57 -136.5t-57 -137t-159 -52h-245v-115h307v-43h-307v-165h-46zM164 366h241q83 0 128.5 38t45.5 108q0 69 -45.5 107t-128.5 38h-241v-291z" />
    <glyph glyph-name="uni20B6" unicode="&#x20cb;" horiz-adv-x="664" 
d="M118 0v165h-94v43h94v115h-94v43h94v334h291q102 0 159 -51.5t57 -136.5t-57 -137t-159 -52h-245v-115h307v-43h-307v-165h-46zM164 366h241q83 0 128.5 38t45.5 108q0 69 -45.5 107t-128.5 38h-241v-291z" />
    <glyph glyph-name="uni20B6" unicode="&#x20ca;" horiz-adv-x="664" 
d="M118 0v165h-94v43h94v115h-94v43h94v334h291q102 0 159 -51.5t57 -136.5t-57 -137t-159 -52h-245v-115h307v-43h-307v-165h-46zM164 366h241q83 0 128.5 38t45.5 108q0 69 -45.5 107t-128.5 38h-241v-291z" />
    <glyph glyph-name="uni20B6" unicode="&#x20c9;" horiz-adv-x="664" 
d="M118 0v165h-94v43h94v115h-94v43h94v334h291q102 0 159 -51.5t57 -136.5t-57 -137t-159 -52h-245v-115h307v-43h-307v-165h-46zM164 366h241q83 0 128.5 38t45.5 108q0 69 -45.5 107t-128.5 38h-241v-291z" />
    <glyph glyph-name="uni20B6" unicode="&#x20c8;" horiz-adv-x="664" 
d="M118 0v165h-94v43h94v115h-94v43h94v334h291q102 0 159 -51.5t57 -136.5t-57 -137t-159 -52h-245v-115h307v-43h-307v-165h-46zM164 366h241q83 0 128.5 38t45.5 108q0 69 -45.5 107t-128.5 38h-241v-291z" />
    <glyph glyph-name="uni20B6" unicode="&#x20c7;" horiz-adv-x="664" 
d="M118 0v165h-94v43h94v115h-94v43h94v334h291q102 0 159 -51.5t57 -136.5t-57 -137t-159 -52h-245v-115h307v-43h-307v-165h-46zM164 366h241q83 0 128.5 38t45.5 108q0 69 -45.5 107t-128.5 38h-241v-291z" />
    <glyph glyph-name="uni20B6" unicode="&#x20c6;" horiz-adv-x="664" 
d="M118 0v165h-94v43h94v115h-94v43h94v334h291q102 0 159 -51.5t57 -136.5t-57 -137t-159 -52h-245v-115h307v-43h-307v-165h-46zM164 366h241q83 0 128.5 38t45.5 108q0 69 -45.5 107t-128.5 38h-241v-291z" />
    <glyph glyph-name="uni20B6" unicode="&#x20c5;" horiz-adv-x="664" 
d="M118 0v165h-94v43h94v115h-94v43h94v334h291q102 0 159 -51.5t57 -136.5t-57 -137t-159 -52h-245v-115h307v-43h-307v-165h-46zM164 366h241q83 0 128.5 38t45.5 108q0 69 -45.5 107t-128.5 38h-241v-291z" />
    <glyph glyph-name="uni20B6" unicode="&#x20c4;" horiz-adv-x="664" 
d="M118 0v165h-94v43h94v115h-94v43h94v334h291q102 0 159 -51.5t57 -136.5t-57 -137t-159 -52h-245v-115h307v-43h-307v-165h-46zM164 366h241q83 0 128.5 38t45.5 108q0 69 -45.5 107t-128.5 38h-241v-291z" />
    <glyph glyph-name="uni20B6" unicode="&#x20c3;" horiz-adv-x="664" 
d="M118 0v165h-94v43h94v115h-94v43h94v334h291q102 0 159 -51.5t57 -136.5t-57 -137t-159 -52h-245v-115h307v-43h-307v-165h-46zM164 366h241q83 0 128.5 38t45.5 108q0 69 -45.5 107t-128.5 38h-241v-291z" />
    <glyph glyph-name="uni20B6" unicode="&#x20c2;" horiz-adv-x="664" 
d="M118 0v165h-94v43h94v115h-94v43h94v334h291q102 0 159 -51.5t57 -136.5t-57 -137t-159 -52h-245v-115h307v-43h-307v-165h-46zM164 366h241q83 0 128.5 38t45.5 108q0 69 -45.5 107t-128.5 38h-241v-291z" />
    <glyph glyph-name="uni20B6" unicode="&#x20c1;" horiz-adv-x="664" 
d="M118 0v165h-94v43h94v115h-94v43h94v334h291q102 0 159 -51.5t57 -136.5t-57 -137t-159 -52h-245v-115h307v-43h-307v-165h-46zM164 366h241q83 0 128.5 38t45.5 108q0 69 -45.5 107t-128.5 38h-241v-291z" />
    <glyph glyph-name="uni20B6" unicode="&#x20c0;" horiz-adv-x="664" 
d="M118 0v165h-94v43h94v115h-94v43h94v334h291q102 0 159 -51.5t57 -136.5t-57 -137t-159 -52h-245v-115h307v-43h-307v-165h-46zM164 366h241q83 0 128.5 38t45.5 108q0 69 -45.5 107t-128.5 38h-241v-291z" />
    <glyph glyph-name="uni20B6" unicode="&#x20bf;" horiz-adv-x="664" 
d="M118 0v165h-94v43h94v115h-94v43h94v334h291q102 0 159 -51.5t57 -136.5t-57 -137t-159 -52h-245v-115h307v-43h-307v-165h-46zM164 366h241q83 0 128.5 38t45.5 108q0 69 -45.5 107t-128.5 38h-241v-291z" />
    <glyph glyph-name="uni20B6" unicode="&#x20be;" horiz-adv-x="664" 
d="M118 0v165h-94v43h94v115h-94v43h94v334h291q102 0 159 -51.5t57 -136.5t-57 -137t-159 -52h-245v-115h307v-43h-307v-165h-46zM164 366h241q83 0 128.5 38t45.5 108q0 69 -45.5 107t-128.5 38h-241v-291z" />
    <glyph glyph-name="uni20B6" unicode="&#x20bd;" horiz-adv-x="664" 
d="M118 0v165h-94v43h94v115h-94v43h94v334h291q102 0 159 -51.5t57 -136.5t-57 -137t-159 -52h-245v-115h307v-43h-307v-165h-46zM164 366h241q83 0 128.5 38t45.5 108q0 69 -45.5 107t-128.5 38h-241v-291z" />
    <glyph glyph-name="uni20B6" unicode="&#x20bc;" horiz-adv-x="664" 
d="M118 0v165h-94v43h94v115h-94v43h94v334h291q102 0 159 -51.5t57 -136.5t-57 -137t-159 -52h-245v-115h307v-43h-307v-165h-46zM164 366h241q83 0 128.5 38t45.5 108q0 69 -45.5 107t-128.5 38h-241v-291z" />
    <glyph glyph-name="uni20B6" unicode="&#x20bb;" horiz-adv-x="664" 
d="M118 0v165h-94v43h94v115h-94v43h94v334h291q102 0 159 -51.5t57 -136.5t-57 -137t-159 -52h-245v-115h307v-43h-307v-165h-46zM164 366h241q83 0 128.5 38t45.5 108q0 69 -45.5 107t-128.5 38h-241v-291z" />
    <glyph glyph-name="uni20B6" unicode="&#x20ba;" horiz-adv-x="664" 
d="M118 0v165h-94v43h94v115h-94v43h94v334h291q102 0 159 -51.5t57 -136.5t-57 -137t-159 -52h-245v-115h307v-43h-307v-165h-46zM164 366h241q83 0 128.5 38t45.5 108q0 69 -45.5 107t-128.5 38h-241v-291z" />
    <glyph glyph-name="uni20B6" unicode="&#x20b9;" horiz-adv-x="664" 
d="M118 0v165h-94v43h94v115h-94v43h94v334h291q102 0 159 -51.5t57 -136.5t-57 -137t-159 -52h-245v-115h307v-43h-307v-165h-46zM164 366h241q83 0 128.5 38t45.5 108q0 69 -45.5 107t-128.5 38h-241v-291z" />
    <glyph glyph-name="uni20B6" unicode="&#x20b7;" horiz-adv-x="664" 
d="M118 0v165h-94v43h94v115h-94v43h94v334h291q102 0 159 -51.5t57 -136.5t-57 -137t-159 -52h-245v-115h307v-43h-307v-165h-46zM164 366h241q83 0 128.5 38t45.5 108q0 69 -45.5 107t-128.5 38h-241v-291z" />
    <glyph glyph-name="uni2113" unicode="&#x2113;" horiz-adv-x="422" 
d="M217 -12q-65 0 -100 36.5t-35 104.5v374q0 96 42 150t109 54q58 0 90.5 -38.5t32.5 -107.5q0 -176 -229 -380v-53q0 -98 97 -98q46 0 91 28v-43q-35 -27 -98 -27zM127 239q183 180 183 324q0 102 -77 102q-42 0 -74 -40.5t-32 -119.5v-266z" />
    <glyph glyph-name="uni2116" unicode="&#x2116;" horiz-adv-x="1136" 
d="M760 270v38h290v-38h-290zM905 416q53 0 87.5 37t34.5 92t-34.5 92t-87.5 37q-54 0 -88.5 -37t-34.5 -92t34.5 -92t88.5 -37zM905 378q-71 0 -117.5 48.5t-46.5 118.5t46.5 118.5t117.5 48.5q70 0 116.5 -48.5t46.5 -118.5t-46.5 -118.5t-116.5 -48.5zM105 0v700h41
l477 -620v620h46v-700h-40l-478 621v-621h-46z" />
    <glyph glyph-name="trademark" unicode="&#x2122;" horiz-adv-x="687" 
d="M330 392v308h34l114 -143l112 143h34v-308h-37v250l-100 -124h-19l-101 124v-250h-37zM127 392v275h-102v33h246v-33h-107v-275h-37z" />
    <glyph glyph-name="Omega" unicode="&#x2126;" horiz-adv-x="805" 
d="M113 0v43h125q-57 57 -93 140.5t-36 179.5q0 153 82 251t211 98q131 0 213 -97.5t82 -251.5q0 -96 -36.5 -179.5t-93.5 -140.5h125v-43h-186v37q60 51 102 137t42 183q0 138 -70 224.5t-178 86.5q-106 0 -176 -86.5t-70 -224.5q0 -97 41.5 -182.5t101.5 -137.5v-37h-186z
" />
    <glyph glyph-name="estimated" unicode="&#x212e;" horiz-adv-x="809" 
d="M405 -12q-141 0 -235.5 93.5t-94.5 233.5q0 139 93.5 234t236.5 95t234.5 -95t94.5 -228h-573v-196q89 -116 244 -116q97 0 173 50.5t110 134.5h24q-35 -92 -117 -149t-190 -57zM161 342h488v165q-42 55 -105.5 85.5t-138.5 30.5q-155 0 -244 -116v-165z" />
    <glyph glyph-name="onethird" unicode="&#x2153;" horiz-adv-x="774" 
d="M118 0l407 700h48l-407 -700h-48zM129 322v333l-104 -63v43l107 65h40v-378h-43zM590 -5q-67 0 -112 29v40q50 -31 110 -31q42 0 73.5 24t31.5 63q0 38 -27.5 60.5t-73.5 22.5q-24 0 -44 -6v29l116 115h-170v37h228v-31l-114 -112q52 -3 89.5 -31.5t37.5 -83.5t-41.5 -90
t-103.5 -35z" />
    <glyph glyph-name="twothirds" unicode="&#x2154;" horiz-adv-x="887" 
d="M231 0l407 700h48l-407 -700h-48zM46 322v32l128 120q40 37 57.5 63t17.5 56q0 32 -23 52t-61 20q-61 0 -111 -47v45q48 42 115 42q53 0 88 -30t35 -77q0 -38 -20 -70.5t-64 -73.5l-99 -95h197v-37h-260zM703 -5q-67 0 -112 29v40q50 -31 110 -31q42 0 73.5 24t31.5 63
q0 38 -27.5 60.5t-73.5 22.5q-25 0 -44 -6v29l116 115h-170v37h228v-31l-114 -112q52 -3 89.5 -31.5t37.5 -83.5t-41.5 -90t-103.5 -35z" />
    <glyph glyph-name="uni2155" unicode="&#x2155;" horiz-adv-x="755" 
d="M118 0l407 700h48l-407 -700h-48zM129 322v333l-104 -63v43l107 65h40v-378h-43zM564 -5q-60 0 -107 26v41q50 -29 105 -29q47 0 78 25t31 63q0 36 -28.5 60t-76.5 24q-50 0 -94 -15l25 188h192v-37h-160l-13 -107q21 6 58 6q60 0 100 -33t40 -86q0 -55 -43.5 -90.5
t-106.5 -35.5z" />
    <glyph glyph-name="uni2156" unicode="&#x2156;" horiz-adv-x="868" 
d="M231 0l407 700h48l-407 -700h-48zM46 322v32l128 120q40 37 57.5 63t17.5 56q0 32 -23 52t-61 20q-61 0 -111 -47v45q48 42 115 42q53 0 88 -30t35 -77q0 -38 -20 -70.5t-64 -73.5l-99 -95h197v-37h-260zM677 -5q-60 0 -107 26v41q50 -29 105 -29q47 0 78 25t31 63
q0 36 -28.5 60t-76.5 24q-51 0 -94 -15l25 188h192v-37h-160l-13 -107q21 6 58 6q60 0 100 -33t40 -86q0 -55 -43.5 -90.5t-106.5 -35.5z" />
    <glyph glyph-name="uni2157" unicode="&#x2157;" horiz-adv-x="808" 
d="M170 0l407 700h48l-407 -700h-48zM617 -5q-60 0 -107 26v41q50 -29 105 -29q47 0 78 25t31 63q0 36 -28.5 60t-76.5 24q-51 0 -94 -15l25 188h192v-37h-160l-13 -107q21 6 58 6q60 0 100 -33t40 -86q0 -55 -43.5 -90.5t-106.5 -35.5zM138 317q-67 0 -112 29v40
q50 -31 110 -31q42 0 73.5 24t31.5 63q0 38 -27.5 60.5t-73.5 22.5q-24 0 -44 -6v29l116 115h-170v37h228v-31l-114 -112q52 -3 89.5 -31.5t37.5 -83.5t-41.5 -90t-103.5 -35z" />
    <glyph glyph-name="uni2158" unicode="&#x2158;" horiz-adv-x="850" 
d="M212 0l407 700h48l-407 -700h-48zM659 -5q-60 0 -107 26v41q50 -29 105 -29q47 0 78 25t31 63q0 36 -28.5 60t-76.5 24q-51 0 -94 -15l25 188h192v-37h-160l-13 -107q21 6 58 6q60 0 100 -33t40 -86q0 -55 -43.5 -90.5t-106.5 -35.5zM225 322v103h-202v32l204 243h40
v-239h62v-36h-62v-103h-42zM73 461h152v182z" />
    <glyph glyph-name="uni2159" unicode="&#x2159;" horiz-adv-x="759" 
d="M118 0l407 700h48l-407 -700h-48zM129 322v333l-104 -63v43l107 65h40v-378h-43zM591 -5q-70 0 -107.5 49t-37.5 128q0 91 44.5 151t120.5 60q49 0 84 -22v-40q-35 24 -79 24q-56 0 -92 -42.5t-37 -112.5q39 53 111 53q52 0 87.5 -33.5t35.5 -87.5q0 -55 -37.5 -91
t-92.5 -36zM589 32q39 0 64.5 25.5t25.5 64.5q0 38 -26 62t-64 24q-32 0 -58 -18t-41 -47q2 -49 28.5 -80t70.5 -31z" />
    <glyph glyph-name="uni215A" unicode="&#x215a;" horiz-adv-x="824" 
d="M182 0l407 700h48l-407 -700h-48zM656 -5q-70 0 -107.5 49t-37.5 128q0 91 44.5 151t120.5 60q49 0 84 -22v-40q-35 24 -79 24q-56 0 -92 -42.5t-37 -112.5q39 53 111 53q52 0 87.5 -33.5t35.5 -87.5q0 -55 -37.5 -91t-92.5 -36zM654 32q39 0 64.5 25.5t25.5 64.5
q0 38 -26 62t-64 24q-32 0 -58 -18t-41 -47q2 -49 28.5 -80t70.5 -31zM145 317q-60 0 -107 26v41q50 -29 105 -29q47 0 78 25t31 63q0 36 -28.5 60t-76.5 24q-51 0 -94 -15l25 188h192v-37h-160l-13 -107q21 6 58 6q60 0 100 -33t40 -86q0 -55 -43.5 -90.5t-106.5 -35.5z
" />
    <glyph glyph-name="oneeighth" unicode="&#x215b;" horiz-adv-x="775" 
d="M118 0l407 700h48l-407 -700h-48zM129 322v333l-104 -63v43l107 65h40v-378h-43zM594 -5q-63 0 -104.5 29.5t-41.5 79.5q0 70 77 98q-57 23 -57 82q0 44 36 71.5t90 27.5q55 0 91 -27.5t36 -71.5q0 -59 -57 -82q77 -28 77 -98q0 -50 -42 -79.5t-105 -29.5zM594 31
q45 0 74.5 21.5t29.5 54.5q0 35 -29 55.5t-75 20.5t-74.5 -20.5t-28.5 -55.5q0 -33 29 -54.5t74 -21.5zM594 216q38 0 62.5 17.5t24.5 46.5q0 31 -24.5 49t-62.5 18t-62 -18t-24 -49q0 -29 24.5 -46.5t61.5 -17.5z" />
    <glyph glyph-name="threeeighths" unicode="&#x215c;" horiz-adv-x="828" 
d="M170 0l407 700h48l-407 -700h-48zM647 -5q-63 0 -104.5 29.5t-41.5 79.5q0 70 77 98q-57 23 -57 82q0 44 36 71.5t90 27.5q55 0 91 -27.5t36 -71.5q0 -59 -57 -82q77 -28 77 -98q0 -50 -42 -79.5t-105 -29.5zM647 31q45 0 74.5 21.5t29.5 54.5q0 35 -29 55.5t-75 20.5
t-74.5 -20.5t-28.5 -55.5q0 -33 29 -54.5t74 -21.5zM647 216q38 0 62.5 17.5t24.5 46.5q0 31 -24.5 49t-62.5 18t-62 -18t-24 -49q0 -29 24.5 -46.5t61.5 -17.5zM138 317q-67 0 -112 29v40q50 -31 110 -31q42 0 73.5 24t31.5 63q0 38 -27.5 60.5t-73.5 22.5q-24 0 -44 -6v29
l116 115h-170v37h228v-31l-114 -112q52 -3 89.5 -31.5t37.5 -83.5t-41.5 -90t-103.5 -35z" />
    <glyph glyph-name="fiveeighths" unicode="&#x215d;" horiz-adv-x="840" 
d="M182 0l407 700h48l-407 -700h-48zM145 317q-60 0 -107 26v41q50 -29 105 -29q47 0 78 25t31 63q0 36 -28.5 60t-76.5 24q-51 0 -94 -15l25 188h192v-37h-160l-13 -107q21 6 58 6q60 0 100 -33t40 -86q0 -55 -43.5 -90.5t-106.5 -35.5zM659 -5q-63 0 -104.5 29.5
t-41.5 79.5q0 70 77 98q-57 23 -57 82q0 44 36 71.5t90 27.5q55 0 91 -27.5t36 -71.5q0 -59 -57 -82q77 -28 77 -98q0 -50 -42 -79.5t-105 -29.5zM659 31q45 0 74.5 21.5t29.5 54.5q0 35 -29 55.5t-75 20.5t-74.5 -20.5t-28.5 -55.5q0 -33 29 -54.5t74 -21.5zM659 216
q38 0 62.5 17.5t24.5 46.5q0 31 -24.5 49t-62.5 18t-62 -18t-24 -49q0 -29 24.5 -46.5t61.5 -17.5z" />
    <glyph glyph-name="seveneighths" unicode="&#x215e;" horiz-adv-x="767" 
d="M109 0l407 700h48l-407 -700h-48zM586 -5q-63 0 -104.5 29.5t-41.5 79.5q0 70 77 98q-57 23 -57 82q0 44 36 71.5t90 27.5q55 0 91 -27.5t36 -71.5q0 -59 -57 -82q77 -28 77 -98q0 -50 -42 -79.5t-105 -29.5zM586 31q45 0 74.5 21.5t29.5 54.5q0 35 -29 55.5t-75 20.5
t-74.5 -20.5t-28.5 -55.5q0 -33 29 -54.5t74 -21.5zM586 216q38 0 62.5 17.5t24.5 46.5q0 31 -24.5 49t-62.5 18t-62 -18t-24 -49q0 -29 24.5 -46.5t61.5 -17.5zM58 322l175 341h-203v37h251v-33l-176 -345h-47z" />
    <glyph glyph-name="uni215F" unicode="&#x215f;" horiz-adv-x="408" 
d="M118 0l407 700h48l-407 -700h-48zM129 322v333l-104 -63v43l107 65h40v-378h-43z" />
    <glyph glyph-name="arrowleft" unicode="&#x2190;" horiz-adv-x="726" 
d="M139 288h503v-40h-503l164 -182h-52l-184 202l184 201h52z" />
    <glyph glyph-name="arrowup" unicode="&#x2191;" horiz-adv-x="571" 
d="M306 503v-503h-40v503l-182 -164v52l202 184l201 -184v-52z" />
    <glyph glyph-name="arrowright" unicode="&#x2192;" horiz-adv-x="726" 
d="M84 288h503l-164 181h52l184 -201l-184 -202h-52l164 182h-503v40z" />
    <glyph glyph-name="arrowdown" unicode="&#x2193;" horiz-adv-x="571" 
d="M266 63v504h40v-504l181 165v-52l-201 -184l-202 184v52z" />
    <glyph glyph-name="partialdiff" unicode="&#x2202;" horiz-adv-x="629" 
d="M273 -12q-94 0 -156 60t-62 154q0 101 69.5 171.5t171.5 70.5q76 0 132 -37.5t79 -89.5q3 19 3 45q0 79 -24.5 146.5t-78.5 112t-128 44.5q-76 0 -143 -42v43q61 41 146 41q124 0 198 -95.5t74 -252.5q0 -68 -15 -130.5t-46.5 -118t-88 -89t-131.5 -33.5zM275 30
q87 0 146.5 60t77.5 160q-20 67 -74 109.5t-124 42.5q-81 0 -140.5 -55.5t-59.5 -138.5q0 -78 49.5 -128t124.5 -50z" />
    <glyph glyph-name="Delta" unicode="&#x2206;" horiz-adv-x="743" 
d="M33 0l318 700h43l316 -700h-677zM99 43h545l-272 600z" />
    <glyph glyph-name="product" unicode="&#x220f;" horiz-adv-x="751" 
d="M186 -126v783h-114v43h608v-43h-115v-783h-46v783h-287v-783h-46z" />
    <glyph glyph-name="summation" unicode="&#x2211;" horiz-adv-x="593" 
d="M64 0v34l268 316l-266 316v34h478v-43h-413l248 -295v-24l-249 -295h415v-43h-481z" />
    <glyph glyph-name="minus" unicode="&#x2212;" horiz-adv-x="580" 
d="M70 302v42h440v-42h-440z" />
    <glyph glyph-name="uni2215" unicode="&#x2215;" horiz-adv-x="501" 
d="M29 0l408 700h48l-408 -700h-48z" />
    <glyph glyph-name="uni2219" unicode="&#x2219;" horiz-adv-x="219" 
d="M71 224q0 16 11 27t27 11t27 -11t11 -27t-11 -27t-27 -11t-27 11t-11 27z" />
    <glyph glyph-name="radical" unicode="&#x221a;" horiz-adv-x="654" 
d="M319 0l-192 430h-140v41h170l182 -411l241 640h46l-267 -700h-40z" />
    <glyph glyph-name="infinity" unicode="&#x221e;" horiz-adv-x="797" 
d="M217 159q-69 0 -112.5 44.5t-43.5 113.5t44 113.5t112 44.5q54 0 96.5 -32.5t84.5 -88.5q27 36 48 58.5t57 42.5t75 20q70 0 112.5 -45.5t42.5 -112.5t-42.5 -112.5t-112.5 -45.5q-54 0 -96 32t-85 89q-42 -56 -83.5 -88.5t-96.5 -32.5zM221 199q23 0 44.5 9.5t42 30
t33 36t32.5 42.5q-20 28 -32.5 43.5t-33 36t-42 30t-45.5 9.5q-57 0 -85.5 -36t-28.5 -83t28.5 -82.5t86.5 -35.5zM574 199q57 0 86 35.5t29 82.5t-29 83t-86 36q-44 0 -78.5 -31t-74.5 -88q20 -28 33 -43.5t33.5 -35.5t41.5 -29.5t45 -9.5z" />
    <glyph glyph-name="integral" unicode="&#x222b;" horiz-adv-x="492" 
d="M-4 -204q-44 0 -80 17v42q37 -17 74 -17q117 0 142 156l80 527q28 186 178 186q50 0 83 -16v-44q-36 18 -76 18q-58 0 -93 -36t-48 -118l-81 -527q-13 -85 -58 -136.5t-121 -51.5z" />
    <glyph glyph-name="approxequal" unicode="&#x2248;" horiz-adv-x="664" 
d="M469 155q-50 0 -138 29t-137 29q-78 0 -124 -48v44q15 19 50 31.5t74 12.5q49 0 137 -29t138 -29q79 0 125 48v-44q-16 -19 -50.5 -31.5t-74.5 -12.5zM469 384q-50 0 -138 29t-137 29q-78 0 -124 -48v44q15 19 50 31.5t74 12.5q49 0 137 -28.5t138 -28.5q79 0 125 48v-45
q-16 -19 -50.5 -31.5t-74.5 -12.5z" />
    <glyph glyph-name="notequal" unicode="&#x2260;" horiz-adv-x="607" 
d="M145 63l65 125h-140v41h162l98 187h-260v41h282l66 124h43l-66 -124h142v-41h-164l-98 -187h262v-41h-284l-65 -125h-43z" />
    <glyph glyph-name="lessequal" unicode="&#x2264;" horiz-adv-x="607" 
d="M537 167l-467 190v40l467 188v-46l-414 -163l414 -163v-46zM70 68v41h466v-41h-466z" />
    <glyph glyph-name="greaterequal" unicode="&#x2265;" horiz-adv-x="607" 
d="M70 167v46l415 163l-415 163v46l467 -188v-40zM70 68v41h467v-41h-467z" />
    <glyph glyph-name="dotmath" unicode="&#x22c5;" horiz-adv-x="222" 
d="M73 380q0 16 11 27t27 11t27 -11t11 -27t-11 -27t-27 -11t-27 11t-11 27z" />
    <glyph glyph-name="lozenge" unicode="&#x25ca;" horiz-adv-x="559" 
d="M257 0l-206 350l206 350h45l205 -350l-205 -350h-45zM280 49l175 301l-176 301l-175 -301z" />
    <glyph glyph-name="uniF401" unicode="&#xf401;" horiz-adv-x="20" 
d="M-410 763l96 130h61l-108 -130h-49z" />
    <glyph glyph-name="uniF639" unicode="&#xf639;" 
d="M315 -13q-117 0 -189.5 103.5t-72.5 259.5q0 155 72.5 259t189.5 104q115 0 188 -104t73 -259t-73 -259t-188 -104zM315 30q94 0 154.5 91t60.5 229t-60.5 229t-154.5 91q-95 0 -155.5 -91t-60.5 -229t60.5 -229t155.5 -91z" />
    <glyph glyph-name="uniF63A" unicode="&#xf63a;" 
d="M79 0l1 36l247 239q81 78 114 127.5t33 112.5q0 68 -47.5 110.5t-126.5 42.5q-114 0 -206 -99v57q86 86 210 86q95 0 156 -54t61 -140q0 -70 -35 -126t-120 -139l-216 -210h399v-43h-470z" />
    <glyph glyph-name="uniF63B" unicode="&#xf63b;" 
d="M278 -12q-120 0 -201 51v50q79 -57 197 -57q88 0 152.5 50t64.5 135q0 79 -57.5 128.5t-152.5 49.5q-36 0 -70 -8v33l238 237h-340v43h404v-34l-231 -232q103 0 179 -57.5t76 -159.5t-74 -165.5t-185 -63.5z" />
    <glyph glyph-name="uniF63C" unicode="&#xf63c;" 
d="M426 0v203h-387v38l389 459h44v-454h119v-43h-119v-203h-46zM96 246h330v388z" />
    <glyph glyph-name="uniF63D" unicode="&#xf63d;" 
d="M271 -12q-112 0 -191 46v48q80 -50 190 -50q98 0 162 52.5t64 131.5q0 75 -59.5 125.5t-157.5 50.5q-87 0 -168 -28l46 336h336v-43h-300l-33 -236q54 15 129 15q109 0 181 -62t72 -158q0 -99 -77 -163.5t-194 -64.5z" />
    <glyph glyph-name="uniF63E" unicode="&#xf63e;" 
d="M334 -12q-120 0 -190 86t-70 241q0 172 82 284.5t217 112.5q84 0 145 -43v-45q-65 44 -142 44q-84 0 -143 -50.5t-86 -128.5t-27 -175q26 55 85 91.5t135 36.5q94 0 160.5 -62.5t66.5 -158.5q0 -101 -66.5 -167t-166.5 -66zM333 32q79 0 133.5 53.5t54.5 134.5
q0 80 -55 129t-136 49q-70 0 -126.5 -44t-79.5 -110q12 -100 64.5 -156t144.5 -56z" />
    <glyph glyph-name="uniF63F" unicode="&#xf63f;" 
d="M157 0l333 657h-394v43h448v-34l-338 -666h-49z" />
    <glyph glyph-name="uniF640" unicode="&#xf640;" 
d="M412 371q75 -18 119 -66t44 -118q0 -89 -74.5 -144t-186.5 -55t-187 55t-75 144q0 70 44 118t120 66q-59 19 -93.5 61.5t-34.5 100.5q0 80 64 129.5t162 49.5q97 0 161 -49.5t64 -129.5q0 -58 -34.5 -100.5t-92.5 -61.5zM135 530q0 -60 51 -99.5t129 -39.5q76 0 127 39.5
t51 99.5q0 61 -50.5 99.5t-127.5 38.5q-78 0 -129 -38t-51 -100zM313 32q91 0 153 45.5t62 112.5q0 70 -61.5 113.5t-153.5 43.5q-91 0 -152.5 -44t-61.5 -113q0 -67 62 -112.5t152 -45.5z" />
    <glyph glyph-name="uniF641" unicode="&#xf641;" 
d="M294 712q120 0 190 -86t70 -241q0 -172 -82 -284.5t-217 -112.5q-84 0 -145 43v45q65 -44 142 -44q84 0 143 50.5t86 128.5t27 175q-26 -55 -85 -91.5t-135 -36.5q-94 0 -160.5 62.5t-66.5 158.5q0 101 66.5 167t166.5 66zM295 668q-79 0 -133.5 -53.5t-54.5 -134.5
q0 -80 55 -129t136 -49q70 0 126.5 44t79.5 110q-12 100 -64.5 156t-144.5 56z" />
    <glyph glyph-name="uniF643" unicode="&#xf643;" 
d="M314 30q88 0 147.5 59.5t59.5 148.5t-59.5 149t-147.5 60t-147.5 -60t-59.5 -149t59.5 -148.5t147.5 -59.5zM314 -12q-112 0 -182.5 73.5t-70.5 176.5t70.5 177t182.5 74t182.5 -74t70.5 -177t-70.5 -176.5t-182.5 -73.5z" />
    <glyph glyph-name="uniF644" unicode="&#xf644;" 
d="M106 0v43h200v383l-161 -98v46l164 103h43v-434h193v-43h-439z" />
    <glyph glyph-name="uniF645" unicode="&#xf645;" 
d="M93 0v35q171 97 224 132q30 19 47 31t41.5 33t36.5 44.5t12 49.5q0 54 -41.5 87t-110.5 33q-105 0 -200 -87v52q85 79 203 79q88 0 141.5 -44.5t53.5 -113.5q0 -62 -43 -108t-114 -88q-20 -12 -60.5 -34.5t-71.5 -39.5t-32 -18h351v-43h-437z" />
    <glyph glyph-name="uniF646" unicode="&#xf646;" 
d="M272 -204q-119 0 -200 51v50q79 -57 198 -57q88 0 152 47.5t64 131.5q0 78 -57 124t-153 46q-41 0 -69 -7v33l235 219h-338v43h403v-34l-229 -215q65 0 121 -21t94.5 -70t38.5 -118q0 -101 -74.5 -162t-185.5 -61z" />
    <glyph glyph-name="uniF647" unicode="&#xf647;" 
d="M426 -200v200h-387v37l389 440h43v-434h120v-43h-120v-200h-45zM98 43h328v369z" />
    <glyph glyph-name="uniF648" unicode="&#xf648;" 
d="M268 -204q-111 0 -190 46v48q80 -50 189 -50q98 0 162 53t64 131q0 74 -59.5 122t-157.5 48q-89 0 -168 -29l44 312h336v-43h-299l-30 -211q57 15 127 15q109 0 181 -59.5t72 -154.5q0 -99 -77.5 -163.5t-193.5 -64.5z" />
    <glyph glyph-name="uniF649" unicode="&#xf649;" 
d="M334 -12q-120 0 -190 86t-70 241q0 172 82 284.5t217 112.5q84 0 145 -43v-45q-65 44 -142 44q-84 0 -143 -50.5t-86 -128.5t-27 -175q26 55 85 91.5t135 36.5q94 0 160.5 -62.5t66.5 -158.5q0 -101 -66.5 -167t-166.5 -66zM333 32q79 0 133.5 53.5t54.5 134.5
q0 80 -55 129t-136 49q-70 0 -126.5 -44t-79.5 -110q12 -100 64.5 -156t144.5 -56z" />
    <glyph glyph-name="uniF64A" unicode="&#xf64a;" 
d="M163 -200l321 634h-397v43h448v-35l-325 -642h-47z" />
    <glyph glyph-name="uniF64B" unicode="&#xf64b;" 
d="M412 371q75 -18 119 -66t44 -118q0 -89 -74.5 -144t-186.5 -55t-187 55t-75 144q0 70 44 118t120 66q-59 19 -93.5 61.5t-34.5 100.5q0 80 64 129.5t162 49.5q97 0 161 -49.5t64 -129.5q0 -58 -34.5 -100.5t-92.5 -61.5zM135 530q0 -60 51 -99.5t129 -39.5q76 0 127 39.5
t51 99.5q0 61 -50.5 99.5t-127.5 38.5q-78 0 -129 -38t-51 -100zM313 32q91 0 153 45.5t62 112.5q0 70 -61.5 113.5t-153.5 43.5q-91 0 -152.5 -44t-61.5 -113q0 -67 62 -112.5t152 -45.5z" />
    <glyph glyph-name="uniF64C" unicode="&#xf64c;" 
d="M295 489q120 0 190 -86t70 -241q0 -169 -80.5 -267.5t-218.5 -98.5q-84 0 -145 43v45q65 -44 142 -44q126 0 191 88.5t65 234.5q-26 -55 -85 -91.5t-135 -36.5q-94 0 -160.5 62.5t-66.5 158.5q0 101 66.5 167t166.5 66zM296 445q-79 0 -133.5 -53.5t-54.5 -134.5
q0 -80 55 -129t136 -49q70 0 126.5 44t79.5 110q-12 100 -64.5 156t-144.5 56z" />
    <glyph glyph-name="uniF64E" unicode="&#xf64e;" horiz-adv-x="572" 
d="M35 159v37h68q-3 21 -3 43q0 17 3 36h-68v37h76q20 80 85.5 128.5t156.5 48.5q80 0 144 -37v-44q-67 39 -139 39t-125.5 -36t-73.5 -99h234v-37h-243q-3 -18 -3 -37q0 -16 4 -42h242v-37h-232q20 -60 73.5 -94.5t123.5 -34.5q84 0 148 45v-45q-63 -42 -154 -42
q-89 0 -153.5 46.5t-86.5 124.5h-77z" />
    <glyph glyph-name="uniF653" unicode="&#xf653;" horiz-adv-x="493" 
d="M265 594v-106q95 -5 153 -43v-46q-79 48 -169 48q-70 0 -105.5 -24t-35.5 -63q0 -18 9 -32.5t20 -23t34 -17.5t37.5 -13t44.5 -11q38 -9 56 -14t49 -17t45.5 -25t26.5 -34.5t12 -49.5q0 -59 -50 -94t-127 -40v-106h-44v106q-113 6 -174 50v49q86 -58 196 -58
q70 0 111.5 25.5t41.5 68.5q0 21 -11 36.5t-33 26.5t-44 17.5t-55 15.5q-13 3 -20 5q-31 8 -52 14.5t-45.5 18t-39 24.5t-24.5 33t-10 45q0 54 41.5 88.5t117.5 39.5v106h44z" />
    <glyph glyph-name="commaaccent" unicode="&#xf6c3;" horiz-adv-x="226" 
d="M66 -218l55 168h50l-65 -168h-40z" />
    <glyph glyph-name="cyrbreve" unicode="&#xf6d4;" horiz-adv-x="504" 
d="M256 558q-70 0 -112.5 39.5t-42.5 102.5h41q0 -45 31 -74.5t83 -29.5q50 0 81 29.5t31 74.5h41q0 -62 -44 -102t-109 -40z" />
    <glyph glyph-name="uniF6DC" unicode="&#xf6dc;" 
d="M100 0v43h206v607l-161 -99v47l165 102h42v-657h197v-43h-449z" />
    <glyph glyph-name="uniF721" unicode="&#xf721;" horiz-adv-x="528" 
d="M285 -12q-86 0 -134.5 27t-48.5 77q0 47 47 76h-81v37h390v-37h-246q-25 -9 -43.5 -27.5t-18.5 -40.5q0 -33 35 -51.5t104 -18.5q86 0 148 27v-43q-68 -26 -152 -26zM68 280v37h265q55 24 55 63q0 67 -136 67q-80 0 -143 -29v43q64 28 152 28q81 0 127 -26.5t46 -75.5
q0 -47 -40 -70h64v-37h-390z" />
    <glyph glyph-name="uniF722" unicode="&#xf722;" horiz-adv-x="577" 
d="M117 477h233q82 0 127.5 -42t45.5 -110t-46.5 -109.5t-127.5 -41.5h-187v-70h215v-37h-215v-67h-45v67h-74v37h74v70h-74v41h74v262zM342 436h-180v-221h180q64 0 99.5 28.5t35.5 81.5t-35.5 82t-99.5 29z" />
    <glyph glyph-name="uniF725" unicode="&#xf725;" horiz-adv-x="547" 
d="M63 0v41h27q18 0 27 14t10.5 28t1.5 37v59h-66v41h66v74q0 96 52 145.5t149 49.5q84 0 149 -40v-45q-66 43 -144 43q-161 0 -161 -160v-67h250v-41h-250v-87q0 -34 -21 -51h329v-41h-419z" />
    <glyph glyph-name="uniF727" unicode="&#xf727;" horiz-adv-x="545" 
d="M250 0v90h-161v37h161v78h-161v37h147l-187 235h54l170 -214l170 214h53l-188 -235h147v-37h-160v-78h160v-37h-160v-90h-45z" />
    <glyph glyph-name="uniF730" unicode="&#xf730;" horiz-adv-x="616" 
d="M308 30q88 0 147.5 59.5t59.5 148.5t-59.5 149t-147.5 60t-147.5 -60t-59.5 -149t59.5 -148.5t147.5 -59.5zM308 -12q-112 0 -182.5 73.5t-70.5 176.5t70.5 177t182.5 74t182.5 -74t70.5 -177t-70.5 -176.5t-182.5 -73.5z" />
    <glyph glyph-name="uniF731" unicode="&#xf731;" horiz-adv-x="353" 
d="M199 0v426l-161 -98v46l164 103h43v-477h-46z" />
    <glyph glyph-name="uniF732" unicode="&#xf732;" horiz-adv-x="560" 
d="M59 0v35q171 97 224 132q30 19 47 31t41.5 33t36.5 44.5t12 49.5q0 54 -41.5 87t-110.5 33q-105 0 -200 -87v52q85 79 203 79q88 0 141.5 -44.5t53.5 -113.5q0 -62 -43 -108t-114 -88q-20 -12 -60.5 -34.5t-71.5 -39.5t-32 -18h351v-43h-437z" />
    <glyph glyph-name="uniF733" unicode="&#xf733;" horiz-adv-x="549" 
d="M229 -204q-119 0 -200 51v50q79 -57 198 -57q88 0 152 47.5t64 131.5q0 78 -57 124t-153 46q-41 0 -69 -7v33l235 219h-338v43h403v-34l-229 -215q65 0 121 -21t94.5 -70t38.5 -118q0 -101 -74.5 -162t-185.5 -61z" />
    <glyph glyph-name="uniF734" unicode="&#xf734;" horiz-adv-x="627" 
d="M426 -200v200h-387v37l389 440h43v-434h120v-43h-120v-200h-45zM98 43h328v369z" />
    <glyph glyph-name="uniF735" unicode="&#xf735;" horiz-adv-x="592" 
d="M259 -204q-111 0 -190 46v48q80 -50 189 -50q98 0 162 53t64 131q0 74 -59.5 122t-157.5 48q-89 0 -168 -29l44 312h336v-43h-299l-30 -211q57 15 127 15q109 0 181 -59.5t72 -154.5q0 -99 -77.5 -163.5t-193.5 -64.5z" />
    <glyph glyph-name="uniF736" unicode="&#xf736;" horiz-adv-x="638" 
d="M335 -12q-120 0 -190 86t-70 241q0 172 82 284.5t217 112.5q84 0 145 -43v-45q-65 44 -142 44q-84 0 -143 -50.5t-86 -128.5t-27 -175q26 55 85 91.5t135 36.5q94 0 160.5 -62.5t66.5 -158.5q0 -101 -66.5 -167t-166.5 -66zM334 32q79 0 133.5 53.5t54.5 134.5
q0 80 -55 129t-136 49q-70 0 -126.5 -44t-79.5 -110q12 -100 64.5 -156t144.5 -56z" />
    <glyph glyph-name="uniF737" unicode="&#xf737;" horiz-adv-x="529" 
d="M121 -200l321 634h-397v43h448v-35l-325 -642h-47z" />
    <glyph glyph-name="uniF738" unicode="&#xf738;" horiz-adv-x="646" 
d="M421 371q75 -18 119 -66t44 -118q0 -89 -74.5 -144t-186.5 -55t-187 55t-75 144q0 70 44 118t120 66q-59 19 -93.5 61.5t-34.5 100.5q0 80 64 129.5t162 49.5q97 0 161 -49.5t64 -129.5q0 -58 -34.5 -100.5t-92.5 -61.5zM144 530q0 -60 51 -99.5t129 -39.5q76 0 127 39.5
t51 99.5q0 61 -50.5 99.5t-127.5 38.5q-78 0 -129 -38t-51 -100zM322 32q91 0 153 45.5t62 112.5q0 70 -61.5 113.5t-153.5 43.5q-91 0 -152.5 -44t-61.5 -113q0 -67 62 -112.5t152 -45.5z" />
    <glyph glyph-name="uniF739" unicode="&#xf739;" horiz-adv-x="638" 
d="M302 489q120 0 190 -86t70 -241q0 -169 -80.5 -267.5t-218.5 -98.5q-84 0 -145 43v45q65 -44 142 -44q126 0 191 88.5t65 234.5q-26 -55 -85 -91.5t-135 -36.5q-94 0 -160.5 62.5t-66.5 158.5q0 101 66.5 167t166.5 66zM303 445q-79 0 -133.5 -53.5t-54.5 -134.5
q0 -80 55 -129t136 -49q70 0 126.5 44t79.5 110q-12 100 -64.5 156t-144.5 56z" />
    <glyph glyph-name="dotaccent.cap" horiz-adv-x="496" 
d="M208 825q0 16 11 27t27 11t27 -11t11 -27t-11 -27t-27 -11t-27 11t-11 27z" />
    <glyph glyph-name="pesolow.mono" 
d="M22 304v42h87v131h234q75 0 120 -36t52 -95h83v-42h-83q-6 -60 -52 -95.5t-121 -35.5h-188v-173h-45v304h-87zM336 436h-182v-223h182q64 0 99.5 29.5t35.5 82.5q0 52 -35.5 81.5t-99.5 29.5z" />
    <glyph glyph-name="uniF727.mono" 
d="M292 0v90h-161v37h161v78h-161v37h147l-187 235h54l170 -214l170 214h53l-188 -235h147v-37h-160v-78h160v-37h-160v-90h-45z" />
    <glyph glyph-name="gbreve.alt" horiz-adv-x="615" 
d="M291 578q-52 0 -89.5 37t-38.5 92h40q1 -39 26 -65t62 -26t62.5 26.5t26.5 64.5h39q0 -55 -37.5 -92t-90.5 -37zM292 489q93 0 155 -59l129 59v-40l-103 -49q34 -51 34 -109q0 -61 -34 -109q68 -65 68 -159q0 -93 -68.5 -160t-176.5 -67q-103 0 -172 61t-74 152h46
q5 -73 62 -122t138 -49q85 0 142 53.5t57 131.5q0 74 -50 126q-62 -57 -153 -57q-96 0 -156 58.5t-60 140.5q0 81 60 139.5t156 58.5zM292 134q73 0 121 44.5t48 111.5q0 68 -48 112.5t-121 44.5t-121 -44.5t-48 -112.5q0 -67 48 -111.5t121 -44.5z" />
    <glyph glyph-name="uniF653.mono" 
d="M327 594v-106q95 -5 153 -43v-46q-79 48 -169 48q-70 0 -105.5 -24t-35.5 -63q0 -18 9 -32.5t20 -23t34 -17.5t37.5 -13t44.5 -11q38 -9 56 -14t49 -17t45.5 -25t26.5 -34.5t12 -49.5q0 -59 -50 -94t-127 -40v-106h-44v106q-113 6 -174 50v49q86 -58 196 -58
q70 0 111.5 25.5t41.5 68.5q0 21 -11 36.5t-33 26.5t-44 17.5t-55 15.5q-13 3 -20 5q-31 8 -52 14.5t-45.5 18t-39 24.5t-24.5 33t-10 45q0 54 41.5 88.5t117.5 39.5v106h44z" />
    <glyph glyph-name="uniF725.mono" 
d="M86 0v41h27q18 0 27 14t10.5 28t1.5 37v59h-66v41h66v74q0 96 52 145.5t149 49.5q84 0 149 -40v-45q-66 43 -144 43q-161 0 -161 -160v-67h250v-41h-250v-87q0 -34 -21 -51h329v-41h-419z" />
    <glyph glyph-name="gcommaaccent.alt" horiz-adv-x="615" 
d="M292 489q93 0 155 -59l129 59v-40l-103 -49q34 -51 34 -109q0 -61 -34 -109q68 -65 68 -159q0 -93 -68.5 -160t-176.5 -67q-103 0 -172 61t-74 152h46q5 -73 62 -122t138 -49q85 0 142 53.5t57 131.5q0 74 -50 126q-62 -57 -153 -57q-96 0 -156 58.5t-60 140.5
q0 81 60 139.5t156 58.5zM292 134q73 0 121 44.5t48 111.5q0 68 -48 112.5t-121 44.5t-121 -44.5t-48 -112.5q0 -67 48 -111.5t121 -44.5zM351 720l-55 -168h-50l65 168h40z" />
    <glyph glyph-name="uniF722.mono" 
d="M138 477h233q82 0 127.5 -42t45.5 -110t-46.5 -109.5t-127.5 -41.5h-187v-70h215v-37h-215v-67h-45v67h-74v37h74v70h-74v41h74v262zM363 436h-180v-221h180q64 0 99.5 28.5t35.5 81.5t-35.5 82t-99.5 29z" />
    <glyph glyph-name="gcircumflex.alt" horiz-adv-x="615" 
d="M292 489q93 0 155 -59l129 59v-40l-103 -49q34 -51 34 -109q0 -61 -34 -109q68 -65 68 -159q0 -93 -68.5 -160t-176.5 -67q-103 0 -172 61t-74 152h46q5 -73 62 -122t138 -49q85 0 142 53.5t57 131.5q0 74 -50 126q-62 -57 -153 -57q-96 0 -156 58.5t-60 140.5
q0 81 60 139.5t156 58.5zM292 134q73 0 121 44.5t48 111.5q0 68 -48 112.5t-121 44.5t-121 -44.5t-48 -112.5q0 -67 48 -111.5t121 -44.5zM165 576l108 130h49l107 -130h-50l-82 99l-82 -99h-50z" />
    <glyph glyph-name="abreve.alt" horiz-adv-x="632" 
d="M299 -12q-108 0 -176 73.5t-68 176.5t68 177t176 74q126 0 197 -97v85h45v-477h-45v84q-70 -96 -197 -96zM307 30q62 0 114 33t75 85v180q-24 52 -76 85.5t-113 33.5q-88 0 -146.5 -60t-58.5 -149t58.5 -148.5t146.5 -59.5zM311 578q-52 0 -89.5 37t-38.5 92h40
q1 -39 26 -65t62 -26t62.5 26.5t26.5 64.5h39q0 -55 -37.5 -92t-90.5 -37z" />
    <glyph glyph-name="aogonek.alt" horiz-adv-x="632" 
d="M570 -193q-48 0 -77 28.5t-29 70.5q0 52 32 94v84q-70 -96 -197 -96q-108 0 -176 73.5t-68 176.5t68 177t176 74q126 0 197 -97v85h45v-477q-39 -44 -39 -89q0 -31 21.5 -50.5t54.5 -19.5q19 0 40 6v-34q-20 -6 -48 -6zM307 30q62 0 114 33t75 85v180q-24 52 -76 85.5
t-113 33.5q-88 0 -146.5 -60t-58.5 -149t58.5 -148.5t146.5 -59.5z" />
    <glyph glyph-name="amacron.alt" horiz-adv-x="632" 
d="M299 -12q-108 0 -176 73.5t-68 176.5t68 177t176 74q126 0 197 -97v85h45v-477h-45v84q-70 -96 -197 -96zM307 30q62 0 114 33t75 85v180q-24 52 -76 85.5t-113 33.5q-88 0 -146.5 -60t-58.5 -149t58.5 -148.5t146.5 -59.5zM200 625v38h230v-38h-230z" />
    <glyph glyph-name="uniF721.mono" 
d="M325 -12q-86 0 -134.5 27t-48.5 77q0 47 47 76h-81v37h390v-37h-246q-25 -9 -43.5 -27.5t-18.5 -40.5q0 -33 35 -51.5t104 -18.5q86 0 148 27v-43q-68 -26 -152 -26zM108 280v37h265q55 24 55 63q0 67 -136 67q-80 0 -143 -29v43q64 28 152 28q81 0 127 -26.5t46 -75.5
q0 -47 -40 -70h64v-37h-390z" />
    <glyph glyph-name="uni20B4.mono" 
d="M330 -12q-105 0 -161.5 40t-56.5 109q0 79 70 131h-109v43h473v-43h-296q-91 -51 -91 -124q0 -54 44.5 -83t130.5 -29q96 0 172 38v-46q-72 -36 -176 -36zM73 407v43h325q71 44 71 110q0 108 -169 108q-88 0 -165 -36v46q71 34 168 34q104 0 159 -40.5t55 -107.5
q0 -68 -57 -114h86v-43h-473z" />
    <glyph glyph-name="breve.cap" horiz-adv-x="520" 
d="M259 763q-53 0 -90 37.5t-38 92.5h40q1 -39 26 -65.5t62 -26.5t62.5 26.5t26.5 65.5h39q-1 -55 -38 -92.5t-90 -37.5z" />
    <glyph glyph-name="Q.alt01" horiz-adv-x="849" 
d="M423 -12q-149 0 -248.5 103t-99.5 259q0 155 99.5 258.5t248.5 103.5q148 0 248 -103.5t100 -258.5q0 -149 -94 -253l87 -97h-56l-61 69q-95 -81 -224 -81zM423 32q111 0 193 71l-189 214h55l164 -185q78 91 78 218q0 136 -87 227t-214 91t-214 -91t-87 -227t87 -227
t214 -91z" />
    <glyph glyph-name="hungarumlaut.cap" horiz-adv-x="550" 
d="M277 763l97 130h60l-108 -130h-49zM133 763l96 130h62l-109 -130h-49z" />
    <glyph glyph-name="gdotaccent.alt" horiz-adv-x="615" 
d="M292 489q93 0 155 -59l129 59v-40l-103 -49q34 -51 34 -109q0 -61 -34 -109q68 -65 68 -159q0 -93 -68.5 -160t-176.5 -67q-103 0 -172 61t-74 152h46q5 -73 62 -122t138 -49q85 0 142 53.5t57 131.5q0 74 -50 126q-62 -57 -153 -57q-96 0 -156 58.5t-60 140.5
q0 81 60 139.5t156 58.5zM292 134q73 0 121 44.5t48 111.5q0 68 -48 112.5t-121 44.5t-121 -44.5t-48 -112.5q0 -67 48 -111.5t121 -44.5zM254 646q0 16 11 27t27 11t27 -11t11 -27t-11 -27t-27 -11t-27 11t-11 27z" />
    <glyph glyph-name="cyrbreve.cap" horiz-adv-x="541" 
d="M260 755q-71 0 -113.5 39t-43.5 104h41q0 -47 31.5 -76t84.5 -29q51 0 82.5 29.5t31.5 75.5h41q-1 -64 -44.5 -103.5t-110.5 -39.5z" />
    <glyph glyph-name="idieresis_idieresis" horiz-adv-x="476" 
d="M104 0v477h45v-477h-45zM327 0v477h45v-477h-45zM409 645q0 15 10.5 25.5t25.5 10.5t25.5 -10.5t10.5 -25.5t-10.5 -25.5t-25.5 -10.5t-25.5 10.5t-10.5 25.5zM-5 645q0 15 10.5 25.5t25.5 10.5t25.5 -10.5t10.5 -25.5t-10.5 -25.5t-25.5 -10.5t-25.5 10.5t-10.5 25.5z
M202 645q0 15 10.5 25.5t25.5 10.5t25.5 -10.5t10.5 -25.5t-10.5 -25.5t-25.5 -10.5t-25.5 10.5t-10.5 25.5z" />
    <glyph glyph-name="caron.cap" horiz-adv-x="527" 
d="M239 763l-107 130h49l82 -99l82 99h50l-108 -130h-48z" />
    <glyph glyph-name="ring.cap" horiz-adv-x="521" 
d="M260 736q-39 0 -67 27.5t-28 65.5t28 65.5t67 27.5q38 0 65 -27.5t27 -65.5t-27 -65.5t-65 -27.5zM260 769q25 0 42.5 17.5t17.5 42.5q0 26 -17.5 43.5t-42.5 17.5q-26 0 -43.5 -17.5t-17.5 -43.5q0 -25 17.5 -42.5t43.5 -17.5z" />
    <glyph glyph-name="grave.cap" horiz-adv-x="518" 
d="M273 763l-109 130h62l96 -130h-49z" />
    <glyph glyph-name="acute.cap" horiz-adv-x="504" 
d="M167 763l96 130h61l-108 -130h-49z" />
    <glyph glyph-name="macron.cap" horiz-adv-x="528" 
d="M146 808v40h233v-40h-233z" />
    <glyph glyph-name="dieresis.cap" horiz-adv-x="517" 
d="M321 825q0 15 10.5 25.5t25.5 10.5t25.5 -10.5t10.5 -25.5t-10.5 -25.5t-25.5 -10.5t-25.5 10.5t-10.5 25.5zM131 825q0 15 10.5 25.5t25.5 10.5t25.5 -10.5t10.5 -25.5t-10.5 -25.5t-25.5 -10.5t-25.5 10.5t-10.5 25.5z" />
    <glyph glyph-name="circumflex.cap" horiz-adv-x="521" 
d="M127 763l108 130h49l107 -130h-50l-82 99l-82 -99h-50z" />
    <glyph glyph-name="franc.mono" 
d="M115 0v165h-119v43h119v492h463v-43h-417v-268h346v-43h-346v-138h183v-43h-183v-165h-46z" />
    <glyph glyph-name="aacute.alt" horiz-adv-x="632" 
d="M299 -12q-108 0 -176 73.5t-68 176.5t68 177t176 74q126 0 197 -97v85h45v-477h-45v84q-70 -96 -197 -96zM307 30q62 0 114 33t75 85v180q-24 52 -76 85.5t-113 33.5q-88 0 -146.5 -60t-58.5 -149t58.5 -148.5t146.5 -59.5zM259 577l96 130h61l-108 -130h-49z" />
    <glyph glyph-name="agrave.alt" horiz-adv-x="632" 
d="M299 -12q-108 0 -176 73.5t-68 176.5t68 177t176 74q126 0 197 -97v85h45v-477h-45v84q-70 -96 -197 -96zM307 30q62 0 114 33t75 85v180q-24 52 -76 85.5t-113 33.5q-88 0 -146.5 -60t-58.5 -149t58.5 -148.5t146.5 -59.5zM316 577l-109 130h62l96 -130h-49z" />
    <glyph glyph-name="acircumflex.alt" horiz-adv-x="632" 
d="M299 -12q-108 0 -176 73.5t-68 176.5t68 177t176 74q126 0 197 -97v85h45v-477h-45v84q-70 -96 -197 -96zM307 30q62 0 114 33t75 85v180q-24 52 -76 85.5t-113 33.5q-88 0 -146.5 -60t-58.5 -149t58.5 -148.5t146.5 -59.5zM177 576l108 130h49l107 -130h-50l-82 99
l-82 -99h-50z" />
    <glyph glyph-name="adieresis.alt" horiz-adv-x="632" 
d="M299 -12q-108 0 -176 73.5t-68 176.5t68 177t176 74q126 0 197 -97v85h45v-477h-45v84q-70 -96 -197 -96zM307 30q62 0 114 33t75 85v180q-24 52 -76 85.5t-113 33.5q-88 0 -146.5 -60t-58.5 -149t58.5 -148.5t146.5 -59.5zM367 645q0 15 10.5 25.5t25.5 10.5t25.5 -10.5
t10.5 -25.5t-10.5 -25.5t-25.5 -10.5t-25.5 10.5t-10.5 25.5zM177 645q0 15 10.5 25.5t25.5 10.5t25.5 -10.5t10.5 -25.5t-10.5 -25.5t-25.5 -10.5t-25.5 10.5t-10.5 25.5z" />
    <glyph glyph-name="atilde.alt" horiz-adv-x="632" 
d="M299 -12q-108 0 -176 73.5t-68 176.5t68 177t176 74q126 0 197 -97v85h45v-477h-45v84q-70 -96 -197 -96zM307 30q62 0 114 33t75 85v180q-24 52 -76 85.5t-113 33.5q-88 0 -146.5 -60t-58.5 -149t58.5 -148.5t146.5 -59.5zM384 593q-28 0 -75.5 31.5t-67.5 31.5
q-37 0 -41 -57h-36q2 44 22.5 70.5t53.5 26.5q28 0 75.5 -31t65.5 -31q36 0 42 57h36q-2 -44 -22 -71t-53 -27z" />
    <glyph glyph-name="lira.mono" 
d="M80 0v43h24q45 0 45 77v103h-69v43h69v114h-69v43h69v68q0 105 58.5 163t161.5 58q95 0 163 -46v-48q-65 50 -159 50q-86 0 -132 -47t-46 -136v-62h284v-43h-284v-114h284v-43h-284v-128q0 -36 -22 -52h363v-43h-456z" />
    <glyph glyph-name="aring.alt" horiz-adv-x="632" 
d="M309 552q-40 0 -67.5 27.5t-27.5 65.5t27.5 65.5t67.5 27.5q37 0 64 -27.5t27 -65.5t-27 -65.5t-64 -27.5zM309 585q25 0 42.5 17.5t17.5 42.5q0 26 -17.5 43.5t-42.5 17.5q-26 0 -44 -17.5t-18 -43.5q0 -25 18 -42.5t44 -17.5zM299 -12q-108 0 -176 73.5t-68 176.5
t68 177t176 74q126 0 197 -97v85h45v-477h-45v84q-70 -96 -197 -96zM307 30q62 0 114 33t75 85v180q-24 52 -76 85.5t-113 33.5q-88 0 -146.5 -60t-58.5 -149t58.5 -148.5t146.5 -59.5z" />
    <glyph glyph-name="Q.alt02" horiz-adv-x="850" 
d="M342 -3q-119 26 -193 123t-74 230q0 155 99.5 258.5t248.5 103.5q148 0 248 -103.5t100 -258.5q0 -143 -86 -243.5t-218 -115.5q27 -9 76.5 -34.5t94.5 -42t86 -16.5q45 0 77 23v-47q-33 -20 -78 -20q-54 0 -114 26.5t-115.5 53t-97.5 26.5q-88 0 -152 -67v52
q40 38 98 52zM423 32q127 0 214 91t87 227t-87 227t-214 91t-214 -91t-87 -227t87 -227t214 -91z" />
    <glyph glyph-name="T_h" horiz-adv-x="1083" 
d="M614 0h-45v657h-236v-657h-46v657h-251v43h578v-306q32 39 85.5 67t117.5 28q91 0 138 -52t47 -147v-290h-45v281q0 51 -14.5 86t-39 51t-48 22.5t-51.5 6.5q-55 0 -109 -33.5t-81 -77.5v-336z" />
    <glyph glyph-name="f_j" horiz-adv-x="565" 
d="M335 -204q-47 0 -77 18v43q33 -19 69 -19q89 0 89 103v495h-244v-436h-45v436h-99v41h99v95q0 63 32.5 99t93.5 36q52 0 93 -20v-43q-44 21 -84 21q-43 0 -66.5 -27t-23.5 -76v-85h289v-544q0 -73 -35.5 -105t-90.5 -32zM438 608q-16 0 -27 11t-11 27t11 27t27 11t27 -11
t11 -27t-11 -27t-27 -11z" />
    <glyph glyph-name="f.alt01" horiz-adv-x="337" 
d="M135 0h-45v572q0 63 32.5 99t93.5 36q52 0 93 -20v-43q-44 21 -84 21q-43 0 -66.5 -27t-23.5 -76v-85h174v-41h-174v-436z" />
    <glyph glyph-name="t.alt" horiz-adv-x="354" 
d="M206 -12q-62 0 -93 36.5t-31 100.5v506h45v-154h178v-41h-178v-299q0 -58 21.5 -82.5t68.5 -24.5q42 0 81 22v-42q-31 -22 -92 -22z" />
    <glyph glyph-name="f_f_t" horiz-adv-x="977" 
d="M172 0h-45v436h-99v41h99v95q0 63 32.5 99t93.5 36q52 0 93 -20v-43q-44 21 -84 21q-43 0 -66.5 -27t-23.5 -76v-85h244v95q0 63 32.5 99t93.5 36q52 0 93 -20v-43q-44 21 -84 21q-43 0 -66.5 -27t-23.5 -76v-85h244v154h45v-154h178v-41h-178v-299q0 -58 21.5 -82.5
t68.5 -24.5q42 0 81 22v-42q-31 -22 -92 -22q-62 0 -93 36.5t-31 100.5v311h-244v-436h-45v436h-244v-436z" />
    <glyph glyph-name="uni043F_uni0438" horiz-adv-x="979" 
d="M90 0v477h415v-409l342 409h41v-477h-45v408l-341 -408h-42v436h-325v-436h-45z" />
    <glyph glyph-name="uni041F_uni0418" horiz-adv-x="1261" 
d="M105 0v700h535v-622l473 622h42v-700h-46v624l-475 -624h-40v657h-443v-657h-46z" />
    <glyph glyph-name="uni041D_uni0418" horiz-adv-x="1275" 
d="M608 0v355h-457v-355h-46v700h46v-302h457v302h46v-622l473 622h42v-700h-46v624l-475 -624h-40z" />
    <glyph glyph-name="uni043D_uni0438" horiz-adv-x="987" 
d="M468 0v225h-333v-225h-45v477h45v-211h333v211h45v-409l342 409h41v-477h-45v408l-341 -408h-42z" />
    <glyph glyph-name="uni0418_uni041D" horiz-adv-x="1275" 
d="M105 0v700h46v-622l473 622h42v-302h457v302h46v-700h-46v355h-457v-355h-46v624l-475 -624h-40z" />
    <glyph glyph-name="uni0438_uni043D" horiz-adv-x="987" 
d="M90 0v477h45v-409l342 409h41v-211h333v211h45v-477h-45v225h-333v-225h-45v408l-341 -408h-42z" />
    <glyph glyph-name="uni0438_uni0439" horiz-adv-x="992" 
d="M90 0v477h45v-409l342 409h41v-409l342 409h41v-477h-45v408l-341 -408h-42v408l-341 -408h-42zM687 558q-70 0 -112.5 39.5t-42.5 102.5h41q0 -45 31 -74.5t83 -29.5q50 0 81 29.5t31 74.5h41q0 -62 -44 -102t-109 -40z" />
    <glyph glyph-name="uni0418_uni0419" horiz-adv-x="1287" 
d="M105 0v700h46v-622l473 622h42v-622l473 622h42v-700h-46v624l-475 -624h-40v624l-475 -624h-40zM901 755q-71 0 -113.5 39t-43.5 104h41q0 -47 31.5 -76t84.5 -29q51 0 82.5 29.5t31.5 75.5h41q-1 -64 -44.5 -103.5t-110.5 -39.5z" />
    <glyph glyph-name="tilde.cap" horiz-adv-x="519" 
d="M334 776q-28 0 -75 31.5t-66 31.5q-39 0 -43 -57h-36q2 44 22 70t54 26q28 0 75.5 -30.5t66.5 -30.5q36 0 42 57h36q-2 -44 -22 -71t-54 -27z" />
    <glyph glyph-name="Euro.mono" 
d="M417 -12q-122 0 -205.5 74.5t-103.5 200.5h-93v43h88q-2 16 -2 49q0 37 4 65h-90v43h98q26 113 107 181t197 68q104 0 178 -52v-49q-77 57 -175 57q-96 0 -165 -55t-94 -150h276v-43h-284q-6 -32 -6 -65q0 -19 2 -49h288v-43h-281q19 -107 89 -169t175 -62q115 0 191 71
v-51q-77 -64 -194 -64z" />
    <glyph glyph-name="sterling.mono" 
d="M80 0v43h24q45 0 45 77v184h-69v43h69v144q0 105 58 163t162 58q95 0 163 -46v-48q-65 50 -159 50q-86 0 -132 -47t-46 -136v-138h294v-43h-294v-209q0 -37 -23 -52h363v-43h-455z" />
    <glyph glyph-name="yen.mono" 
d="M291 0v149h-215v43h215v114h-215v43h197l-237 351h54l224 -333l225 333h53l-238 -351h199v-43h-216v-114h216v-43h-216v-149h-46z" />
    <glyph glyph-name="t_t" horiz-adv-x="711" 
d="M274 -12q-62 0 -93 36.5t-31 100.5v311h-122v41h122v154h45v-154h244v154h45v-154h178v-41h-178v-299q0 -58 21.5 -82.5t68.5 -24.5q42 0 81 22v-42q-31 -22 -92 -22q-62 0 -93 36.5t-31 100.5v311h-244v-299q0 -58 21.5 -82.5t68.5 -24.5q42 0 81 22v-42
q-31 -22 -92 -22z" />
    <glyph glyph-name="dollar.mono" 
d="M327 814v-103q106 -6 187 -58v-49q-96 64 -210 64q-93 0 -140.5 -38t-47.5 -92q0 -23 6.5 -41t21.5 -32.5t28 -24t39.5 -19.5t42.5 -15t48 -14l21 -6q44 -13 68.5 -21t60.5 -25.5t55 -36.5t33.5 -50t14.5 -70q0 -86 -65.5 -137t-162.5 -57v-103h-47v103q-72 4 -134.5 25
t-97.5 49v53q40 -34 107.5 -59t144.5 -25q91 0 149.5 41t58.5 110q0 30 -12 54t-28 39t-48 29.5t-55.5 21.5t-66.5 19q-47 13 -74.5 22.5t-61 26t-51 34.5t-29.5 46t-12 64q0 70 54.5 118.5t155.5 53.5v103h47z" />
    <glyph glyph-name="franclow.mono" 
d="M140 0v68h-80v37h80v372h375v-42h-330v-184h267v-40h-267v-106h141v-37h-141v-68h-45z" />
    <glyph glyph-name="uniF64E.mono" 
d="M60 159v37h68q-3 21 -3 43q0 17 3 36h-68v37h76q20 80 85.5 128.5t156.5 48.5q80 0 144 -37v-44q-67 39 -139 39t-125.5 -36t-73.5 -99h234v-37h-243q-3 -18 -3 -37q0 -16 4 -42h242v-37h-232q20 -60 73.5 -94.5t123.5 -34.5q84 0 148 45v-45q-63 -42 -154 -42
q-89 0 -153.5 46.5t-86.5 124.5h-77z" />
    <glyph glyph-name="peseta.mono" 
d="M62 0v489h-87v43h87v168h291q96 0 152 -45.5t63 -122.5h79v-43h-80q-8 -76 -63.5 -121t-150.5 -45h-245v-323h-46zM108 366h241q83 0 128.5 38t45.5 108q0 69 -45.5 107t-128.5 38h-241v-291z" />
    <glyph glyph-name="uni2156.mono" horiz-adv-x="832" 
d="M211 0l407 700h48l-407 -700h-48zM53 322v32l128 120q40 37 57.5 63t17.5 56q0 32 -23 52t-61 20q-61 0 -111 -47v45q48 42 115 42q53 0 88 -30t35 -77q0 -38 -20 -70.5t-64 -73.5l-99 -95h197v-37h-260zM631 -5q-60 0 -107 26v41q50 -29 105 -29q47 0 78 25t31 63
q0 36 -28.5 60t-76.5 24q-51 0 -94 -15l25 188h192v-37h-160l-13 -107q21 6 58 6q60 0 100 -33t40 -86q0 -55 -43.5 -90.5t-106.5 -35.5z" />
    <glyph glyph-name="uni2157.mono" horiz-adv-x="832" 
d="M189 0l407 700h48l-407 -700h-48zM636 -5q-60 0 -107 26v41q50 -29 105 -29q47 0 78 25t31 63q0 36 -28.5 60t-76.5 24q-50 0 -94 -15l25 188h192v-37h-160l-13 -107q21 6 58 6q60 0 100 -33t40 -86q0 -55 -43.5 -90.5t-106.5 -35.5zM157 317q-67 0 -112 29v40
q50 -31 110 -31q42 0 73.5 24t31.5 63q0 38 -27.5 60.5t-73.5 22.5q-25 0 -44 -6v29l116 115h-170v37h228v-31l-114 -112q52 -3 89.5 -31.5t37.5 -83.5t-41.5 -90t-103.5 -35z" />
    <glyph glyph-name="uni2158.mono" horiz-adv-x="832" 
d="M213 0l407 700h48l-407 -700h-48zM633 -5q-60 0 -107 26v41q50 -29 105 -29q47 0 78 25t31 63q0 36 -28.5 60t-76.5 24q-51 0 -94 -15l25 188h192v-37h-160l-13 -107q21 6 58 6q60 0 100 -33t40 -86q0 -55 -43.5 -90.5t-106.5 -35.5zM252 322v103h-202v32l204 243h40
v-239h62v-36h-62v-103h-42zM100 461h152v182z" />
    <glyph glyph-name="uni2159.mono" horiz-adv-x="832" 
d="M163 0l407 700h48l-407 -700h-48zM174 322v333l-104 -63v43l107 65h40v-378h-43zM636 -5q-70 0 -107.5 49t-37.5 128q0 91 44.5 151t120.5 60q49 0 84 -22v-40q-35 24 -79 24q-56 0 -92 -42.5t-37 -112.5q39 53 111 53q52 0 87.5 -33.5t35.5 -87.5q0 -55 -37.5 -91
t-92.5 -36zM634 32q39 0 64.5 25.5t25.5 64.5q0 38 -26 62t-64 24q-32 0 -58 -18t-41 -47q2 -49 28.5 -80t70.5 -31z" />
    <glyph glyph-name="uni215A.mono" horiz-adv-x="832" 
d="M187 0l407 700h48l-407 -700h-48zM660 -5q-70 0 -107.5 49t-37.5 128q0 91 44.5 151t120.5 60q49 0 84 -22v-40q-35 24 -79 24q-56 0 -92 -42.5t-37 -112.5q39 53 111 53q52 0 87.5 -33.5t35.5 -87.5q0 -55 -37.5 -91t-92.5 -36zM658 32q39 0 64.5 25.5t25.5 64.5
q0 38 -26 62t-64 24q-32 0 -58 -18t-41 -47q2 -49 28.5 -80t70.5 -31zM150 317q-60 0 -107 26v41q50 -29 105 -29q47 0 78 25t31 63q0 36 -28.5 60t-76.5 24q-50 0 -94 -15l25 188h192v-37h-160l-13 -107q21 6 58 6q60 0 100 -33t40 -86q0 -55 -43.5 -90.5t-106.5 -35.5z
" />
    <glyph glyph-name="uni2155.mono" horiz-adv-x="832" 
d="M165 0l407 700h48l-407 -700h-48zM177 322v333l-104 -63v43l107 65h40v-378h-43zM611 -5q-60 0 -107 26v41q50 -29 105 -29q47 0 78 25t31 63q0 36 -28.5 60t-76.5 24q-51 0 -94 -15l25 188h192v-37h-160l-13 -107q21 6 58 6q60 0 100 -33t40 -86q0 -55 -43.5 -90.5
t-106.5 -35.5z" />
    <glyph glyph-name="twothirds.mono" horiz-adv-x="832" 
d="M202 0l407 700h48l-407 -700h-48zM44 322v32l128 120q40 37 57.5 63t17.5 56q0 32 -23 52t-61 20q-61 0 -111 -47v45q48 42 115 42q53 0 88 -30t35 -77q0 -38 -20 -70.5t-64 -73.5l-99 -95h197v-37h-260zM648 -5q-67 0 -112 29v40q50 -31 110 -31q42 0 73.5 24t31.5 63
q0 38 -27.5 60.5t-73.5 22.5q-24 0 -44 -6v29l116 115h-170v37h228v-31l-114 -112q52 -3 89.5 -31.5t37.5 -83.5t-41.5 -90t-103.5 -35z" />
    <glyph glyph-name="onethird.mono" horiz-adv-x="832" 
d="M155 0l407 700h48l-407 -700h-48zM166 322v333l-104 -63v43l107 65h40v-378h-43zM626 -5q-67 0 -112 29v40q50 -31 110 -31q42 0 73.5 24t31.5 63q0 38 -27.5 60.5t-73.5 22.5q-24 0 -44 -6v29l116 115h-170v37h228v-31l-114 -112q52 -3 89.5 -31.5t37.5 -83.5t-41.5 -90
t-103.5 -35z" />
    <glyph glyph-name="seveneighths.mono" horiz-adv-x="844" 
d="M153 0l407 700h48l-407 -700h-48zM629 -5q-63 0 -104.5 29.5t-41.5 79.5q0 70 77 98q-57 23 -57 82q0 44 36 71.5t90 27.5q55 0 91 -27.5t36 -71.5q0 -59 -57 -82q77 -28 77 -98q0 -50 -42 -79.5t-105 -29.5zM629 31q45 0 74.5 21.5t29.5 54.5q0 35 -29 55.5t-75 20.5
t-74.5 -20.5t-28.5 -55.5q0 -33 29 -54.5t74 -21.5zM629 216q38 0 62.5 17.5t24.5 46.5q0 31 -24.5 49t-62.5 18t-62 -18t-24 -49q0 -29 24.5 -46.5t61.5 -17.5zM102 322l175 341h-203v37h251v-33l-176 -345h-47z" />
    <glyph glyph-name="fiveeighths.mono" horiz-adv-x="844" 
d="M181 0l407 700h48l-407 -700h-48zM150 317q-60 0 -107 26v41q50 -29 105 -29q47 0 78 25t31 63q0 36 -28.5 60t-76.5 24q-50 0 -94 -15l25 188h192v-37h-160l-13 -107q21 6 58 6q60 0 100 -33t40 -86q0 -55 -43.5 -90.5t-106.5 -35.5zM657 -5q-63 0 -104.5 29.5
t-41.5 79.5q0 70 77 98q-57 23 -57 82q0 44 36 71.5t90 27.5q55 0 91 -27.5t36 -71.5q0 -59 -57 -82q77 -28 77 -98q0 -50 -42 -79.5t-105 -29.5zM657 31q45 0 74.5 21.5t29.5 54.5q0 35 -29 55.5t-75 20.5t-74.5 -20.5t-28.5 -55.5q0 -33 29 -54.5t74 -21.5zM657 216
q38 0 62.5 17.5t24.5 46.5q0 31 -24.5 49t-62.5 18t-62 -18t-24 -49q0 -29 24.5 -46.5t61.5 -17.5z" />
    <glyph glyph-name="threeeighths.mono" horiz-adv-x="844" 
d="M181 0l407 700h48l-407 -700h-48zM657 -5q-63 0 -104.5 29.5t-41.5 79.5q0 70 77 98q-57 23 -57 82q0 44 36 71.5t90 27.5q55 0 91 -27.5t36 -71.5q0 -59 -57 -82q77 -28 77 -98q0 -50 -42 -79.5t-105 -29.5zM657 31q45 0 74.5 21.5t29.5 54.5q0 35 -29 55.5t-75 20.5
t-74.5 -20.5t-28.5 -55.5q0 -33 29 -54.5t74 -21.5zM657 216q38 0 62.5 17.5t24.5 46.5q0 31 -24.5 49t-62.5 18t-62 -18t-24 -49q0 -29 24.5 -46.5t61.5 -17.5zM148 317q-67 0 -112 29v40q50 -31 110 -31q42 0 73.5 24t31.5 63q0 38 -27.5 60.5t-73.5 22.5q-24 0 -44 -6v29
l116 115h-170v37h228v-31l-114 -112q52 -3 89.5 -31.5t37.5 -83.5t-41.5 -90t-103.5 -35z" />
    <glyph glyph-name="oneeighth.mono" horiz-adv-x="844" 
d="M154 0l407 700h48l-407 -700h-48zM166 322v333l-104 -63v43l107 65h40v-378h-43zM631 -5q-63 0 -104.5 29.5t-41.5 79.5q0 70 77 98q-57 23 -57 82q0 44 36 71.5t90 27.5q55 0 91 -27.5t36 -71.5q0 -59 -57 -82q77 -28 77 -98q0 -50 -42 -79.5t-105 -29.5zM631 31
q45 0 74.5 21.5t29.5 54.5q0 35 -29 55.5t-75 20.5t-74.5 -20.5t-28.5 -55.5q0 -33 29 -54.5t74 -21.5zM631 216q38 0 62.5 17.5t24.5 46.5q0 31 -24.5 49t-62.5 18t-62 -18t-24 -49q0 -29 24.5 -46.5t61.5 -17.5z" />
    <glyph glyph-name="onequarter.mono" horiz-adv-x="832" 
d="M168 0l407 700h48l-407 -700h-48zM180 322v333l-104 -63v43l107 65h40v-378h-43zM654 0v103h-202v32l204 243h40v-239h62v-36h-62v-103h-42zM502 139h152v182z" />
    <glyph glyph-name="onehalf.mono" horiz-adv-x="832" 
d="M148 0l407 700h48l-407 -700h-48zM159 322v333l-104 -63v43l107 65h40v-378h-43zM517 0v32l128 120q40 37 57.5 63t17.5 56q0 32 -23 52t-61 20q-61 0 -111 -47v45q48 42 115 42q53 0 88 -30t35 -77q0 -38 -20 -70.5t-64 -73.5l-99 -95h197v-37h-260z" />
    <glyph glyph-name="threequarters.mono" horiz-adv-x="832" 
d="M191 0l407 700h48l-407 -700h-48zM676 0v103h-202v32l204 243h40v-239h62v-36h-62v-103h-42zM524 139h152v182zM159 317q-67 0 -112 29v40q50 -31 110 -31q42 0 73.5 24t31.5 63q0 38 -27.5 60.5t-73.5 22.5q-25 0 -44 -6v29l116 115h-170v37h228v-31l-114 -112
q52 -3 89.5 -31.5t37.5 -83.5t-41.5 -90t-103.5 -35z" />
    <glyph glyph-name="Idieresis_Idieresis" horiz-adv-x="509" 
d="M111 0v700h46v-700h-46zM352 0v700h46v-700h-46zM434 825q0 15 10.5 25.5t25.5 10.5t25.5 -10.5t10.5 -25.5t-10.5 -25.5t-25.5 -10.5t-25.5 10.5t-10.5 25.5zM3 825q0 15 10.5 25.5t25.5 10.5t25.5 -10.5t10.5 -25.5t-10.5 -25.5t-25.5 -10.5t-25.5 10.5t-10.5 25.5z
M218 825q0 15 10.5 25.5t25.5 10.5t25.5 -10.5t10.5 -25.5t-10.5 -25.5t-25.5 -10.5t-25.5 10.5t-10.5 25.5z" />
    <glyph glyph-name="O_C" horiz-adv-x="1342" 
d="M1076 -12q-113 0 -201.5 61t-127.5 164q-38 -102 -125.5 -163.5t-198.5 -61.5q-149 0 -248.5 103t-99.5 259q0 155 99.5 258.5t248.5 103.5q111 0 198.5 -62t125.5 -164q38 103 126.5 164.5t202.5 61.5t200 -55v-50q-91 61 -199 61q-129 0 -217.5 -90.5t-88.5 -227.5
t88.5 -227.5t218.5 -90.5q124 0 214 73v-51q-87 -66 -216 -66zM423 32q127 0 214 91t87 227t-87 227t-214 91t-214 -91t-87 -227t87 -227t214 -91z" />
    <glyph glyph-name="O_O" horiz-adv-x="1495" 
d="M1072 -12q-113 0 -200 61.5t-125 163.5q-38 -102 -125.5 -163.5t-198.5 -61.5q-149 0 -248.5 103t-99.5 259q0 155 99.5 258.5t248.5 103.5q111 0 198.5 -62t125.5 -164q38 103 125 164.5t200 61.5q148 0 248 -103.5t100 -258.5t-100 -258.5t-248 -103.5zM1072 32
q127 0 214 91t87 227t-87 227t-214 91t-214 -91t-87 -227t87 -227t214 -91zM423 32q127 0 214 91t87 227t-87 227t-214 91t-214 -91t-87 -227t87 -227t214 -91z" />
    <glyph glyph-name="o_c" horiz-adv-x="984" 
d="M766 -12q-78 0 -138 39t-90 104q-30 -65 -90 -104t-140 -39q-112 0 -182.5 73.5t-70.5 176.5t70.5 177t182.5 74q80 0 140 -39.5t90 -104.5q29 65 89.5 104.5t139.5 39.5q80 0 144 -37v-44q-67 39 -139 39q-90 0 -150.5 -60t-60.5 -149t60.5 -148.5t150.5 -59.5
q84 0 148 45v-45q-63 -42 -154 -42zM308 30q88 0 147.5 59.5t59.5 148.5t-59.5 149t-147.5 60t-147.5 -60t-59.5 -149t59.5 -148.5t147.5 -59.5z" />
    <glyph glyph-name="g.alt" horiz-adv-x="615" 
d="M292 489q93 0 155 -59l129 59v-40l-103 -49q34 -51 34 -109q0 -61 -34 -109q68 -65 68 -159q0 -93 -68.5 -160t-176.5 -67q-103 0 -172 61t-74 152h46q5 -73 62 -122t138 -49q85 0 142 53.5t57 131.5q0 74 -50 126q-62 -57 -153 -57q-96 0 -156 58.5t-60 140.5
q0 81 60 139.5t156 58.5zM292 134q73 0 121 44.5t48 111.5q0 68 -48 112.5t-121 44.5t-121 -44.5t-48 -112.5q0 -67 48 -111.5t121 -44.5z" />
    <glyph glyph-name="a.alt" horiz-adv-x="632" 
d="M299 -12q-108 0 -176 73.5t-68 176.5t68 177t176 74q126 0 197 -97v85h45v-477h-45v84q-70 -96 -197 -96zM307 30q62 0 114 33t75 85v180q-24 52 -76 85.5t-113 33.5q-88 0 -146.5 -60t-58.5 -149t58.5 -148.5t146.5 -59.5z" />
    <glyph glyph-name="o_o" horiz-adv-x="1076" 
d="M768 -12q-81 0 -141 39t-89 104q-30 -65 -90 -104t-140 -39q-112 0 -182.5 73.5t-70.5 176.5t70.5 177t182.5 74q80 0 140 -39.5t90 -104.5q30 65 90 104.5t140 39.5q112 0 182.5 -74t70.5 -177t-70.5 -176.5t-182.5 -73.5zM768 30q88 0 147.5 59.5t59.5 148.5t-59.5 149
t-147.5 60q-87 0 -147 -59.5t-60 -149.5q0 -89 59.5 -148.5t147.5 -59.5zM308 30q88 0 147.5 58.5t59.5 149.5q0 89 -59.5 149t-147.5 60t-147.5 -60t-59.5 -149t59.5 -148.5t147.5 -59.5z" />
    <glyph glyph-name="liralow" horiz-adv-x="547" 
d="M63 0v41h27q39 0 39 65v41h-66v37h66v78h-66v37h66q0 92 52 141t149 49q84 0 149 -40v-45q-68 43 -147 43q-157 0 -158 -148h248v-37h-248v-78h248v-37h-248v-55q0 -34 -21 -51h329v-41h-419z" />
    <glyph glyph-name="franclow" horiz-adv-x="529" 
d="M106 0v68h-80v37h80v372h375v-42h-330v-184h267v-40h-267v-106h141v-37h-141v-68h-45z" />
    <glyph glyph-name="pesolow" horiz-adv-x="607" 
d="M22 304v42h87v131h234q75 0 120 -36t52 -95h83v-42h-83q-6 -60 -52 -95.5t-121 -35.5h-188v-173h-45v304h-87zM336 436h-182v-223h182q64 0 99.5 29.5t35.5 82.5q0 52 -35.5 81.5t-99.5 29.5z" />
    <glyph glyph-name="H_B" horiz-adv-x="1222" 
d="M105 0v700h46v-302h457v302h294q92 0 144 -45t52 -124q0 -115 -97 -150q75 -11 117.5 -61t42.5 -126q0 -88 -59.5 -141t-165.5 -53h-328v355h-457v-355h-46zM654 43h275q87 0 134.5 40.5t47.5 114.5t-47.5 114.5t-134.5 40.5h-275v-310zM654 393h242q75 0 116 34.5
t41 97.5t-41 97.5t-116 34.5h-242v-264z" />
    <glyph glyph-name="H_D" horiz-adv-x="1277" 
d="M105 0v700h46v-302h457v302h217q169 0 273 -97t104 -253t-104 -253t-273 -97h-217v355h-457v-355h-46zM654 43h163q156 0 247 84t91 223t-91 223t-247 84h-163v-614z" />
    <glyph glyph-name="H_E" horiz-adv-x="1140" 
d="M105 0v700h46v-302h457v302h468v-43h-422v-259h349v-43h-349v-312h438v-43h-484v355h-457v-355h-46z" />
    <glyph glyph-name="H_F" horiz-adv-x="1120" 
d="M105 0v700h46v-302h457v302h463v-43h-417v-268h346v-43h-346v-346h-46v355h-457v-355h-46z" />
    <glyph glyph-name="H_K" horiz-adv-x="1141" 
d="M608 0v355h-457v-355h-46v700h46v-302h457v302h46v-309l356 309h65l-369 -321l425 -379h-70l-407 364v-364h-46z" />
    <glyph glyph-name="H_M" horiz-adv-x="1350" 
d="M105 0v700h46v-302h457v302h47l272 -357l272 357h45v-700h-46v629l-256 -336h-30l-258 336v-629h-46v355h-457v-355h-46z" />
    <glyph glyph-name="H_N" horiz-adv-x="1278" 
d="M105 0v700h46v-302h457v302h41l477 -620v620h46v-700h-40l-478 621v-621h-46v355h-457v-355h-46z" />
    <glyph glyph-name="H_U" horiz-adv-x="1261" 
d="M105 0v700h46v-302h457v302h46v-401q0 -126 62.5 -196.5t171.5 -70.5q108 0 170.5 70.5t62.5 196.5v401h46v-401q0 -148 -77 -229.5t-202 -81.5q-126 0 -203 81t-77 230v56h-457v-355h-46z" />
    <glyph glyph-name="H_P" horiz-adv-x="1168" 
d="M608 0v355h-457v-355h-46v700h46v-302h457v302h291q102 0 159 -51.5t57 -136.5t-57 -137t-159 -52h-245v-323h-46zM654 366h241q83 0 128.5 38t45.5 108q0 69 -45.5 107t-128.5 38h-241v-291z" />
    <glyph glyph-name="H_R" horiz-adv-x="1239" 
d="M608 0v355h-457v-355h-46v700h46v-302h457v302h310q100 0 156.5 -50.5t56.5 -133.5q0 -75 -45.5 -124.5t-128.5 -59.5l230 -332h-54l-229 329h-250v-329h-46zM654 372h260q81 0 126 37t45 106q0 67 -45 104.5t-126 37.5h-260v-285z" />
    <glyph glyph-name="N_D" horiz-adv-x="1292" 
d="M105 0v700h41l477 -620v620h217q169 0 273 -97t104 -253t-104 -253t-273 -97h-211l-478 621v-621h-46zM669 43h163q156 0 247 84t91 223t-91 223t-247 84h-163v-614z" />
    <glyph glyph-name="N_B" horiz-adv-x="1237" 
d="M105 0v700h41l477 -620v620h294q92 0 144 -45t52 -124q0 -115 -97 -150q75 -11 117.5 -61t42.5 -126q0 -88 -59.5 -141t-165.5 -53h-322l-478 621v-621h-46zM669 43h275q87 0 134.5 40.5t47.5 114.5t-47.5 114.5t-134.5 40.5h-275v-310zM669 393h242q75 0 116 34.5
t41 97.5t-41 97.5t-116 34.5h-242v-264z" />
    <glyph glyph-name="M_P" horiz-adv-x="1255" 
d="M105 0v700h47l272 -357l272 357h290q102 0 159 -51.5t57 -136.5t-57 -137t-159 -52h-245v-323h-46v629l-256 -336h-30l-258 336v-629h-46zM741 366h241q83 0 128.5 38t45.5 108q0 69 -45.5 107t-128.5 38h-241v-291z" />
    <glyph glyph-name="M_R" horiz-adv-x="1326" 
d="M695 0v629l-256 -336h-30l-258 336v-629h-46v700h47l272 -357l272 357h309q100 0 156.5 -50.5t56.5 -133.5q0 -75 -45.5 -124.5t-128.5 -59.5l230 -332h-54l-229 329h-250v-329h-46zM741 372h260q81 0 126 37t45 106q0 67 -45 104.5t-126 37.5h-260v-285z" />
    <glyph glyph-name="M_H" horiz-adv-x="1350" 
d="M105 0v700h47l272 -357l272 357h45v-302h457v302h46v-700h-46v355h-457v-355h-46v629l-256 -336h-30l-258 336v-629h-46z" />
    <glyph glyph-name="M_U" horiz-adv-x="1348" 
d="M105 0v700h47l272 -357l272 357h45v-401q0 -126 62.5 -196.5t171.5 -70.5q108 0 170.5 70.5t62.5 196.5v401h46v-401q0 -148 -77 -229.5t-202 -81.5q-126 0 -203 81t-77 230v330l-256 -336h-30l-258 336v-629h-46z" />
    <glyph glyph-name="N_P" horiz-adv-x="1183" 
d="M105 0v700h41l477 -620v620h291q102 0 159 -51.5t57 -136.5t-57 -137t-159 -52h-245v-323h-40l-478 621v-621h-46zM669 366h241q83 0 128.5 38t45.5 108q0 69 -45.5 107t-128.5 38h-241v-291z" />
    <glyph glyph-name="N_R" horiz-adv-x="1254" 
d="M105 0v700h41l477 -620v620h310q100 0 156.5 -50.5t56.5 -133.5q0 -75 -45.5 -124.5t-128.5 -59.5l230 -332h-54l-229 329h-250v-329h-40l-478 621v-621h-46zM669 372h260q81 0 126 37t45 106q0 67 -45 104.5t-126 37.5h-260v-285z" />
    <glyph glyph-name="N_N" horiz-adv-x="1293" 
d="M105 0v700h41l477 -620v620h41l477 -620v620h46v-700h-40l-478 621v-621h-40l-478 621v-621h-46z" />
    <glyph glyph-name="U_P" horiz-adv-x="1167" 
d="M374 -12q-126 0 -203 81t-77 230v401h46v-401q0 -126 62.5 -196.5t171.5 -70.5q108 0 170.5 70.5t62.5 196.5v401h291q102 0 159 -51.5t57 -136.5t-57 -137t-159 -52h-245v-24q0 -148 -77 -229.5t-202 -81.5zM653 366h241q83 0 128.5 38t45.5 108q0 69 -45.5 107
t-128.5 38h-241v-291z" />
    <glyph glyph-name="U_R" horiz-adv-x="1238" 
d="M374 -12q-126 0 -203 81t-77 230v401h46v-401q0 -126 62.5 -196.5t171.5 -70.5q108 0 170.5 70.5t62.5 196.5v401h310q100 0 156.5 -50.5t56.5 -133.5q0 -75 -45.5 -124.5t-128.5 -59.5l230 -332h-54l-229 329h-250v-30q0 -148 -77 -229.5t-202 -81.5zM653 372h260
q81 0 126 37t45 106q0 67 -45 104.5t-126 37.5h-260v-285z" />
    <glyph glyph-name="U_F" horiz-adv-x="1119" 
d="M374 -12q-126 0 -203 81t-77 230v401h46v-401q0 -126 62.5 -196.5t171.5 -70.5q108 0 170.5 70.5t62.5 196.5v401h463v-43h-417v-268h346v-43h-346v-47q0 -148 -77 -229.5t-202 -81.5z" />
    <glyph glyph-name="U_H" horiz-adv-x="1262" 
d="M374 -12q-126 0 -203 81t-77 230v401h46v-401q0 -126 62.5 -196.5t171.5 -70.5q108 0 170.5 70.5t62.5 196.5v401h46v-302h457v302h46v-700h-46v355h-457v-56q0 -148 -77 -229.5t-202 -81.5z" />
    <glyph glyph-name="U_K" horiz-adv-x="1140" 
d="M374 -12q-126 0 -203 81t-77 230v401h46v-401q0 -126 62.5 -196.5t171.5 -70.5q108 0 170.5 70.5t62.5 196.5v401h46v-309l356 309h65l-369 -321l425 -379h-70l-407 364v-65q0 -148 -77 -229.5t-202 -81.5z" />
    <glyph glyph-name="U_M" horiz-adv-x="1349" 
d="M374 -12q-126 0 -203 81t-77 230v401h46v-401q0 -126 62.5 -196.5t171.5 -70.5q108 0 170.5 70.5t62.5 196.5v401h47l272 -357l272 357h45v-700h-46v629l-256 -336h-30l-258 336v-330q0 -148 -77 -229.5t-202 -81.5z" />
    <glyph glyph-name="M_B" horiz-adv-x="1309" 
d="M695 0v629l-256 -336h-30l-258 336v-629h-46v700h47l272 -357l272 357h293q92 0 144 -45t52 -124q0 -115 -97 -150q75 -11 117.5 -61t42.5 -126q0 -88 -59.5 -141t-165.5 -53h-328zM741 43h275q87 0 134.5 40.5t47.5 114.5t-47.5 114.5t-134.5 40.5h-275v-310zM741 393
h242q75 0 116 34.5t41 97.5t-41 97.5t-116 34.5h-242v-264z" />
    <glyph glyph-name="U_N" horiz-adv-x="1277" 
d="M374 -12q-126 0 -203 81t-77 230v401h46v-401q0 -126 62.5 -196.5t171.5 -70.5q108 0 170.5 70.5t62.5 196.5v401h41l477 -620v620h46v-700h-40l-478 621v-322q0 -148 -77 -229.5t-202 -81.5z" />
    <glyph glyph-name="M_E" horiz-adv-x="1227" 
d="M695 0v629l-256 -336h-30l-258 336v-629h-46v700h47l272 -357l272 357h467v-43h-422v-259h349v-43h-349v-312h438v-43h-484z" />
    <glyph glyph-name="endash.cap" horiz-adv-x="717" 
d="M103 359v41h511v-41h-511z" />
    <glyph glyph-name="emdash.cap" horiz-adv-x="904" 
d="M103 359v41h698v-41h-698z" />
    <glyph glyph-name="hyphen.cap" horiz-adv-x="476" 
d="M103 359v41h270v-41h-270z" />
    <glyph glyph-name="bracketleft.cap" horiz-adv-x="370" 
d="M100 -106v912h230v-40h-187v-832h187v-40h-230z" />
    <glyph glyph-name="bracketright.cap" horiz-adv-x="370" 
d="M270 806v-912h-230v40h187v832h-187v40h230z" />
    <glyph glyph-name="braceleft.cap" horiz-adv-x="347" 
d="M111 350q39 -16 51.5 -51.5t12.5 -97.5v-178q0 -89 91 -89h41v-40h-48q-59 0 -93 33.5t-34 94.5v169q0 25 -0.5 39.5t-4.5 35.5t-12 32.5t-23 21t-37 11.5v38q22 2 37 11.5t23 21t12 32.5t4.5 35.5t0.5 39.5v169q0 61 34 94.5t93 33.5h48v-40h-41q-91 0 -91 -89v-178
q0 -62 -12.5 -97.5t-51.5 -51.5z" />
    <glyph glyph-name="braceright.cap" horiz-adv-x="347" 
d="M236 350q-39 16 -51.5 51.5t-12.5 97.5v178q0 89 -91 89h-41v40h48q59 0 93 -33.5t34 -94.5v-169q0 -25 0.5 -39.5t4.5 -35.5t12 -32.5t23 -21t37 -11.5v-38q-22 -2 -37 -11.5t-23 -21t-12 -32.5t-4.5 -35.5t-0.5 -39.5v-169q0 -61 -34 -94.5t-93 -33.5h-48v40h41
q91 0 91 89v178q0 62 12.5 97.5t51.5 51.5z" />
    <glyph glyph-name="guillemotright.cap" horiz-adv-x="536" 
d="M484 338l-156 -184h-54l167 196l-167 197h54l156 -183v-26zM261 338l-156 -184h-54l167 196l-167 197h54l156 -183v-26z" />
    <glyph glyph-name="guillemotleft.cap" horiz-adv-x="535" 
d="M208 154l-156 184v26l156 183h54l-167 -197l167 -196h-54zM431 154l-156 184v26l156 183h54l-167 -197l167 -196h-54z" />
    <glyph glyph-name="guilsinglright.cap" horiz-adv-x="313" 
d="M261 338l-156 -184h-54l167 196l-167 197h54l156 -183v-26z" />
    <glyph glyph-name="guilsinglleft.cap" horiz-adv-x="312" 
d="M208 154l-156 184v26l156 183h54l-167 -197l167 -196h-54z" />
    <glyph glyph-name="parenleft.cap" horiz-adv-x="351" 
d="M252 -106q-150 189 -150 456q0 265 150 456h50q-157 -201 -157 -456q0 -257 157 -456h-50z" />
    <glyph glyph-name="parenright.cap" horiz-adv-x="351" 
d="M99 -106h-50q157 199 157 456q0 255 -157 456h50q150 -191 150 -456q0 -267 -150 -456z" />
    <glyph glyph-name="exclamdown.cap" horiz-adv-x="264" 
d="M105 0l6 492h42l6 -492h-54zM94 665q0 16 11 27t27 11t27 -11t11 -27t-11 -27t-27 -11t-27 11t-11 27z" />
    <glyph glyph-name="questiondown.cap" horiz-adv-x="467" 
d="M263 485v-143q-72 -15 -128 -60.5t-56 -109.5t47 -104t119 -40q90 0 171 60v-46q-72 -56 -175 -56q-86 0 -147 51.5t-61 133.5q0 71 53.5 122t132.5 75v117h44zM277 658q0 -16 -11 -27t-27 -11t-27 11t-11 27t11 27t27 11t27 -11t11 -27z" />
    <glyph glyph-name="f_t" horiz-adv-x="688" 
d="M172 0h-45v436h-99v41h99v95q0 63 32.5 99t93.5 36q52 0 93 -20v-42q-44 21 -84 21q-43 0 -66.5 -27t-23.5 -76v-86h244v154h45v-154h178v-41h-178v-299q0 -58 21.5 -82.5t68.5 -24.5q42 0 81 22v-42q-31 -22 -92 -22q-62 0 -93 36.5t-31 100.5v311h-244v-436z" />
    <glyph glyph-name="uni20B6.mono" 
d="M108 0v165h-94v43h94v115h-94v43h94v334h291q102 0 159 -51.5t57 -136.5t-57 -137t-159 -52h-245v-115h307v-43h-307v-165h-46zM154 366h241q83 0 128.5 38t45.5 108q0 69 -45.5 107t-128.5 38h-241v-291z" />
    <glyph glyph-name="liralow.mono" 
d="M86 0v41h27q39 0 39 65v41h-66v37h66v78h-66v37h66q0 92 52 141t149 49q84 0 149 -40v-45q-68 43 -147 43q-157 0 -158 -148h248v-37h-248v-78h248v-37h-248v-55q0 -34 -21 -51h329v-41h-419z" />
    <glyph glyph-name="U_T" horiz-adv-x="940" 
d="M374 -12q-126 0 -203 81t-77 230v401h46v-401q0 -126 62.5 -196.5t171.5 -70.5q108 0 170.5 70.5t62.5 196.5v358h-251v43h548v-43h-251v-358q0 -148 -77 -229.5t-202 -81.5z" />
    <glyph glyph-name="T_U" horiz-adv-x="940" 
d="M566 -12q-125 0 -202 81.5t-77 229.5v358h-251v43h548v-43h-251v-358q0 -126 62.5 -196.5t170.5 -70.5q109 0 171.5 70.5t62.5 196.5v401h46v-401q0 -149 -77 -230t-203 -81z" />
    <glyph glyph-name="N_T" horiz-adv-x="956" 
d="M669 657v-657h-40l-478 621v-621h-46v700h41l477 -620v577h-251v43h548v-43h-251z" />
    <glyph glyph-name="T_H" horiz-adv-x="942" 
d="M287 0v657h-251v43h548v-43h-251v-259h457v302h46v-700h-46v355h-457v-355h-46z" />
    <glyph glyph-name="H_T" horiz-adv-x="941" 
d="M654 657v-657h-46v355h-457v-355h-46v700h46v-302h457v259h-251v43h548v-43h-251z" />
    <glyph glyph-name="A_V" horiz-adv-x="1056" 
d="M33 0l318 704h43l289 -644l284 640h50l-312 -700h-43l-93 206h-394l-93 -206h-49zM191 246h361l-180 398z" />
    <glyph glyph-name="D_C" horiz-adv-x="1270" 
d="M1004 -12q-114 0 -202.5 61.5t-126.5 165.5q-39 -100 -132 -157.5t-221 -57.5h-217v700h217q128 0 221 -57.5t132 -158.5q38 104 126 166t203 62q114 0 200 -55v-50q-91 61 -199 61q-129 0 -217.5 -90.5t-88.5 -227.5t88.5 -227.5t218.5 -90.5q124 0 214 73v-51
q-87 -66 -216 -66zM151 43h163q156 0 247 84t91 223t-91 223t-247 84h-163v-614z" />
    <glyph glyph-name="D_O" horiz-adv-x="1423" 
d="M1000 -12q-113 0 -200.5 62t-124.5 165q-39 -100 -132 -157.5t-221 -57.5h-217v700h217q128 0 221 -57.5t132 -158.5q37 103 124.5 165.5t200.5 62.5q148 0 248 -103.5t100 -258.5t-100 -258.5t-248 -103.5zM1000 32q127 0 214 91t87 227t-87 227t-214 91t-214 -91
t-87 -227t87 -227t214 -91zM151 43h163q156 0 247 84t91 223t-91 223t-247 84h-163v-614z" />
    <glyph glyph-name="D_Q" horiz-adv-x="1423" 
d="M1000 -12q-113 0 -200.5 62t-124.5 165q-39 -100 -132 -157.5t-221 -57.5h-217v700h217q128 0 221 -57.5t132 -158.5q37 103 124.5 165.5t200.5 62.5q148 0 248 -103.5t100 -258.5q0 -127 -68.5 -221t-178.5 -127q70 -74 142 -74q50 0 83 24v-47q-38 -20 -85 -20
q-92 0 -192 107q-32 -4 -49 -4zM1000 32q127 0 214 91t87 227t-87 227t-214 91t-214 -91t-87 -227t87 -227t214 -91zM151 43h163q156 0 247 84t91 223t-91 223t-247 84h-163v-614z" />
    <glyph glyph-name="D_G" horiz-adv-x="1359" 
d="M1003 -12q-114 0 -202 61.5t-126 165.5q-39 -100 -132 -157.5t-221 -57.5h-217v700h217q128 0 221 -57.5t132 -158.5q38 104 126 166t202 62q135 0 228 -73v-49q-99 78 -225 78q-131 0 -219 -90.5t-88 -228.5q0 -137 88 -227t216 -90q141 0 221 83v286h46v-303
q-101 -110 -267 -110zM151 43h163q156 0 247 84t91 223t-91 223t-247 84h-163v-614z" />
    <glyph glyph-name="H_Y" horiz-adv-x="955" 
d="M105 0v700h46v-343h433l-249 343h56l241 -332l242 332h53l-273 -375v-325h-46v314h-457v-314h-46z" />
    <glyph glyph-name="L_A" horiz-adv-x="1219" 
d="M105 0v700h46v-657h377l299 661h43l316 -704h-48l-93 206h-394l-93 -206h-453zM667 246h361l-180 398z" />
    <glyph glyph-name="M_D" horiz-adv-x="1364" 
d="M695 0v629l-256 -336h-30l-258 336v-629h-46v700h47l272 -357l272 357h216q169 0 273 -97t104 -253t-104 -253t-273 -97h-217zM741 43h163q156 0 247 84t91 223t-91 223t-247 84h-163v-614z" />
    <glyph glyph-name="M_F" horiz-adv-x="1207" 
d="M105 0v700h47l272 -357l272 357h462v-43h-417v-268h346v-43h-346v-346h-46v629l-256 -336h-30l-258 336v-629h-46z" />
    <glyph glyph-name="M_N" horiz-adv-x="1365" 
d="M695 0v629l-256 -336h-30l-258 336v-629h-46v700h47l272 -357l272 357h40l477 -620v620h46v-700h-40l-478 621v-621h-46z" />
    <glyph glyph-name="N_E" horiz-adv-x="1155" 
d="M105 0v700h41l477 -620v620h468v-43h-422v-259h349v-43h-349v-312h438v-43h-478l-478 621v-621h-46z" />
    <glyph glyph-name="N_F" horiz-adv-x="1135" 
d="M629 0l-478 621v-621h-46v700h41l477 -620v620h463v-43h-417v-268h346v-43h-346v-346h-40z" />
    <glyph glyph-name="N_M" horiz-adv-x="1365" 
d="M105 0v700h41l477 -620v620h47l272 -357l272 357h45v-700h-46v629l-256 -336h-30l-258 336v-629h-40l-478 621v-621h-46z" />
    <glyph glyph-name="O_Q" horiz-adv-x="1495" 
d="M1072 -12q-113 0 -200 61.5t-125 163.5q-38 -102 -125.5 -163.5t-198.5 -61.5q-149 0 -248.5 103t-99.5 259q0 155 99.5 258.5t248.5 103.5q111 0 198.5 -62t125.5 -164q38 103 125 164.5t200 61.5q148 0 248 -103.5t100 -258.5q0 -127 -68.5 -221t-178.5 -127
q70 -74 142 -74q50 0 83 24v-47q-38 -20 -85 -20q-92 0 -192 107q-32 -4 -49 -4zM1072 32q127 0 214 91t87 227t-87 227t-214 91t-214 -91t-87 -227t87 -227t214 -91zM423 32q127 0 214 91t87 227t-87 227t-214 91t-214 -91t-87 -227t87 -227t214 -91z" />
    <glyph glyph-name="O_G" horiz-adv-x="1431" 
d="M1075 -12q-113 0 -201.5 61t-126.5 164q-38 -102 -125.5 -163.5t-198.5 -61.5q-149 0 -248.5 103t-99.5 259q0 155 99.5 258.5t248.5 103.5q111 0 198.5 -62t125.5 -164q38 103 126.5 164.5t201.5 61.5q135 0 228 -73v-49q-99 78 -225 78q-131 0 -219 -90.5t-88 -228.5
q0 -137 88 -227t216 -90q141 0 221 83v286h46v-303q-101 -110 -267 -110zM423 32q127 0 214 91t87 227t-87 227t-214 91t-214 -91t-87 -227t87 -227t214 -91z" />
    <glyph glyph-name="T_Z" horiz-adv-x="1142" 
d="M557 0v33l454 624h-678v-657h-46v657h-251v43h1036v-33l-450 -624h466v-43h-531z" />
    <glyph glyph-name="V_A" horiz-adv-x="1057" 
d="M351 0l-312 700h51l285 -639l290 643h43l316 -704h-48l-93 206h-394l-93 -206h-45zM505 246h361l-180 398z" />
    <glyph glyph-name="Y_H" horiz-adv-x="954" 
d="M299 0v324l-273 376h56l241 -332l242 332h53l-250 -343h434v343h46v-700h-46v314h-457v-314h-46z" />
    <glyph glyph-name="H_L" horiz-adv-x="1095" 
d="M608 0v355h-457v-355h-46v700h46v-302h457v302h46v-657h407v-43h-453z" />
    <glyph glyph-name="N_K" horiz-adv-x="1156" 
d="M105 0v700h41l477 -620v620h46v-309l356 309h65l-369 -321l425 -379h-70l-407 364v-364h-40l-478 621v-621h-46z" />
    <glyph glyph-name="N_L" horiz-adv-x="1110" 
d="M629 0l-478 621v-621h-46v700h41l477 -620v620h46v-657h407v-43h-447z" />
    </font>
</defs>
</svg>
